<svg width="1537" height="1381" viewBox="0 0 1537 1381" fill="none" xmlns="http://www.w3.org/2000/svg">
<mask id="mask0_303_828" style="mask-type:luminance" maskUnits="userSpaceOnUse" x="111" y="197" width="1316" height="987">
<path d="M1427 197H111V1184H1427V197Z" fill="white"/>
</mask>
<g mask="url(#mask0_303_828)">
<path d="M1349.81 929.478C1349.81 1109.57 1211.99 821.903 606.883 1050.5C1.7784 1279.09 230.373 743.144 230.373 563.053C230.373 382.961 374.926 223.521 781.687 294.117C1141.39 398.33 1349.81 749.385 1349.81 929.478Z" fill="#DBA1F1"/>
<path d="M365.005 631.348C345.684 600.108 318.557 589.961 305.695 590.455C305.737 590.448 305.78 590.441 305.822 590.435C313.492 588.905 374.056 514.544 430.271 522.456C486.81 530.415 563.04 563.04 578.363 612.343C593.687 661.646 622.585 701.472 655.379 794.905C688.173 888.34 654.897 908.199 654.897 908.199C679.372 940.388 712.753 1059.26 715.904 1078.46C718.426 1093.82 694.098 1091.34 687.691 1097.62C690.385 1084.19 710.956 1032.36 665.615 942.685C599.726 861.705 533.246 958.266 511.734 889.051C478.249 781.317 368.105 812.856 365.402 741.344C362.439 662.94 389.157 670.398 365.005 631.348Z" fill="url(#paint0_linear_303_828)"/>
<path d="M665.595 942.678C710.935 1032.35 690.47 1084.53 687.777 1097.95C694.184 1091.68 718.405 1093.81 715.884 1078.46C712.732 1059.26 679.352 940.382 654.876 908.192C641.409 886.715 602.499 835.57 595.264 829.287C590.084 824.789 578.816 808.518 563.295 786.294C570.495 760.6 568.105 723.788 568.591 701.861C569.781 648.13 525.961 577.319 525.961 577.319C525.961 577.319 563.594 659.447 562.951 683.714C561.98 720.376 562.352 760.305 558.239 778.479C548.762 761.772 470.573 636.949 463.257 626.834C455.94 616.718 473.132 582.678 461.809 563.654C450.486 544.631 447.753 538.362 444.232 533.074C444.232 533.074 450.629 548.356 460.02 565.149C469.412 581.941 454.748 610.33 455.308 621.795C432.925 601.721 401.504 584.65 376.133 580.333C350.763 576.016 317.422 587.13 317.422 587.13C323.351 586.476 355.796 580.248 374.664 582.855C390.553 585.05 412.588 595.976 424.041 602.801C441.038 612.931 459.591 631.072 476 654.411C484.304 666.222 511.417 716.057 519.802 730.916C519.802 730.916 470.083 683.292 443.285 668.343C416.487 653.394 378.529 641.634 378.529 641.634C378.529 641.634 419.518 660.736 441.823 673.303C464.129 685.871 508.229 732.862 522.058 734.928C534.72 757.519 529.31 746.759 546.592 774.247C559.353 794.545 572.181 807.933 589.816 829.879C575.748 821.461 547.316 816.112 514.977 793.239C486.954 773.42 406.964 759.544 390.896 757.089C401.185 759.168 451.903 774.12 459.673 776.637C470.319 780.086 497.418 792.314 511.071 801.211C524.725 810.108 585.531 833.072 596.564 842.597C607.596 852.124 609.79 853.795 613.058 857.546C638.063 886.241 651.43 914.66 665.595 942.678Z" fill="black" fill-opacity="0.2"/>
<path d="M634.57 414.676C634.57 396.406 642.152 376.348 658.102 367.437C673.517 358.826 861.646 253.209 874.267 246.125C874.734 245.862 875.175 245.627 875.662 245.396C902.429 232.624 935.441 250.212 935.441 278.667V934.94C935.441 946.429 929.164 956.917 919.471 963.089L737.102 1086.63C700.124 1112.68 634.57 1093.74 634.57 1044.99V414.676Z" fill="url(#paint1_linear_303_828)"/>
<path d="M641.309 416.985C641.309 398.715 649.731 379.496 665.681 370.586L882.513 247.884C903.523 236.118 934.613 249.565 935.456 276.598V934.552C935.456 946.04 929.586 956.74 919.901 962.912L734.596 1088.31C699.297 1110.16 641.309 1099.24 641.309 1052.72V416.985Z" fill="#143062"/>
<path d="M648.043 416.98C648.043 398.71 657.925 381.869 673.875 372.959L885.459 252.288C907.863 239.769 935.467 250.925 935.467 276.593V934.552C935.467 946.04 929.597 956.733 919.911 962.905L737.968 1087.46C698.468 1113.51 648.043 1100.91 648.043 1043.76V416.98Z" fill="url(#paint2_linear_303_828)"/>
<path d="M653.063 416.989C653.063 398.719 662.946 381.879 678.896 372.968L885.858 254.613C908.269 242.094 935.445 250.934 935.445 276.602V934.558C935.445 946.047 929.575 956.74 919.89 962.912L737.946 1087.47C698.446 1113.53 651.383 1100.92 651.383 1043.77L653.063 416.989Z" fill="white" fill-opacity="0.3"/>
<path d="M656.422 416.981C656.422 398.711 666.525 382.856 682.475 373.945L885.855 257.126C908.266 244.607 935.442 250.927 935.442 276.594V931.189C935.442 942.678 929.572 953.37 919.886 959.543L733.741 1086.62C694.241 1111.84 656.422 1094.19 656.422 1051.33V416.981Z" fill="black"/>
<path d="M659.785 418.668C659.785 400.398 669.668 383.557 685.618 374.646L885.856 259.653C908.268 247.135 935.443 252.613 935.443 278.281V927.834C935.443 939.322 929.574 950.015 919.888 956.187L737.104 1080.75C697.604 1107.64 659.785 1098.39 659.785 1046.29V418.668Z" fill="#2C2C2C"/>
<path d="M668.191 427.071C668.191 408.801 673.252 389.584 689.202 380.673L885.022 266.375C903.229 256.288 935.445 249.565 935.445 285.003V919.424C935.445 930.92 929.575 941.612 919.89 947.784L723.659 1081.59C694.244 1100.08 668.191 1084.11 668.191 1053.85V427.071Z" fill="url(#paint3_linear_303_828)"/>
<path fill-rule="evenodd" clip-rule="evenodd" d="M902.873 411.681C904.176 413.998 903.386 416.953 901.123 418.281L710.561 537.726C708.296 539.054 705.406 538.252 704.108 535.935C702.809 533.618 703.592 530.663 705.859 529.334L896.418 409.89C898.688 408.562 901.577 409.364 902.873 411.681ZM902.88 452.313C904.176 454.634 903.38 457.587 901.11 458.909L714.333 575.452C712.064 576.773 709.177 575.963 707.884 573.643C706.592 571.322 707.383 568.369 709.653 567.048L896.431 450.505C898.701 449.183 901.59 449.992 902.88 452.313ZM902.86 493.377C904.169 495.685 903.406 498.645 901.149 499.989L717.683 617.016C715.426 618.36 712.531 617.579 711.217 615.271C709.903 612.963 710.666 610.003 712.923 608.659L896.392 491.632C898.649 490.288 901.544 491.069 902.86 493.377Z" fill="url(#paint4_linear_303_828)"/>
<path d="M879.543 877.78L711.574 986.869C704.9 990.817 702.379 998.898 702.379 1005.11C702.379 1019.68 717.506 1033.68 731.594 1024.32L899.224 914.706C904.317 911.377 907.383 898.98 907.383 892.9C907.383 878.602 891.539 869.995 879.543 877.78Z" fill="white" fill-opacity="0.5"/>
<path d="M880.539 879.885L713.296 988.304C706.572 992.502 704.051 1000.07 704.051 1005.95C704.051 1020.53 718.338 1033.69 733.452 1023.85L900.193 915.167C908.353 908.462 909.037 899.191 908.274 892.492C906.655 878.286 892.534 872.108 880.539 879.885Z" fill="url(#paint5_linear_303_828)"/>
<path d="M739.431 1002.78C741.241 1011.91 736.444 1020.45 728.717 1021.83C720.99 1023.22 713.258 1016.93 711.448 1007.79C709.639 998.654 714.435 990.12 722.162 988.738C729.89 987.35 737.621 993.64 739.431 1002.78Z" fill="url(#paint6_linear_303_828)"/>
<path d="M730.947 1002.58L721.703 1001.75L733.469 1010.99L743.554 978.21V974.012L730.947 1002.58Z" fill="url(#paint7_linear_303_828)"/>
<path d="M804.316 356.878C799.448 356.266 796.06 351.331 796.748 345.855C797.436 340.379 801.939 336.435 806.807 337.047C811.675 337.658 815.063 342.593 814.375 348.07C813.687 353.546 809.184 357.489 804.316 356.878Z" fill="black"/>
<path d="M804.51 353.599C801.472 353.189 799.407 349.901 799.898 346.255C800.39 342.608 803.252 339.984 806.291 340.394C809.33 340.804 811.394 344.092 810.903 347.738C810.411 351.385 807.549 354.009 804.51 353.599Z" fill="white" fill-opacity="0.2"/>
<path fill-rule="evenodd" clip-rule="evenodd" d="M706.296 405.044C707.523 405.044 708.817 406.364 708.817 408.406C708.817 410.447 707.523 411.768 706.296 411.768C705.069 411.768 703.774 410.447 703.774 408.406C703.774 406.364 705.069 405.044 706.296 405.044ZM710.498 408.406C710.498 405.805 708.782 403.363 706.296 403.363C703.81 403.363 702.094 405.805 702.094 408.406C702.094 411.006 703.81 413.448 706.296 413.448C708.782 413.448 710.498 411.006 710.498 408.406Z" fill="black"/>
<path fill-rule="evenodd" clip-rule="evenodd" d="M707.143 417.651C708.371 417.651 709.665 418.971 709.665 421.013C709.665 423.054 708.371 424.375 707.143 424.375C705.916 424.375 704.622 423.054 704.622 421.013C704.622 418.971 705.916 417.651 707.143 417.651ZM711.345 421.013C711.345 418.413 709.629 415.97 707.143 415.97C704.657 415.97 702.941 418.413 702.941 421.013C702.941 423.613 704.657 426.055 707.143 426.055C709.629 426.055 711.345 423.613 711.345 421.013Z" fill="black"/>
<path fill-rule="evenodd" clip-rule="evenodd" d="M723.003 399.61C722.787 399.2 722.279 399.041 721.868 399.257L710.102 405.434C709.691 405.65 709.533 406.158 709.748 406.569C709.964 406.98 710.472 407.138 710.883 406.923L722.649 400.745C723.06 400.53 723.218 400.022 723.003 399.61ZM700.311 411.523C700.095 411.113 699.587 410.954 699.177 411.17L688.251 416.906C687.84 417.122 687.681 417.63 687.897 418.041C688.113 418.451 688.621 418.61 689.032 418.394L699.958 412.658C700.369 412.443 700.527 411.935 700.311 411.523Z" fill="black"/>
<path fill-rule="evenodd" clip-rule="evenodd" d="M726.37 409.693C726.154 409.282 725.646 409.123 725.235 409.339L713.469 415.516C713.058 415.732 712.9 416.24 713.116 416.651C713.331 417.062 713.839 417.22 714.25 417.004L726.016 410.827C726.427 410.611 726.586 410.103 726.37 409.693ZM703.678 421.605C703.462 421.195 702.954 421.036 702.544 421.252L691.618 426.988C691.207 427.203 691.049 427.711 691.264 428.123C691.48 428.534 691.988 428.692 692.399 428.476L703.325 422.74C703.736 422.524 703.894 422.016 703.678 421.605Z" fill="black"/>
<path d="M903.089 445.114L936.555 420.456V615.434L927.612 620.61C912.669 629.26 893.969 618.479 893.969 601.215V463.156C893.969 456.035 897.357 449.338 903.089 445.114Z" fill="black" fill-opacity="0.28"/>
<path d="M672.443 782.442L482.286 894.48C474.918 898.862 470.402 906.797 470.402 915.371V945.257C470.402 954.634 482.256 960.477 490.357 955.752L678.746 845.86C686.212 841.502 690.803 833.509 690.803 824.866V792.886C690.803 783.464 680.543 777.627 672.443 782.442Z" fill="#FD9B4D"/>
<path d="M672.443 782.442L482.286 894.48C474.918 898.862 470.402 906.797 470.402 915.371V945.257C470.402 954.634 482.256 960.477 490.357 955.752L642.141 867.126H672.448L656.166 858.98L678.746 845.86C686.212 841.502 690.803 833.509 690.803 824.866V792.886C690.803 783.464 680.543 777.627 672.443 782.442Z" fill="white" fill-opacity="0.5"/>
<path d="M672.465 784.125L483.99 896.164C476.621 900.546 472.105 908.482 472.105 917.056V945.257C472.105 954.634 482.278 960.477 490.379 955.753L640.619 868.114C641.668 867.502 642.861 867.179 644.076 867.179H659.917C663.1 867.179 664.134 862.902 661.302 861.448C659.172 860.356 659.09 857.335 661.159 856.131L678.768 845.86C686.234 841.505 690.825 833.512 690.825 824.868V794.57C690.825 785.148 680.564 779.31 672.465 784.125Z" fill="url(#paint8_linear_303_828)"/>
<path fill-rule="evenodd" clip-rule="evenodd" d="M671.323 809.863C672.477 811.877 671.78 814.444 669.767 815.599L500.422 912.667C498.408 913.825 495.84 913.127 494.686 911.114C493.532 909.1 494.229 906.528 496.242 905.376L665.587 808.307C667.601 807.153 670.169 807.85 671.323 809.863ZM669.528 831.804C670.677 833.821 669.973 836.387 667.957 837.536L501.973 932.084C499.957 933.229 497.391 932.525 496.242 930.512C495.093 928.498 495.797 925.932 497.814 924.781L663.797 830.233C665.813 829.084 668.38 829.788 669.528 831.804Z" fill="url(#paint9_linear_303_828)"/>
<path d="M674.146 624.444L483.99 736.483C476.621 740.862 472.105 748.8 472.105 757.372V787.258C472.105 796.636 483.959 802.479 492.06 797.754L680.449 687.86C687.914 683.505 692.505 675.512 692.505 666.869V634.889C692.505 625.467 682.245 619.63 674.146 624.444Z" fill="#FD9B4D"/>
<path d="M674.146 624.444L483.99 736.483C476.621 740.862 472.105 748.8 472.105 757.372V787.258C472.105 796.636 483.959 802.479 492.06 797.754L643.844 709.127H674.152L657.869 700.985L680.449 687.86C687.914 683.505 692.505 675.512 692.505 666.869V634.889C692.505 625.467 682.245 619.63 674.146 624.444Z" fill="white" fill-opacity="0.5"/>
<path d="M674.133 626.128L485.658 738.166C478.289 742.546 473.773 750.484 473.773 759.056V787.26C473.773 796.639 483.947 802.482 492.047 797.756L643.889 709.182H674.133L658.046 700.924L680.436 687.863C687.902 683.508 692.493 675.515 692.493 666.871V636.573C692.493 627.151 682.232 621.313 674.133 626.128Z" fill="url(#paint10_linear_303_828)"/>
<path fill-rule="evenodd" clip-rule="evenodd" d="M673.021 651.866C674.176 653.88 673.479 656.447 671.466 657.601L502.12 754.67C500.107 755.824 497.539 755.128 496.385 753.114C495.231 751.101 495.928 748.533 497.941 747.379L667.286 650.31C669.3 649.156 671.867 649.853 673.021 651.866ZM671.227 673.807C672.376 675.824 671.673 678.39 669.656 679.539L503.672 774.086C501.656 775.235 499.09 774.531 497.941 772.515C496.793 770.498 497.496 767.932 499.513 766.783L665.496 672.236C667.513 671.087 670.079 671.791 671.227 673.807Z" fill="url(#paint11_linear_303_828)"/>
<path d="M1111.79 311.503L920.993 424.206C913.63 428.587 909.109 436.525 909.109 445.096V597.683C909.109 607.062 920.48 613.949 928.58 609.223L1119.14 498.286C1126.6 493.931 1131.19 485.938 1131.19 477.294V324.294C1131.19 314.872 1119.89 306.689 1111.79 311.503Z" fill="#612F82"/>
<path d="M1111.79 311.503L920.993 424.206C913.63 428.587 909.109 436.525 909.109 445.096V597.683C909.109 607.062 920.48 613.949 928.58 609.223L1119.14 498.286C1126.6 493.931 1131.19 485.938 1131.19 477.294V324.294C1131.19 314.872 1119.89 306.689 1111.79 311.503Z" fill="white" fill-opacity="0.5"/>
<path d="M1112.85 313.833C1112.83 313.839 1112.83 313.842 1112.83 313.842C1112.51 314.031 936.582 417.941 925.429 424.743C914.269 431.552 912.473 438.197 912.473 446.769V597.675C912.473 607.054 922.645 612.897 930.745 608.172L1119.14 498.278C1126.6 493.923 1131.19 485.93 1131.19 477.286V324.286C1131.19 314.87 1120.95 309.034 1112.85 313.833Z" fill="url(#paint12_linear_303_828)"/>
<path d="M1112.83 313.842C1112.51 314.031 936.582 417.941 925.429 424.743C914.269 431.552 912.473 438.197 912.473 446.769V453.528L1131.19 328.095V324.286C1131.19 314.87 1120.95 309.034 1112.85 313.833L1112.83 313.842Z" fill="black" fill-opacity="0.5"/>
<path d="M931.053 433.123C931.033 435.792 928.993 438.386 926.493 438.916C923.999 439.447 921.992 437.714 922.012 435.045C922.032 432.376 924.078 429.782 926.572 429.252C929.072 428.721 931.079 430.454 931.053 433.123Z" fill="#612F82"/>
<path d="M945.166 425.142C945.146 427.811 943.1 430.405 940.606 430.936C938.106 431.466 936.099 429.733 936.125 427.064C936.145 424.395 938.185 421.801 940.685 421.271C943.179 420.74 945.186 422.473 945.166 425.142Z" fill="#FD9B4D"/>
<path d="M958.43 417.566C958.404 420.235 956.364 422.828 953.864 423.359C951.37 423.89 949.363 422.157 949.383 419.488C949.409 416.82 951.449 414.226 953.949 413.695C956.443 413.164 958.45 414.898 958.43 417.566Z" fill="#B4B3EE"/>
<path fill-rule="evenodd" clip-rule="evenodd" d="M1099.37 401.791C1100.54 403.798 1099.86 406.37 1097.85 407.536L1035.66 443.674C1033.65 444.84 1031.08 444.159 1029.92 442.153C1028.75 440.146 1029.44 437.574 1031.44 436.408L1093.63 400.27C1095.64 399.104 1098.21 399.785 1099.37 401.791ZM1096.05 431.272C1097.18 433.3 1096.45 435.859 1094.43 436.989L1035.59 469.765C1033.57 470.895 1031.01 470.167 1029.88 468.14C1028.75 466.112 1029.48 463.553 1031.51 462.424L1090.33 429.647C1092.36 428.517 1094.92 429.245 1096.05 431.272ZM1076.31 469.537C1077.43 471.572 1076.69 474.125 1074.65 475.241L1035.57 496.672C1033.54 497.788 1030.98 497.044 1029.86 495.008C1028.75 492.974 1029.5 490.419 1031.53 489.303L1070.61 467.872C1072.65 466.756 1075.2 467.502 1076.31 469.537Z" fill="white" fill-opacity="0.5"/>
<path d="M942.781 543.474V488.014C942.781 483.28 945.275 478.896 949.335 476.469L993.125 450.318C997.606 447.642 1003.3 450.87 1003.3 456.09V512.158C1003.3 516.941 1000.75 521.364 996.625 523.773L952.895 549.282C948.414 551.896 942.781 548.663 942.781 543.474Z" fill="white" fill-opacity="0.49"/>
<path d="M953.91 522.829V533.352L993.199 511.081V502.317C993.199 497.344 987.988 494.092 983.52 496.279L961.892 508.35C956.128 511.171 953.91 516.41 953.91 522.829Z" fill="#B4B3EE"/>
<path d="M979.301 490.615C978.722 497.743 974.201 503.194 969.201 502.79C964.2 502.386 960.607 496.28 961.186 489.153C961.759 482.025 966.279 476.574 971.287 476.978C976.287 477.382 979.873 483.488 979.301 490.615Z" fill="#B4B3EE"/>
<g filter="url(#filter0_d_303_828)">
<path d="M970.604 533.373L779.806 646.076C772.438 650.456 767.922 658.394 767.922 666.965V819.553C767.922 828.931 779.293 835.818 787.394 831.093L977.948 720.156C985.409 715.8 990.002 707.807 990.002 699.164V546.164C990.002 536.741 978.704 528.558 970.604 533.373Z" fill="#612F82"/>
</g>
<path d="M970.604 533.373L779.806 646.076C772.438 650.456 767.922 658.394 767.922 666.965V819.553C767.922 828.931 779.293 835.818 787.394 831.093L977.948 720.156C985.409 715.8 990.002 707.807 990.002 699.164V546.164C990.002 536.741 978.704 528.558 970.604 533.373Z" fill="white" fill-opacity="0.8"/>
<path d="M971.811 535.614C971.699 535.677 971.699 535.678 971.594 535.743C968.1 537.804 795.29 639.872 784.244 646.613C773.085 653.422 771.285 660.067 771.285 668.639V819.545C771.285 828.923 781.458 834.766 789.559 830.041L977.95 720.148C985.412 715.792 990.005 707.8 990.005 699.156V546.156C990.005 536.797 979.885 530.975 971.811 535.614Z" fill="url(#paint13_linear_303_828)"/>
<path d="M971.647 535.711C971.324 535.901 795.393 639.81 784.244 646.613C773.085 653.422 771.285 660.067 771.285 668.639V675.397L990.005 549.964V546.156C990.005 536.739 979.76 530.903 971.66 535.702L971.647 535.711Z" fill="#133063"/>
<path d="M789.918 654.08C789.896 656.749 787.854 659.343 785.357 659.873C782.86 660.404 780.853 658.671 780.875 656.002C780.898 653.333 782.939 650.739 785.436 650.208C787.934 649.678 789.94 651.411 789.918 654.08Z" fill="#612F82"/>
<path d="M804 646.106C803.978 648.774 801.936 651.368 799.439 651.899C796.942 652.43 794.935 650.696 794.957 648.028C794.979 645.359 797.021 642.765 799.518 642.234C802.016 641.704 804.022 643.437 804 646.106Z" fill="#FD9B4D"/>
<path d="M817.289 638.543C817.267 641.211 815.224 643.804 812.728 644.336C810.231 644.867 808.224 643.133 808.246 640.465C808.268 637.796 810.31 635.202 812.807 634.671C815.304 634.14 817.31 635.874 817.289 638.543Z" fill="#B4B3EE"/>
<path fill-rule="evenodd" clip-rule="evenodd" d="M967.289 602.715C968.447 604.729 967.75 607.297 965.736 608.451L796.391 705.52C794.377 706.674 791.809 705.977 790.655 703.964C789.501 701.95 790.197 699.383 792.211 698.228L961.558 601.16C963.571 600.006 966.137 600.702 967.289 602.715ZM967.296 638.023C968.447 640.04 967.743 642.606 965.723 643.754L799.742 738.302C797.726 739.451 795.16 738.747 794.011 736.731C792.862 734.714 793.566 732.148 795.583 730.999L961.564 636.451C963.584 635.303 966.151 636.007 967.296 638.023ZM967.276 673.706C968.447 675.711 967.769 678.284 965.762 679.452L802.719 774.42C800.714 775.588 798.141 774.909 796.973 772.904C795.805 770.899 796.483 768.326 798.489 767.158L961.531 672.19C963.538 671.021 966.111 671.701 967.276 673.706Z" fill="url(#paint14_linear_303_828)"/>
<path d="M1233.39 489.112L1042.59 601.815C1035.22 606.195 1030.71 614.133 1030.71 622.705V775.292C1030.71 784.67 1042.08 791.558 1050.18 786.832L1240.73 675.895C1248.2 671.539 1252.79 663.546 1252.79 654.903V501.903C1252.79 492.48 1241.49 484.297 1233.39 489.112Z" fill="#B4B3EE"/>
<path d="M1233.39 489.112L1042.59 601.815C1035.22 606.195 1030.71 614.133 1030.71 622.705V775.292C1030.71 784.67 1042.08 791.558 1050.18 786.832L1240.73 675.895C1248.2 671.539 1252.79 663.546 1252.79 654.903V501.903C1252.79 492.48 1241.49 484.297 1233.39 489.112Z" fill="white" fill-opacity="0.8"/>
<path d="M1234.42 491.441C1234.42 491.441 1234.42 491.445 1234.41 491.451C1234.09 491.64 1058.16 595.549 1047.01 602.352C1035.85 609.161 1034.05 615.806 1034.05 624.378V775.284C1034.05 784.663 1044.23 790.506 1052.33 785.78L1240.71 675.887C1248.18 671.531 1252.77 663.539 1252.77 654.895V501.895C1252.77 492.478 1242.52 486.643 1234.42 491.441Z" fill="url(#paint15_linear_303_828)"/>
<path d="M1234.41 491.451C1234.09 491.64 1058.16 595.549 1047.01 602.352C1035.85 609.161 1034.05 615.806 1034.05 624.378V631.137L1252.77 505.703V501.895C1252.77 492.478 1242.52 486.643 1234.42 491.441L1234.41 491.451Z" fill="black" fill-opacity="0.5"/>
<path d="M1052.96 611.374C1052.94 614.043 1050.9 616.636 1048.4 617.167C1045.9 617.698 1043.9 615.965 1043.92 613.296C1043.94 610.628 1045.98 608.034 1048.48 607.503C1050.98 606.972 1052.98 608.706 1052.96 611.374Z" fill="#612F82"/>
<path d="M1067.05 603.387C1067.03 606.056 1064.99 608.65 1062.49 609.18C1060 609.711 1057.99 607.978 1058.01 605.309C1058.03 602.64 1060.07 600.046 1062.57 599.515C1065.07 598.985 1067.08 600.718 1067.05 603.387Z" fill="#FD9B4D"/>
<path d="M1080.33 595.824C1080.31 598.493 1078.27 601.086 1075.77 601.617C1073.27 602.148 1071.27 600.415 1071.29 597.746C1071.31 595.077 1073.35 592.483 1075.85 591.952C1078.35 591.422 1080.35 593.155 1080.33 595.824Z" fill="#B4B3EE"/>
<path d="M1184.9 610.157V583.965C1184.9 581.053 1186.47 576.686 1189.01 575.256L1216.37 560.791C1219.06 559.276 1222.38 562.9 1222.38 565.986V594.337C1222.38 597.443 1220.6 600.272 1217.8 601.613L1191 614.396C1188.32 615.678 1184.9 613.126 1184.9 610.157Z" fill="url(#paint16_linear_303_828)"/>
<path d="M1184.9 610.157V583.965C1184.9 581.053 1186.47 576.686 1189.01 575.256L1216.37 560.791C1219.06 559.276 1222.38 562.9 1222.38 565.986V594.337C1222.38 597.443 1220.6 600.272 1217.8 601.613L1191 614.396C1188.32 615.678 1184.9 613.126 1184.9 610.157Z" fill="black" fill-opacity="0.5"/>
<path d="M1186.21 610.137V583.348C1186.21 580.436 1187.72 577.424 1190.26 575.994L1216.37 562.13C1219.05 560.615 1222.38 562.894 1222.38 565.98V594.332C1222.38 597.437 1220.6 600.266 1217.79 601.608L1192.36 613.789C1189.68 615.072 1186.21 613.105 1186.21 610.137Z" fill="url(#paint17_linear_303_828)"/>
<path d="M1062.48 736.231V710.039C1062.48 707.127 1064.04 702.759 1066.58 701.33L1093.94 686.864C1096.63 685.349 1099.96 688.973 1099.96 692.06V720.411C1099.96 723.517 1098.17 726.346 1095.37 727.687L1068.57 740.469C1065.89 741.752 1062.48 739.199 1062.48 736.231Z" fill="url(#paint18_linear_303_828)"/>
<path d="M1062.48 736.231V710.039C1062.48 707.127 1064.04 702.759 1066.58 701.33L1093.94 686.864C1096.63 685.349 1099.96 688.973 1099.96 692.06V720.411C1099.96 723.517 1098.17 726.346 1095.37 727.687L1068.57 740.469C1065.89 741.752 1062.48 739.199 1062.48 736.231Z" fill="black" fill-opacity="0.5"/>
<path d="M1063.79 736.211V709.422C1063.79 706.509 1065.29 703.498 1067.83 702.069L1093.93 688.204C1096.63 686.689 1099.95 688.968 1099.95 692.054V720.406C1099.95 723.511 1098.17 726.34 1095.37 727.681L1069.93 739.863C1067.25 741.145 1063.79 739.179 1063.79 736.211Z" fill="url(#paint19_linear_303_828)"/>
<path d="M1060.55 676.748V650.556C1060.55 647.643 1062.12 643.276 1064.66 641.846L1092.02 627.381C1094.7 625.866 1098.03 629.49 1098.03 632.576V660.928C1098.03 664.033 1096.25 666.862 1093.44 668.204L1066.64 680.986C1063.97 682.268 1060.55 679.716 1060.55 676.748Z" fill="url(#paint20_linear_303_828)"/>
<path d="M1060.55 676.748V650.556C1060.55 647.643 1062.12 643.276 1064.66 641.846L1092.02 627.381C1094.7 625.866 1098.03 629.49 1098.03 632.576V660.928C1098.03 664.033 1096.25 666.862 1093.44 668.204L1066.64 680.986C1063.97 682.268 1060.55 679.716 1060.55 676.748Z" fill="black" fill-opacity="0.5"/>
<path d="M1061.84 676.727V649.938C1061.84 647.026 1063.34 644.014 1065.88 642.585L1091.99 628.721C1094.68 627.206 1098 629.484 1098 632.57V660.922C1098 664.027 1096.22 666.857 1093.42 668.198L1067.98 680.38C1065.3 681.662 1061.84 679.696 1061.84 676.727Z" fill="url(#paint21_linear_303_828)"/>
<path d="M1124.68 702.946V676.754C1124.68 673.841 1126.25 669.474 1128.79 668.045L1156.15 653.578C1158.83 652.064 1162.16 655.687 1162.16 658.774V687.126C1162.16 690.231 1160.38 693.06 1157.57 694.401L1130.77 707.184C1128.09 708.466 1124.68 705.914 1124.68 702.946Z" fill="url(#paint22_linear_303_828)"/>
<path d="M1124.68 702.946V676.754C1124.68 673.841 1126.25 669.474 1128.79 668.045L1156.15 653.578C1158.83 652.064 1162.16 655.687 1162.16 658.774V687.126C1162.16 690.231 1160.38 693.06 1157.57 694.401L1130.77 707.184C1128.09 708.466 1124.68 705.914 1124.68 702.946Z" fill="black" fill-opacity="0.5"/>
<path d="M1125.99 702.925V676.137C1125.99 673.224 1127.5 670.212 1130.03 668.783L1156.14 654.918C1158.83 653.403 1162.15 655.682 1162.15 658.768V687.12C1162.15 690.225 1160.38 693.054 1157.57 694.395L1132.13 706.578C1129.46 707.86 1125.99 705.893 1125.99 702.925Z" fill="url(#paint23_linear_303_828)"/>
<path d="M1122.72 643.456V617.264C1122.72 614.351 1124.3 609.984 1126.83 608.555L1154.19 594.089C1156.88 592.574 1160.2 596.198 1160.2 599.284V627.636C1160.2 630.741 1158.42 633.571 1155.62 634.912L1128.82 647.694C1126.14 648.976 1122.72 646.424 1122.72 643.456Z" fill="url(#paint24_linear_303_828)"/>
<path d="M1122.72 643.456V617.264C1122.72 614.351 1124.3 609.984 1126.83 608.555L1154.19 594.089C1156.88 592.574 1160.2 596.198 1160.2 599.284V627.636C1160.2 630.741 1158.42 633.571 1155.62 634.912L1128.82 647.694C1126.14 648.976 1122.72 646.424 1122.72 643.456Z" fill="black" fill-opacity="0.5"/>
<path d="M1124.04 643.435V616.646C1124.04 613.734 1125.54 610.722 1128.08 609.293L1154.18 595.428C1156.88 593.914 1160.21 596.192 1160.21 599.278V627.63C1160.21 630.735 1158.42 633.565 1155.62 634.906L1130.18 647.088C1127.5 648.37 1124.04 646.404 1124.04 643.435Z" fill="url(#paint25_linear_303_828)"/>
<path d="M1186.86 669.653V643.462C1186.86 640.549 1188.43 636.182 1190.96 634.752L1218.32 620.287C1221.01 618.772 1224.34 622.396 1224.34 625.482V653.834C1224.34 656.939 1222.55 659.768 1219.75 661.109L1192.95 673.892C1190.27 675.174 1186.86 672.622 1186.86 669.653Z" fill="url(#paint26_linear_303_828)"/>
<path d="M1186.86 669.653V643.462C1186.86 640.549 1188.43 636.182 1190.96 634.752L1218.32 620.287C1221.01 618.772 1224.34 622.396 1224.34 625.482V653.834C1224.34 656.939 1222.55 659.768 1219.75 661.109L1192.95 673.892C1190.27 675.174 1186.86 672.622 1186.86 669.653Z" fill="black" fill-opacity="0.5"/>
<path d="M1188.17 669.633V642.844C1188.17 639.932 1189.67 636.921 1192.21 635.491L1218.32 621.626C1221.01 620.111 1224.34 622.39 1224.34 625.476V653.828C1224.34 656.933 1222.56 659.762 1219.75 661.104L1194.31 673.286C1191.64 674.568 1188.17 672.601 1188.17 669.633Z" fill="url(#paint27_linear_303_828)"/>
<path d="M1235.69 867.205C1236.73 851.663 1227.81 836.554 1226.56 823.675C1226.37 821.682 1224.69 820.058 1222.69 820.206L1193.73 822.359C1191.87 822.497 1190.49 824.114 1190.64 825.969C1192 842.168 1194.27 861.487 1194.27 873.785V925.932C1194.27 942.987 1205.96 973.453 1207.18 980.763C1208.4 988.073 1211.11 994.634 1214.25 1000.26C1217.39 1005.88 1221.44 1029.61 1222.54 1039.25C1223.75 1049.97 1224 1078.73 1223.75 1080.43C1223.51 1082.13 1219.61 1088.47 1214.25 1090.66C1208.89 1092.86 1193.78 1094.56 1189.88 1095.29C1185.98 1096.02 1182.08 1098.46 1184.27 1104.07C1186.46 1109.67 1204.99 1108.21 1215.47 1107.24C1225.94 1106.26 1227.41 1108.7 1238.37 1108.7C1249.34 1108.7 1250.8 1105.04 1250.8 1100.41C1250.8 1098.1 1251.01 1095.18 1249.95 1090.66C1248.97 1086.52 1246.17 1080.11 1246.17 1075.8C1246.17 1066.78 1248.12 1048.75 1248.12 1023.89C1248.12 1010.23 1242.55 994.357 1238.37 980.763C1236.89 975.933 1232.91 967.603 1232.91 963.445C1232.91 961.201 1233.2 952.114 1232.91 947.863C1232.33 939.421 1232.26 940.368 1232.91 927.393C1233.45 916.615 1232.47 905.337 1232.91 896.447C1233.26 889.262 1235.1 876.029 1235.69 867.205Z" fill="#E9B1B4"/>
<path d="M1172.53 820.936C1177.48 821.36 1187.33 822.119 1194.53 822.119C1201.32 822.119 1208.9 821.443 1213.06 821.011C1214.84 820.826 1216.46 822.033 1216.84 823.777C1219.56 836.449 1224.02 846.189 1224.02 866.712C1224.02 888.886 1213.05 889.617 1211.59 899.855C1210.13 910.087 1211.59 930.071 1211.59 941.283C1211.59 952.489 1209.64 978.21 1209.64 982.954C1209.64 988.31 1209.64 997.818 1211.59 1003.91C1215.38 1015.75 1217.92 1031.45 1216.46 1045.33C1215.34 1056 1209.64 1093.1 1209.64 1097.73C1209.64 1105.77 1215 1120.39 1211.59 1123.81C1208.18 1127.21 1193.6 1127.36 1185.02 1128.92C1174.3 1130.87 1157.49 1133.31 1150.42 1131.85C1145.81 1130.89 1135.55 1131.6 1135.55 1126.48C1135.55 1121.36 1142.5 1122.34 1151.27 1121.12C1160.05 1119.9 1168.57 1113.21 1172.72 1109.79C1176.86 1106.38 1183.81 1099.56 1186 1093.95C1188.19 1088.35 1187.95 1067.27 1187.46 1049.72C1186.98 1032.18 1184.29 1021.03 1182.83 1010.49C1181.37 999.944 1178.69 993.916 1176.25 988.554C1173.48 982.467 1173.57 971.255 1169.92 952.002C1165.86 930.623 1161.63 912.528 1161.63 896.197C1161.63 885.557 1160.17 863.79 1161.63 853.308C1162.99 843.556 1166.26 836.97 1168.86 823.722C1169.2 821.998 1170.78 820.785 1172.53 820.936Z" fill="#F8BCBF"/>
<path d="M1248.24 1082.06C1249.28 1085.11 1250.78 1089.85 1251.54 1093.71C1252.76 1099.92 1252.39 1103.09 1251.54 1107.6C1251.23 1109.26 1251.51 1109.97 1250.8 1113.05C1250.74 1113.32 1250.71 1113.59 1250.7 1113.86C1250.68 1114.96 1250.57 1115.74 1250.44 1116.27C1250.25 1117.02 1249.54 1117.34 1248.76 1117.34H1232.75C1232.13 1117.34 1231.53 1117.18 1230.98 1116.89C1229.29 1116.01 1225.17 1114.09 1219.99 1113.45C1213.17 1112.59 1203.78 1114.67 1191.6 1114.18C1179.41 1113.69 1179.26 1109.34 1177.58 1105.46C1177.02 1104.14 1176.96 1102.8 1177.58 1101.63C1180.02 1097 1186.73 1098.12 1195.62 1095.66C1202.77 1093.68 1211.34 1091.76 1215.97 1088.96C1218.68 1087.31 1220.72 1084.17 1221.95 1081.85C1222.78 1080.27 1224.61 1079.35 1226.37 1079.66C1226.46 1079.68 1226.56 1079.69 1226.67 1079.71C1228.78 1080.08 1231.79 1080.43 1235.46 1080.43C1239.1 1080.43 1241.98 1080.08 1243.97 1079.72C1245.76 1079.4 1247.66 1080.33 1248.24 1082.06Z" fill="#B4B3EE"/>
<path d="M1248.26 1082.05C1249.29 1085.1 1250.8 1089.85 1251.55 1093.7C1252.78 1099.92 1252.41 1103.09 1251.55 1107.59C1251.24 1109.25 1251.53 1109.97 1250.82 1113.05C1250.76 1113.31 1250.72 1113.58 1250.72 1113.85C1250.7 1114.96 1250.59 1115.73 1250.45 1116.26C1250.27 1117.01 1249.55 1117.34 1248.78 1117.34H1232.76C1232.15 1117.34 1231.54 1117.17 1231 1116.88C1229.31 1116 1225.18 1114.09 1220 1113.44C1213.18 1112.59 1203.8 1114.66 1191.61 1114.17C1187.62 1114.01 1184.91 1113.44 1183.02 1112.6C1180.15 1111.32 1182.94 1108.45 1186.06 1108.88C1187.95 1109.13 1190.29 1109.3 1193.2 1109.3C1194.25 1107.63 1193.2 1104.06 1197.22 1100.16C1200.25 1097.22 1208.79 1096.63 1214.4 1093.7C1219.36 1091.11 1222.51 1087.37 1225.52 1081.9C1226.23 1080.61 1227.67 1079.88 1229.14 1080.06C1230.91 1080.27 1233.05 1080.42 1235.47 1080.42C1239.11 1080.42 1241.99 1080.07 1243.99 1079.71C1245.78 1079.39 1247.67 1080.33 1248.26 1082.05Z" fill="black" fill-opacity="0.2"/>
<path d="M1232.76 1117.34H1248.78C1249.55 1117.34 1250.27 1117.01 1250.45 1116.26C1250.59 1115.73 1250.7 1114.94 1250.72 1113.81C1250.72 1113.57 1250.81 1113.08 1250.86 1112.84C1251.39 1110.51 1248.56 1108.63 1246.2 1108.99C1240.19 1109.92 1231.94 1109.6 1221.58 1108.32C1207.7 1106.62 1200.63 1109.3 1193.2 1109.3C1190.29 1109.3 1187.95 1109.14 1186.06 1108.88C1182.94 1108.45 1180.15 1111.32 1183.02 1112.6C1184.91 1113.44 1187.62 1114.01 1191.61 1114.17C1203.8 1114.66 1213.18 1112.59 1220 1113.44C1225.18 1114.09 1229.31 1116 1231 1116.88C1231.54 1117.17 1232.15 1117.34 1232.76 1117.34Z" fill="black" fill-opacity="0.5"/>
<path d="M1242.91 865.784C1242.91 848.4 1233.81 835.784 1229.35 822.571C1228.84 821.067 1227.4 820.051 1225.82 820.16L1193.75 822.371C1191.89 822.499 1190.48 824.12 1190.64 825.981C1192 842.177 1194.27 861.487 1194.27 873.779V925.925C1194.27 942.987 1205.97 973.446 1207.18 980.757C1208.4 988.067 1211.45 993.917 1213.76 1001.59C1216.08 1009.27 1218.28 1029.6 1219.37 1039.24C1220.59 1049.97 1218.76 1063.24 1217.78 1074.46C1217.36 1079.43 1216.57 1085.42 1216.45 1087.62C1216.32 1089.81 1223.8 1089.42 1231.8 1091.75C1239.79 1094.1 1251.41 1091.75 1251.78 1089.93C1252.14 1088.1 1251.78 1077.43 1251.78 1073.11C1251.78 1064.1 1249.95 1048.26 1249.95 1023.4C1249.95 1009.73 1244.02 994.351 1239.84 980.757C1238.36 975.927 1234.23 969.077 1234.23 964.918C1234.23 962.675 1234.52 954.108 1234.23 949.857C1234.23 943.329 1235.44 941.138 1236.09 928.169C1236.63 917.391 1235.65 907.33 1236.09 898.441C1236.44 891.255 1242.91 884.307 1242.91 865.784Z" fill="url(#paint28_linear_303_828)"/>
<path d="M1242.91 865.784C1242.91 848.4 1233.81 835.784 1229.35 822.571C1228.84 821.067 1227.4 820.051 1225.82 820.16L1193.75 822.371C1191.89 822.499 1190.48 824.12 1190.64 825.981C1192 842.177 1194.27 861.487 1194.27 873.779V925.925C1194.27 942.987 1205.97 973.446 1207.18 980.757C1208.4 988.067 1211.45 993.917 1213.76 1001.59C1216.08 1009.27 1218.28 1029.6 1219.37 1039.24C1220.59 1049.97 1218.76 1063.24 1217.78 1074.46C1217.36 1079.43 1216.57 1085.42 1216.45 1087.62C1216.32 1089.81 1223.8 1089.42 1231.8 1091.75C1239.79 1094.1 1251.41 1091.75 1251.78 1089.93C1252.14 1088.1 1251.78 1077.43 1251.78 1073.11C1251.78 1064.1 1249.95 1048.26 1249.95 1023.4C1249.95 1009.73 1244.02 994.351 1239.84 980.757C1238.36 975.927 1234.23 969.077 1234.23 964.918C1234.23 962.675 1234.52 954.108 1234.23 949.857C1234.23 943.329 1235.44 941.138 1236.09 928.169C1236.63 917.391 1235.65 907.33 1236.09 898.441C1236.44 891.255 1242.91 884.307 1242.91 865.784Z" fill="#030164" fill-opacity="0.6"/>
<path d="M1210.5 1091.27C1212.2 1088.37 1210.25 1099.8 1211.71 1103.45C1213.17 1107.11 1214.74 1111.49 1215.36 1115.15C1216 1118.8 1216.34 1125.14 1216.34 1125.14C1216.34 1126.12 1216.65 1128.79 1216.34 1132.58C1216.03 1136.35 1210.98 1138.18 1205.98 1138.18C1197.45 1138.18 1191.6 1136.64 1182.35 1137.33C1173.09 1138.02 1167.85 1139.52 1156.27 1139.52C1149.69 1139.52 1143.31 1139.76 1139.34 1137.33C1135.36 1134.89 1134.46 1133.43 1133.36 1130.75C1132.27 1128.06 1133.36 1123.44 1133.36 1123.44C1134.95 1122.58 1140.8 1122.58 1147.87 1120.51C1154.93 1118.44 1163.8 1115.84 1169.55 1110.4C1175.31 1104.96 1179.29 1102.76 1182.35 1097.36C1183.6 1095.15 1184.37 1093.62 1184.95 1092.14C1185.58 1090.51 1187.2 1089.43 1188.93 1089.72L1189.35 1089.79C1193.59 1090.5 1198.56 1091.27 1199.16 1091.27C1199.94 1091.27 1208.79 1094.16 1210.5 1091.27Z" fill="#B4B3EE"/>
<path d="M1210.49 1091.27C1212.2 1088.37 1210.25 1099.8 1211.71 1103.45C1213.18 1107.11 1214.74 1111.49 1215.37 1115.15C1215.99 1118.8 1216.34 1125.14 1216.34 1125.14C1216.34 1126.12 1216.66 1128.79 1216.34 1132.57C1216.03 1136.35 1210.98 1138.18 1205.99 1138.18C1197.46 1138.18 1191.61 1136.64 1182.35 1137.32C1173.09 1138.01 1167.85 1139.52 1156.27 1139.52C1149.69 1139.52 1143.31 1139.76 1139.34 1137.32C1135.36 1134.89 1134.46 1133.43 1133.37 1130.75C1133.26 1130.49 1136.28 1129.49 1136.51 1129.64C1137.07 1130.02 1137.73 1130.39 1138.48 1130.75C1143.73 1133.18 1145.79 1133.3 1152.13 1133.3C1152.13 1133.3 1151.64 1129.52 1155.18 1124.41C1158.71 1119.29 1168.88 1118.27 1176.01 1112.34C1180.19 1108.88 1184.96 1101.8 1188.4 1092.52C1188.98 1090.96 1190.57 1089.99 1192.21 1090.26C1195.57 1090.8 1198.7 1091.27 1199.16 1091.27C1199.95 1091.27 1208.79 1094.16 1210.49 1091.27Z" fill="black" fill-opacity="0.2"/>
<path d="M1200.87 1130.74C1207.41 1130.17 1209.09 1127.61 1212.67 1126.1C1214.53 1125.31 1216.47 1126.92 1216.48 1128.95C1216.49 1130 1216.46 1131.21 1216.34 1132.57C1216.03 1136.35 1210.98 1138.17 1205.99 1138.17C1197.46 1138.17 1191.61 1136.63 1182.35 1137.32C1173.09 1138.01 1167.85 1139.51 1156.27 1139.51C1149.69 1139.51 1143.31 1139.76 1139.34 1137.32C1135.36 1134.89 1134.46 1133.42 1133.37 1130.74C1133.26 1130.49 1136.28 1129.48 1136.51 1129.64C1137.07 1130.02 1137.73 1130.39 1138.48 1130.74C1143.73 1133.18 1145.79 1133.3 1152.13 1133.3C1157.13 1133.3 1165.66 1132.2 1173.57 1131.71C1182.11 1131.19 1195.45 1131.21 1200.87 1130.74Z" fill="black" fill-opacity="0.5"/>
<path d="M1172.16 820.904C1176.97 821.32 1187.15 822.119 1194.53 822.119C1201.32 822.119 1208.9 821.443 1213.06 821.011C1214.84 820.826 1216.46 822.034 1216.84 823.778C1219.56 836.45 1224.02 846.189 1224.02 866.712C1224.02 888.887 1213.05 889.617 1211.59 899.855C1210.13 910.087 1211.59 930.071 1211.59 941.283C1211.59 952.489 1209.64 978.21 1209.64 982.954C1209.64 988.31 1209.64 997.818 1211.59 1003.91C1215.38 1015.75 1217.92 1031.45 1216.46 1045.34C1215.36 1055.86 1216.2 1088.57 1216.22 1093.88C1216.22 1094.02 1216.22 1094.14 1216.24 1094.28C1216.46 1095.97 1217.8 1107.42 1216.22 1109.79C1214.51 1112.35 1202.33 1109.79 1194.53 1109.79C1188.28 1109.79 1179.03 1108.63 1174.37 1107.4C1172.86 1107.01 1172.19 1105.44 1172.47 1103.9C1174.45 1092.91 1176.25 1059.48 1176.25 1049.96C1176.25 1039.49 1177.71 1020.55 1176.25 1010C1174.79 999.457 1171.87 986.119 1171.87 978.565C1171.87 971.012 1170.41 965.892 1166.75 946.646C1162.69 925.261 1159.93 908.87 1159.93 892.545C1159.93 880.115 1158.47 862.086 1159.93 851.604C1161.3 841.757 1164.4 836.429 1168.61 823.279C1169.1 821.757 1170.57 820.766 1172.16 820.904Z" fill="url(#paint29_linear_303_828)"/>
<path d="M1172.16 820.904C1176.97 821.32 1187.15 822.119 1194.53 822.119C1201.32 822.119 1208.9 821.443 1213.06 821.011C1214.84 820.826 1216.46 822.034 1216.84 823.778C1219.56 836.45 1224.02 846.189 1224.02 866.712C1224.02 888.887 1213.05 889.617 1211.59 899.855C1210.13 910.087 1211.59 930.071 1211.59 941.283C1211.59 952.489 1209.64 978.21 1209.64 982.954C1209.64 988.31 1209.64 997.818 1211.59 1003.91C1215.38 1015.75 1217.92 1031.45 1216.46 1045.34C1215.36 1055.86 1216.2 1088.57 1216.22 1093.88C1216.22 1094.02 1216.22 1094.14 1216.24 1094.28C1216.46 1095.97 1217.8 1107.42 1216.22 1109.79C1214.51 1112.35 1202.33 1109.79 1194.53 1109.79C1188.28 1109.79 1179.03 1108.63 1174.37 1107.4C1172.86 1107.01 1172.19 1105.44 1172.47 1103.9C1174.45 1092.91 1176.25 1059.48 1176.25 1049.96C1176.25 1039.49 1177.71 1020.55 1176.25 1010C1174.79 999.457 1171.87 986.119 1171.87 978.565C1171.87 971.012 1170.41 965.892 1166.75 946.646C1162.69 925.261 1159.93 908.87 1159.93 892.545C1159.93 880.115 1158.47 862.086 1159.93 851.604C1161.3 841.757 1164.4 836.429 1168.61 823.279C1169.1 821.757 1170.57 820.766 1172.16 820.904Z" fill="#030164" fill-opacity="0.4"/>
<path d="M1259.38 740.188C1259.39 739.421 1259.72 711.177 1252.44 709.001C1245.05 706.796 1243.94 716.168 1242.4 721.24C1240.9 726.161 1239.98 734.471 1239.98 737.558C1239.98 739.088 1237.77 749.246 1237.77 763.8C1237.77 773.887 1240.42 778.558 1240.02 784.682C1240 785.019 1239.92 785.34 1239.79 785.653C1238.82 788.027 1234.39 799.047 1232.04 807.462C1230.03 814.675 1226.74 828.013 1225.28 833.984C1224.86 835.695 1225.84 837.428 1227.51 837.966L1233.55 839.901C1235.1 840.398 1236.78 839.718 1237.52 838.267C1239.71 833.956 1244.29 824.677 1247.91 815.4C1252.66 803.264 1256.06 795.331 1257.84 786.733C1259.6 778.225 1259.39 740.988 1259.38 740.217C1259.38 740.192 1259.38 740.213 1259.38 740.188Z" fill="#CEA588"/>
<path d="M1260.92 740.003C1260.89 738.286 1260.25 711.131 1253.1 708.995C1245.71 706.79 1243.39 715.941 1241.84 721.013C1240.35 725.934 1239.2 734.465 1239.2 737.552C1239.2 738.758 1237.84 753.861 1238.02 755.189C1238.21 756.517 1242.84 756.958 1247.25 756.958C1251.66 756.958 1258.5 757.068 1260.15 755.189C1261.73 753.394 1260.99 741.249 1260.93 740.166C1260.92 740.108 1260.92 740.06 1260.92 740.003Z" fill="url(#paint30_linear_303_828)"/>
<path d="M1260.92 740.003C1260.89 738.286 1260.25 711.131 1253.1 708.995C1245.71 706.79 1243.39 715.941 1241.84 721.013C1240.35 725.934 1239.2 734.465 1239.2 737.552C1239.2 738.758 1237.84 753.861 1238.02 755.189C1238.21 756.517 1242.84 756.958 1247.25 756.958C1251.66 756.958 1258.5 757.068 1260.15 755.189C1261.73 753.394 1260.99 741.249 1260.93 740.166C1260.92 740.108 1260.92 740.06 1260.92 740.003Z" fill="black" fill-opacity="0.2"/>
<path d="M1218.13 676.366C1218.03 673.309 1218.32 671.135 1219.26 667.036C1219.66 665.282 1218.65 663.48 1216.86 663.248C1204.85 661.682 1192.18 670.328 1185.56 675.751C1183.5 677.447 1184.42 680.892 1186.39 682.692C1186.59 682.869 1186.79 683.057 1186.98 683.257C1189.25 685.517 1188.85 689.374 1188.58 690.369C1187.48 694.501 1182.9 696.186 1176.07 698.391C1174.88 698.776 1173.66 699.127 1172.51 699.44C1169.64 700.212 1167.72 705.224 1168.24 708.138C1168.36 708.809 1168.46 709.537 1168.52 710.325C1169.61 725.095 1164.82 737.701 1162.76 741.883C1162.43 742.562 1162.26 743.32 1162.36 744.071C1162.7 746.881 1163.64 754.826 1164.83 768.101C1165.94 780.498 1168.52 788.78 1169.58 798.527C1170.31 805.184 1170.05 812.728 1169.8 816.842C1169.7 818.587 1170.91 820.15 1172.63 820.402C1177.59 821.124 1187.96 822.408 1199.05 822.408C1212.59 822.408 1217.41 820.497 1224.94 820.026C1226.79 819.91 1228.3 818.415 1228.29 816.559C1228.23 806.787 1227.98 802.946 1229.52 793.166C1231.21 782.337 1233.35 776.04 1236.21 768.101C1239.08 760.162 1244.54 743.013 1248.28 731.757C1250.93 723.753 1252.44 715.67 1252.66 710.325C1252.88 704.981 1242.61 704.011 1236.21 701.201C1229.82 698.391 1220.67 696.543 1218.8 687.722C1218.06 684.635 1218.31 681.586 1218.13 676.366Z" fill="#CBA388"/>
<path d="M1255.4 713.52C1255.4 707.125 1242.84 703.32 1236.44 700.51C1231.8 698.471 1222.77 693.57 1221.78 693.57C1220.79 693.57 1216.92 696.43 1206.34 696.43C1195.76 696.43 1187.71 693.57 1186.16 693.57C1184.62 693.57 1180.53 696.116 1175.8 697.643C1170.33 699.408 1164.77 699.958 1164.83 701.199C1164.89 702.438 1168.01 703.506 1168.52 710.323C1169.67 725.785 1163.89 739.217 1161.97 742.789C1161.78 743.128 1161.64 743.482 1161.59 743.863C1161.28 745.972 1160.35 753.924 1161.68 768.154C1162.85 780.547 1163.22 781.926 1164.25 790.573C1165.47 800.808 1171.4 813.359 1166.93 825.42C1162.45 837.481 1156.7 858.276 1159.13 863.679C1161.56 869.081 1183.04 867.765 1204.21 867.58C1225.39 867.39 1244.66 865.139 1244.66 862.218C1244.66 859.29 1245.21 851.499 1242.96 842.722C1241.02 835.167 1240.89 833.212 1239.06 825.42C1237.74 815.497 1234.49 808.371 1236.44 795.934C1238.39 783.497 1241.8 772.437 1244.66 764.499C1247.53 756.56 1249.68 744.182 1253.42 732.926C1256.07 724.921 1255.4 719.915 1255.4 713.52Z" fill="url(#paint31_linear_303_828)"/>
<path d="M1206.34 696.43C1216.93 696.43 1220.78 693.57 1221.78 693.57C1222.01 693.57 1222.67 693.834 1223.61 694.265C1225.92 695.32 1226.15 698.52 1223.85 699.596C1220.17 701.324 1214.53 702.936 1205.46 702.936C1196.28 702.936 1189.9 701.689 1184.92 700.066C1182.08 699.141 1182.04 694.902 1184.85 693.882C1185.39 693.686 1185.83 693.57 1186.16 693.57C1187.71 693.57 1195.75 696.43 1206.34 696.43Z" fill="url(#paint32_linear_303_828)"/>
<path d="M1120.02 715.723C1124.78 716.429 1159.05 701.389 1164.34 701.389C1169.63 701.389 1169.85 712.195 1169.85 718.369C1169.85 728.255 1167.09 735.355 1164.64 739.556C1163.45 741.597 1160.27 741.148 1157.91 741.343C1157.36 741.389 1156.71 741.483 1155.96 741.634C1147.33 743.36 1136.16 743.067 1131.48 743.067C1123.99 743.067 1110.75 738.216 1105.02 734.688C1101.94 732.79 1095.87 720.134 1094.11 713.959C1091.84 706.02 1089.36 698.192 1088.59 695.325C1087.82 692.458 1085.73 685.072 1081.43 682.205C1077.13 679.338 1072.99 673.411 1072.36 672.419C1071.72 671.427 1070.41 669.353 1071.39 667.816C1071.95 666.939 1072.76 665.044 1073.04 664.043C1073.16 663.612 1073.4 663.179 1073.82 662.799C1074.44 662.229 1076.92 660.012 1077.64 659.56C1077.66 659.547 1077.68 659.533 1077.71 659.519C1078.1 659.283 1079.16 657.123 1078.86 656.768C1078.12 655.872 1077.41 655.056 1076.85 654.64C1075.58 653.703 1074.34 652.711 1072.83 651.553C1071.31 650.395 1071.06 648.907 1071.72 648.024C1072.23 647.346 1073.69 647.712 1074.33 647.916C1074.54 647.984 1074.74 648.085 1074.92 648.204L1080.04 651.476C1080.12 651.527 1080.2 651.581 1080.27 651.639C1080.93 652.147 1084.31 654.766 1085.45 655.908C1086.72 657.176 1092.28 662.969 1093.34 665.446C1094.39 667.922 1094.55 674.652 1095.54 676.692C1096.53 678.732 1105.11 693.628 1107.23 696.98C1109.81 701.059 1115.25 715.017 1120.02 715.723Z" fill="#D4AA8D"/>
<path d="M1170.13 718.588C1170.13 729.807 1166.57 737.437 1163.94 741.316C1162.96 742.763 1161.19 742.339 1159.46 742.14C1158.65 742.048 1157.5 742.141 1155.63 742.514C1147 744.24 1134.57 745.822 1131.7 743.727C1128.83 741.632 1130.82 715.501 1132.66 712.242C1134.5 708.983 1160.81 700.285 1165 700.285C1169.19 700.285 1170.13 712.414 1170.13 718.588Z" fill="url(#paint33_linear_303_828)"/>
<path d="M1170.13 718.588C1170.13 729.807 1166.57 737.437 1163.94 741.316C1162.96 742.763 1161.19 742.339 1159.46 742.14C1158.65 742.048 1157.5 742.141 1155.63 742.514C1147 744.24 1134.57 745.822 1131.7 743.727C1128.83 741.632 1130.82 715.501 1132.66 712.242C1134.5 708.983 1160.81 700.285 1165 700.285C1169.19 700.285 1170.13 712.414 1170.13 718.588Z" fill="black" fill-opacity="0.1"/>
<path d="M1199.61 619.147C1214.47 619.147 1226.52 631.192 1226.52 646.05C1226.52 651.387 1224.97 656.362 1222.28 660.545C1221.83 661.251 1221.1 661.724 1220.28 661.901L1202.82 665.659C1202.59 665.707 1202.38 665.777 1202.17 665.876C1201.18 666.347 1197.97 667.961 1194.76 670.527C1190.91 673.615 1190.3 674.938 1188.48 676.591C1184.29 679.458 1183.24 679.569 1180.99 680.01C1178.72 680.451 1174.21 681.189 1172.16 678.577C1170.11 675.963 1169.29 663.691 1169.52 659.06C1169.73 654.617 1171.39 650.308 1172.57 646.524C1172.67 646.21 1172.71 645.881 1172.71 645.552C1172.98 630.924 1184.93 619.147 1199.61 619.147Z" fill="#E1B597"/>
<path d="M1177.19 680.447C1178.62 680.437 1180.01 680.193 1180.98 680.002C1183.24 679.562 1184.29 679.451 1188.48 676.585C1190.3 674.931 1190.91 673.608 1194.76 670.521C1198.62 667.433 1201.76 666 1202.48 665.725C1203.82 665.21 1203.49 662.611 1202.08 662.904C1201.83 662.958 1201.63 663.016 1201.49 663.078C1199.78 663.85 1197.19 665.559 1194.76 667.654C1192.34 669.749 1190.14 673.277 1187.27 675.482C1184.4 677.687 1182.57 679.672 1177.46 679.672C1175.96 679.672 1175.69 680.456 1177.19 680.447Z" fill="black" fill-opacity="0.03"/>
<path d="M1195.47 650.672C1191.06 650.672 1191.34 653.759 1191.34 656.075C1191.34 658.39 1190.02 657.508 1190.02 659.383C1190.02 661.257 1190.83 661.599 1190.46 664.013C1190.18 665.777 1189.68 667.211 1191.34 667.762C1192.99 668.313 1193.83 665.801 1196.3 664.013C1198.28 662.58 1199.97 660.799 1200.33 657.177C1200.68 653.555 1198.45 650.672 1195.47 650.672Z" fill="#E8BEA1"/>
<path d="M1192.93 659.495C1192.57 660.238 1191.83 660.653 1191.45 661.424C1191.06 662.196 1191.07 663.01 1192.36 663.154C1193.65 663.3 1194.34 662.728 1194.64 661.866C1194.8 661.424 1194.34 660.261 1194.34 659.495C1194.34 658.306 1195.41 657.153 1195.5 655.885C1195.58 654.617 1194.89 654.502 1194.34 654.783C1193.93 654.99 1193.61 656.192 1193.49 656.581C1193.5 656.405 1193.49 656.382 1193.46 656.602C1193.44 656.755 1193.45 656.72 1193.49 656.581C1193.49 657.06 1193.34 658.666 1192.93 659.495Z" fill="black" fill-opacity="0.1"/>
<path d="M1198.9 655.305C1198.73 653.483 1196.79 652.748 1196.79 653.198C1196.79 653.647 1197.36 654.986 1197.49 655.885C1197.69 657.219 1197.17 659.008 1196.79 659.932C1196.41 660.855 1195.23 662.41 1195.51 662.728C1195.79 663.046 1196.65 662.14 1197.49 660.882C1198.34 659.624 1199.12 657.786 1198.9 655.305Z" fill="black" fill-opacity="0.1"/>
<path d="M1178.44 637.663C1177.79 636.028 1175.43 633.509 1173.7 631.268C1171.97 629.026 1171.15 627.53 1169.56 623.826C1167.58 619.195 1169.49 617.767 1171.77 617.21C1174.25 616.603 1176.56 618.478 1179.71 619.36C1184.19 620.617 1192.88 617.927 1197.96 616.052C1203.03 614.178 1213.17 616.879 1216.48 619.36C1219.79 621.84 1228.16 623.108 1228.83 631.268C1229.49 639.427 1226.4 651.776 1225.74 655.414C1225.08 659.053 1218.63 673.717 1217.97 673.938C1217.31 674.158 1212.35 673.552 1210.31 672.89C1207.57 672.005 1206.44 671.677 1204.79 670.189C1203.57 669.084 1202.36 666.992 1201.81 664.786C1201.26 662.581 1201.71 660.597 1201.38 657.73C1201.04 654.863 1200.96 652.24 1197.96 651.004C1194.44 649.557 1192.46 651.016 1190.62 652.547C1189.51 653.481 1188.56 654.996 1188 656.037C1187.63 656.705 1186.91 657.122 1186.16 657.04C1185.19 656.934 1184.49 656.056 1184.6 655.088C1184.76 653.715 1184.95 651.898 1184.95 651.004C1184.95 649.661 1185.28 648.743 1184.39 646.869C1183.51 644.995 1180.92 646.098 1179.43 644.389C1178.35 643.141 1178.88 638.766 1178.44 637.663Z" fill="#131313"/>
</g>
<defs>
<filter id="filter0_d_303_828" x="750.465" y="531.949" width="239.539" height="326.859" filterUnits="userSpaceOnUse" color-interpolation-filters="sRGB">
<feFlood flood-opacity="0" result="BackgroundImageFix"/>
<feColorMatrix in="SourceAlpha" type="matrix" values="0 0 0 0 0 0 0 0 0 0 0 0 0 0 0 0 0 0 127 0" result="hardAlpha"/>
<feOffset dx="-17.4568" dy="26.1851"/>
<feComposite in2="hardAlpha" operator="out"/>
<feColorMatrix type="matrix" values="0 0 0 0 0 0 0 0 0 0 0 0 0 0 0 0 0 0 0.25 0"/>
<feBlend mode="normal" in2="BackgroundImageFix" result="effect1_dropShadow_303_828"/>
<feBlend mode="normal" in="SourceGraphic" in2="effect1_dropShadow_303_828" result="shape"/>
</filter>
<linearGradient id="paint0_linear_303_828" x1="303.592" y1="704.281" x2="520.707" y2="1092.12" gradientUnits="userSpaceOnUse">
<stop stop-color="#31DC71"/>
<stop offset="1" stop-color="#58A55A"/>
</linearGradient>
<linearGradient id="paint1_linear_303_828" x1="933.901" y1="364.337" x2="491.034" y2="541.391" gradientUnits="userSpaceOnUse">
<stop stop-color="#5383EB"/>
<stop offset="1" stop-color="#5384EE"/>
</linearGradient>
<linearGradient id="paint2_linear_303_828" x1="933.993" y1="369.753" x2="506.264" y2="533.86" gradientUnits="userSpaceOnUse">
<stop stop-color="#5383EB"/>
<stop offset="1" stop-color="#5384EE"/>
</linearGradient>
<linearGradient id="paint3_linear_303_828" x1="801.819" y1="258.314" x2="801.819" y2="1089.47" gradientUnits="userSpaceOnUse">
<stop stop-color="#F1C051"/>
<stop offset="1" stop-color="#EEA24B"/>
</linearGradient>
<linearGradient id="paint4_linear_303_828" x1="662.678" y1="621.303" x2="897.418" y2="657.478" gradientUnits="userSpaceOnUse">
<stop stop-color="#3B84F4"/>
<stop offset="1" stop-color="#1F40CA"/>
</linearGradient>
<linearGradient id="paint5_linear_303_828" x1="703.003" y1="924.261" x2="739.122" y2="1047.02" gradientUnits="userSpaceOnUse">
<stop stop-color="#31DC71"/>
<stop offset="1" stop-color="#58A55A"/>
</linearGradient>
<linearGradient id="paint6_linear_303_828" x1="725.44" y1="988.547" x2="725.44" y2="1022.02" gradientUnits="userSpaceOnUse">
<stop stop-color="#F1C051"/>
<stop offset="1" stop-color="#EEA24B"/>
</linearGradient>
<linearGradient id="paint7_linear_303_828" x1="721.591" y1="985.724" x2="736.764" y2="1008.2" gradientUnits="userSpaceOnUse">
<stop stop-color="#31DC71"/>
<stop offset="1" stop-color="#58A55A"/>
</linearGradient>
<linearGradient id="paint8_linear_303_828" x1="637.748" y1="800.699" x2="599.735" y2="955.384" gradientUnits="userSpaceOnUse">
<stop stop-color="#D75141"/>
<stop offset="1" stop-color="#D74165"/>
</linearGradient>
<linearGradient id="paint9_linear_303_828" x1="583.005" y1="807.75" x2="583.005" y2="932.637" gradientUnits="userSpaceOnUse">
<stop stop-color="#F1C051"/>
<stop offset="1" stop-color="#EEA24B"/>
</linearGradient>
<linearGradient id="paint10_linear_303_828" x1="429.156" y1="802.477" x2="681.764" y2="853.17" gradientUnits="userSpaceOnUse">
<stop stop-color="#3B84F4"/>
<stop offset="1" stop-color="#1F40CA"/>
</linearGradient>
<linearGradient id="paint11_linear_303_828" x1="584.703" y1="649.753" x2="584.703" y2="774.637" gradientUnits="userSpaceOnUse">
<stop stop-color="#F1C051"/>
<stop offset="1" stop-color="#EEA24B"/>
</linearGradient>
<linearGradient id="paint12_linear_303_828" x1="867.854" y1="615.029" x2="1127.03" y2="645.604" gradientUnits="userSpaceOnUse">
<stop stop-color="#3B84F4"/>
<stop offset="1" stop-color="#1F40CA"/>
</linearGradient>
<linearGradient id="paint13_linear_303_828" x1="936.931" y1="565.112" x2="837.642" y2="802.621" gradientUnits="userSpaceOnUse">
<stop stop-color="#D75141"/>
<stop offset="1" stop-color="#D74165"/>
</linearGradient>
<linearGradient id="paint14_linear_303_828" x1="878.972" y1="600.602" x2="878.972" y2="774.991" gradientUnits="userSpaceOnUse">
<stop stop-color="#F1C051"/>
<stop offset="1" stop-color="#EEA24B"/>
</linearGradient>
<linearGradient id="paint15_linear_303_828" x1="1032.93" y1="584.054" x2="1143.41" y2="787.454" gradientUnits="userSpaceOnUse">
<stop stop-color="#31DC71"/>
<stop offset="1" stop-color="#58A55A"/>
</linearGradient>
<linearGradient id="paint16_linear_303_828" x1="1203.64" y1="560.435" x2="1203.64" y2="614.735" gradientUnits="userSpaceOnUse">
<stop stop-color="#F1C051"/>
<stop offset="1" stop-color="#EEA24B"/>
</linearGradient>
<linearGradient id="paint17_linear_303_828" x1="1204.3" y1="561.649" x2="1204.3" y2="614.189" gradientUnits="userSpaceOnUse">
<stop stop-color="#F1C051"/>
<stop offset="1" stop-color="#EEA24B"/>
</linearGradient>
<linearGradient id="paint18_linear_303_828" x1="1081.22" y1="686.509" x2="1081.22" y2="740.809" gradientUnits="userSpaceOnUse">
<stop stop-color="#F1C051"/>
<stop offset="1" stop-color="#EEA24B"/>
</linearGradient>
<linearGradient id="paint19_linear_303_828" x1="1081.87" y1="687.723" x2="1081.87" y2="740.262" gradientUnits="userSpaceOnUse">
<stop stop-color="#F1C051"/>
<stop offset="1" stop-color="#EEA24B"/>
</linearGradient>
<linearGradient id="paint20_linear_303_828" x1="1079.29" y1="627.025" x2="1079.29" y2="681.326" gradientUnits="userSpaceOnUse">
<stop stop-color="#F1C051"/>
<stop offset="1" stop-color="#EEA24B"/>
</linearGradient>
<linearGradient id="paint21_linear_303_828" x1="1079.92" y1="628.24" x2="1079.92" y2="680.779" gradientUnits="userSpaceOnUse">
<stop stop-color="#F1C051"/>
<stop offset="1" stop-color="#EEA24B"/>
</linearGradient>
<linearGradient id="paint22_linear_303_828" x1="1143.42" y1="653.223" x2="1143.42" y2="707.524" gradientUnits="userSpaceOnUse">
<stop stop-color="#F1C051"/>
<stop offset="1" stop-color="#EEA24B"/>
</linearGradient>
<linearGradient id="paint23_linear_303_828" x1="1144.07" y1="654.437" x2="1144.07" y2="706.976" gradientUnits="userSpaceOnUse">
<stop stop-color="#F1C051"/>
<stop offset="1" stop-color="#EEA24B"/>
</linearGradient>
<linearGradient id="paint24_linear_303_828" x1="1141.46" y1="593.733" x2="1141.46" y2="648.034" gradientUnits="userSpaceOnUse">
<stop stop-color="#F1C051"/>
<stop offset="1" stop-color="#EEA24B"/>
</linearGradient>
<linearGradient id="paint25_linear_303_828" x1="1142.12" y1="594.947" x2="1142.12" y2="647.487" gradientUnits="userSpaceOnUse">
<stop stop-color="#F1C051"/>
<stop offset="1" stop-color="#EEA24B"/>
</linearGradient>
<linearGradient id="paint26_linear_303_828" x1="1205.6" y1="619.931" x2="1205.6" y2="674.232" gradientUnits="userSpaceOnUse">
<stop stop-color="#F1C051"/>
<stop offset="1" stop-color="#EEA24B"/>
</linearGradient>
<linearGradient id="paint27_linear_303_828" x1="1206.25" y1="621.146" x2="1206.25" y2="673.684" gradientUnits="userSpaceOnUse">
<stop stop-color="#F1C051"/>
<stop offset="1" stop-color="#EEA24B"/>
</linearGradient>
<linearGradient id="paint28_linear_303_828" x1="1190.94" y1="859.323" x2="1289.17" y2="884.484" gradientUnits="userSpaceOnUse">
<stop stop-color="#5383EB"/>
<stop offset="1" stop-color="#5384EE"/>
</linearGradient>
<linearGradient id="paint29_linear_303_828" x1="1159.61" y1="862.567" x2="1263.42" y2="888.959" gradientUnits="userSpaceOnUse">
<stop stop-color="#5383EB"/>
<stop offset="1" stop-color="#5384EE"/>
</linearGradient>
<linearGradient id="paint30_linear_303_828" x1="1249.58" y1="708.659" x2="1249.58" y2="756.959" gradientUnits="userSpaceOnUse">
<stop stop-color="#F1C051"/>
<stop offset="1" stop-color="#EEA24B"/>
</linearGradient>
<linearGradient id="paint31_linear_303_828" x1="1207.02" y1="693.57" x2="1207.02" y2="867.85" gradientUnits="userSpaceOnUse">
<stop stop-color="#F1C051"/>
<stop offset="1" stop-color="#EEA24B"/>
</linearGradient>
<linearGradient id="paint32_linear_303_828" x1="1204.12" y1="693.57" x2="1204.12" y2="702.936" gradientUnits="userSpaceOnUse">
<stop stop-color="#F1C051"/>
<stop offset="1" stop-color="#EEA24B"/>
</linearGradient>
<linearGradient id="paint33_linear_303_828" x1="1150.19" y1="700.285" x2="1150.19" y2="744.728" gradientUnits="userSpaceOnUse">
<stop stop-color="#F1C051"/>
<stop offset="1" stop-color="#EEA24B"/>
</linearGradient>
</defs>
</svg>
