<svg version="1.1" id="Layer_1" xmlns="http://www.w3.org/2000/svg" x="0" y="0" viewBox="0 0 512 512" style="enable-background:new 0 0 512 512" xml:space="preserve"><style>.st1{fill:#dfdfdf}.st2{fill:#4a555f}.st3{fill:#ffd452}.st4{fill:#f58e6f}</style><path class="st1" d="M387.021 252.92h-35.188a26.624 26.624 0 0 0-22.206 11.915l-26.818 40.526-3.16 4.762h-29.445a7.095 7.095 0 0 0-4.035 1.239c.406 1.559.64 3.203.64 4.911 0 2.328-.427 4.57-1.217 6.641a7.137 7.137 0 0 0 4.612 1.665h51.01c5.849 0 10.591 4.741 10.591 10.59h36.064v25.622h-12.235v31.111h25.687c16.167 0 29.274-13.106 29.274-29.274v-86.135c-.001-13.019-10.555-23.573-23.574-23.573z"/><path class="st2" d="M360.618 164.325c-22.36 0-40.551 18.191-40.551 40.551 0 10.831 4.218 21.014 11.877 28.673s17.843 11.877 28.674 11.877c22.36 0 40.551-18.191 40.551-40.55 0-22.36-18.191-40.551-40.551-40.551zm0 74.725c-9.128 0-17.711-3.555-24.166-10.009-6.454-6.455-10.009-15.037-10.009-24.165 0-18.844 15.332-34.175 34.176-34.175s34.176 15.331 34.176 34.175-15.333 34.174-34.177 34.174z"/><path class="st3" d="M360.618 178.403c-14.597 0-26.473 11.876-26.473 26.473s11.876 26.473 26.473 26.473c14.598 0 26.474-11.876 26.474-26.473s-11.876-26.473-26.474-26.473z"/><path class="st2" d="m418.449 267.501-24.553 47.252c-5.548 10.678-16.47 17.31-28.504 17.31h-34.578c-7.379 0-13.382-6.003-13.382-13.382s6.003-13.382 13.382-13.382l8.805-.001c14.451 0 27.552-7.973 34.193-20.808l10.018-19.364-5.664-2.929-10.016 19.364c-5.541 10.709-16.473 17.362-28.531 17.362h-8.805c-10.894 0-19.757 8.863-19.757 19.758 0 10.894 8.863 19.758 19.757 19.758h34.578c14.422 0 27.512-7.95 34.161-20.746l24.553-47.252-5.657-2.94z"/><path class="st2" d="M387.021 239.056h-35.188c-13.609 0-26.231 6.774-33.767 18.125l-25.873 39.077h-21.989a20.834 20.834 0 0 0-11.337 3.329l3.459 5.354a14.483 14.483 0 0 1 7.878-2.308h25.414l27.761-41.929a34.084 34.084 0 0 1 28.454-15.272h35.188c17.128 0 31.062 13.934 31.062 31.061v86.113c0 20.282-16.492 36.783-36.762 36.783h-24.727l-4.127 35.769 6.334.73 3.475-30.124h19.044c23.786 0 43.138-19.361 43.138-43.159v-86.113c0-20.642-16.794-37.436-37.437-37.436z"/><path class="st2" d="M270.204 332.066c-.504 0-1.01-.016-1.5-.068a14.705 14.705 0 0 1-7.548-3.053l-3.937 5.015a21.065 21.065 0 0 0 10.812 4.377c.708.076 1.441.104 2.174.104h61.601v-6.375h-61.602zM416.117 374.495c-4.99 14.648-18.727 24.643-34.183 24.872l.096 6.374c18.142-.269 34.266-12 40.122-29.191l-6.035-2.055z"/><path class="st4" d="m349.764 242.239 6.513 15.376h8.668l6.394-15.376zM364.948 257.618h-8.677l-8.396 43.507c8.94-2.157 16.793-7.731 21.718-15.672v-.017c.456-.754.754-1.263.859-1.438a.195.195 0 0 1 .035-.069l-5.539-26.311z"/><path class="st2" d="m344.951 239.051 9.215 21.752h12.906l9.044-21.752h-31.165zm17.867 15.377h-4.429l-3.812-9.001h11.985l-3.744 9.001z"/><path class="st2" d="m373.606 283.272-5.539-26.312a3.187 3.187 0 0 0-3.119-2.531h-8.677a3.187 3.187 0 0 0-3.129 2.584l-8.397 43.507a3.188 3.188 0 0 0 3.877 3.703c9.918-2.393 18.328-8.462 23.68-17.09a3.3 3.3 0 0 0 .137-.247l.751-1.257c.042-.07.081-.141.116-.214a3.175 3.175 0 0 0 .3-2.143zm-6.742.516a3.796 3.796 0 0 0-.092.164 31.799 31.799 0 0 1-14.744 12.475l6.875-35.622h3.459l4.751 22.568-.249.415zM178.268 357.602l51.064 27.204a29.647 29.647 0 0 1 14.982 19.59l16.826 73.645c1.465 6.398.219 13.073-3.42 18.312-3.494 5.031-8.778 8.246-14.873 9.053a23.09 23.09 0 0 1-3.005.209v6.375h118.98V357.602H178.268zm174.178 148.013h-94.643a28.114 28.114 0 0 0 5.154-5.626c4.659-6.71 6.262-15.228 4.399-23.37l-16.826-73.641a36.014 36.014 0 0 0-18.2-23.799l-28.536-15.202h148.652v141.638z"/><path class="st4" d="m233.577 371.416 2.254 1.201a43.454 43.454 0 0 1 21.951 28.703l16.825 73.639c1.801 7.867 1.003 16.029-2.152 23.219h72.554V371.416H233.577z"/><path class="st2" d="M174.948 331.98v23.849l15.287 8.149h180.823V331.98h-196.11zm189.733 25.622H191.828l-10.505-5.6v-13.647h183.359v19.247z"/><path class="st4" d="M188.761 345.794v1.744l4.926 2.626h163.556v-4.37z"/><path class="st2" d="m268.368 331.98-.344 6.357c.71.077 1.445.104 2.179.104h64.789v-6.461h-66.624zM447.973 202.512H418.09v203.241l29.884.001-.001-203.242zm-23.508 196.866v-190.49h17.132l.001 190.49h-17.133z"/><path class="st2" d="M441.598 402.566v103.059l-6.967-.001-10.181-103.371-6.345.625 10.749 109.121 19.12.001V402.566z"/><path class="st2" d="m416.853 372.335-.736 2.16c-4.989 14.647-18.727 24.643-34.183 24.873l.046 6.375 42.478.023v-33.431h-7.605zm1.23 27.052-14.205-.008a43.255 43.255 0 0 0 14.205-14.18v14.188z"/><path class="st3" d="M367.448 13.864H155.671c-18.056 0-32.746 14.69-32.746 32.747v76.385l14.313-16.793h230.21c18.056 0 32.746-14.689 32.746-32.745V46.61c.001-18.056-14.689-32.746-32.746-32.746z"/><path class="st2" d="M248.724 58.239h6.375v-6.375h-6.375v6.375zm12.751 0h6.375v-6.375h-6.375v6.375zm-25.501 0h6.375v-6.375h-6.375v6.375zm38.252 0h6.375v-6.375h-6.375v6.375zm-51.003 0h6.375v-6.375h-6.375v6.375zm102.006 0h6.375v-6.375h-6.375v6.375zm12.751 0h6.375v-6.375h-6.375v6.375zm12.751-6.375v6.375h6.375v-6.375h-6.375zm-38.252 6.375h6.375v-6.375h-6.375v6.375zm-25.502 0h6.375v-6.375h-6.375v6.375zm12.751 0h6.375v-6.375h-6.375v6.375zM260.31 87.074h6.375v-6.375h-6.375v6.375zm-51.003 0h6.375v-6.375h-6.375v6.375zm38.252 0h6.375v-6.375h-6.375v6.375zm-12.751 0h6.375v-6.375h-6.375v6.375zm-63.754 0h6.375v-6.375h-6.375v6.375zm25.502 0h6.375v-6.375h-6.375v6.375zm-12.751 0h6.375v-6.375h-6.375v6.375zm38.252 0h6.375v-6.375h-6.375v6.375zm114.758 0h6.375v-6.375h-6.375v6.375zm12.751-6.376v6.375h6.375v-6.375h-6.375zm-25.502 6.376h6.375v-6.375h-6.375v6.375zm-25.502 0h6.375v-6.375h-6.375v6.375zm12.751 0h6.375v-6.375h-6.375v6.375zm-25.501 0h6.375v-6.375h-6.375v6.375zm-12.751 0h6.375v-6.375h-6.375v6.375z"/><path class="st2" d="M367.449 0H155.671c-25.7 0-46.609 20.909-46.609 46.61v114.023l34.575-40.568h223.812c25.7 0 46.609-20.908 46.609-46.609V46.61c0-25.701-20.909-46.61-46.609-46.61zm40.233 73.457c0 22.185-18.048 40.233-40.233 40.233H140.694l-25.257 29.634V46.61c0-22.186 18.049-40.235 40.233-40.235h211.778c22.186 0 40.233 18.049 40.233 40.235v26.847zM138.426 166.225c-21.43.001-38.864 17.435-38.864 38.864s17.434 38.864 38.864 38.864c21.43 0 38.865-17.434 38.865-38.864 0-21.43-17.435-38.864-38.865-38.864zm0 71.353c-17.914 0-32.488-14.574-32.488-32.488s14.574-32.488 32.488-32.489c17.914 0 32.489 14.575 32.489 32.489s-14.575 32.488-32.489 32.488z"/><path class="st3" d="M138.427 179.907c-13.886 0-25.183 11.298-25.183 25.183 0 6.727 2.619 13.05 7.376 17.806s11.081 7.376 17.807 7.376c13.885 0 25.182-11.297 25.182-25.182s-11.297-25.183-25.182-25.183z"/><path class="st2" d="M168.015 415.467h-45.433l10.151 7.176a20.487 20.487 0 0 1 8.479 14.182l6.257 51.503c1.656 13.523 12.787 23.662 25.911 23.662.827.004 1.651-.043 2.475-.122l3.233-.309-11.073-96.092zm-14.217 72.09-6.257-51.505a26.855 26.855 0 0 0-6.291-14.21h21.083l9.651 83.721c-9.297-.697-16.984-8.184-18.186-18.006z"/><path class="st1" d="M165.174 418.654h-16.889a34.322 34.322 0 0 1 6.683 16.505l6.256 51.501c.79 6.426 6.15 11.466 12.192 11.466h.085c.278 0 .555-.022.833-.065l-9.16-79.407z"/><path class="st1" d="m178.135 288.061 28.078 33.762a13.373 13.373 0 0 0 10.462 4.996h31.195c5.829 0 10.57-4.739 10.57-10.548 0-5.829-4.74-10.569-10.57-10.569h-11.188c-10.292 0-19.772-5.167-25.366-13.815l-17.551-27.159c-6.299-9.758-17.017-15.587-28.633-15.587h-36.106l-21.245.513c-2.818 0-8.882 1.494-15.203 5.039v141.001l26.049.007h67.644l1.345 11.039a16.707 16.707 0 0 1 6.747-1.43c7.815 0 14.69 5.53 16.355 13.153l15.011 68.455c1.537 6.597 7.345 11.21 14.135 11.21.662 0 1.324-.044 1.986-.128 3.993-.534 7.43-2.626 9.715-5.914 2.456-3.524 3.288-8.029 2.285-12.385l-16.826-73.622a22.206 22.206 0 0 0-11.209-14.669l-50.348-26.817-1.132.096v-.622h-5.904v-76.004h9.704z"/><path class="st2" d="M64.026 202.512v219.322h31.735V202.512H64.026zm25.36 212.947H70.402V208.888h18.984v206.571z"/><path class="st2" d="m89.401 418.335-8.597 87.287H70.402v-86.975h-6.376v93.351h22.556l9.164-93.039z"/><path class="st2" d="M189.088 392.506H89.386v29.329h72.946l10.408 90.163h30.882l-14.534-119.492zm-21.074 22.953H95.761v-16.578h87.679l12.983 106.742h-18.002l-10.407-90.164z"/><path class="st2" d="m267.356 476.62-16.826-73.642a36.013 36.013 0 0 0-18.199-23.798l-51.009-27.178v-52.546h-6.375v56.373l54.385 28.977a29.647 29.647 0 0 1 14.982 19.59l16.826 73.645c1.465 6.398.219 13.073-3.42 18.312-3.494 5.031-8.779 8.247-14.885 9.055-11.317 1.517-21.805-5.701-24.39-16.74l-15.033-68.609c-.944-4.276-4.665-7.262-9.049-7.262-.914 0-1.84.146-2.749.433l-2.521-20.717H92.578v6.375h90.869l3.666 30.182 4.771-8.442a2.84 2.84 0 0 1 1.112-1.101c.46-.235.918-.354 1.366-.354 1.12 0 2.481.708 2.822 2.256l15.042 68.648a28.281 28.281 0 0 0 27.595 21.908c1.272 0 2.56-.085 3.855-.258 7.904-1.047 14.75-5.215 19.281-11.738 4.659-6.709 6.262-15.228 4.399-23.369zM269.249 310.535a21.967 21.967 0 0 0-5.736-9.905c-.289-.288-.58-.573-.896-.832l-4.039 4.933c.152.125.288.267.438.417a15.583 15.583 0 0 1 4.07 7.014c.357 1.375.537 2.758.537 4.11 0 1.898-.339 3.75-1.02 5.537-1.036 2.808-2.876 5.26-5.324 7.091l3.819 5.105c3.436-2.57 6.025-6.025 7.474-9.958a21.738 21.738 0 0 0 1.427-7.776 22.852 22.852 0 0 0-.75-5.736z"/><path class="st2" d="M269.249 310.535a21.967 21.967 0 0 0-5.736-9.905c-.289-.288-.58-.573-.896-.832l-4.039 4.933c.152.125.288.267.438.417a15.583 15.583 0 0 1 4.07 7.014c.357 1.375.537 2.758.537 4.11 0 1.898-.339 3.75-1.02 5.537-1.036 2.808-2.876 5.26-5.324 7.091l3.819 5.105c3.436-2.57 6.025-6.025 7.474-9.958a21.738 21.738 0 0 0 1.427-7.776 22.852 22.852 0 0 0-.75-5.736z"/><path class="st2" d="M263.52 300.636c-4.161-4.186-9.719-6.492-15.649-6.492h-11.188a18.546 18.546 0 0 1-15.643-8.515l-17.572-27.179c-8.436-13.067-22.768-20.868-38.337-20.868l-36.293.001-21.059.533c-4.655 0-10.677 1.529-16.524 4.195l2.644 5.801c4.972-2.267 10.161-3.62 13.961-3.621l21.058-.533h36.212c13.395 0 25.724 6.711 32.981 17.952l17.573 27.18c4.623 7.157 12.472 11.429 20.997 11.429h11.188c4.22 0 8.172 1.637 11.141 4.625 2.973 2.955 4.61 6.907 4.61 11.127 0 8.673-7.066 15.73-15.752 15.73h-31.195c-5.664 0-10.946-2.518-14.496-6.909l-31.621-39.116-4.96 4.006 31.623 39.118c4.766 5.895 11.856 9.276 19.454 9.276h31.195c12.201 0 22.127-9.916 22.127-22.105.003-5.93-2.303-11.488-6.475-15.635zM187.36 35.57v-1.865c0-4.4-3.58-7.98-7.981-7.98h-6.84c-4.4 0-7.98 3.58-7.98 7.98v18.381c0 4.4 3.58 7.98 7.98 7.98h6.84c4.401 0 7.981-3.58 7.981-7.98V50.98h-6.375v1.106c0 .885-.72 1.605-1.605 1.605h-6.84c-.884 0-1.604-.72-1.604-1.605V33.705c0-.885.72-1.605 1.604-1.605h6.84c.885 0 1.605.72 1.605 1.605v1.865h6.375zM211.69 25.315l-6.253 20.415-6.102-20.213-6.104 1.843 9.131 30.249a3.187 3.187 0 0 0 3.046 2.266h.006a3.186 3.186 0 0 0 3.047-2.254l9.323-30.439-6.094-1.867z"/></svg>