<svg width="330" height="98" viewBox="0 0 330 98" fill="none" xmlns="http://www.w3.org/2000/svg">
<path d="M129.783 30V66.0434H125V30H129.783ZM151.569 30L136.574 46.8087L128.148 55.5472L127.355 50.4477L133.699 43.4667L145.819 30H151.569ZM146.959 66.0434L133.6 48.4673L136.451 44.6797L152.66 66.0434H146.959Z" fill="black"/>
<path d="M160.17 44.9768V66.0434H155.584V39.2584H159.922L160.17 44.9768ZM159.079 51.6359L157.171 51.5617C157.187 49.7298 157.46 48.0382 157.989 46.4869C158.517 44.919 159.261 43.5575 160.219 42.4023C161.177 41.247 162.318 40.3559 163.639 39.7287C164.978 39.0851 166.457 38.7633 168.076 38.7633C169.398 38.7633 170.587 38.9448 171.645 39.3079C172.702 39.6545 173.603 40.2156 174.346 40.9912C175.107 41.7669 175.685 42.7736 176.081 44.0114C176.478 45.2326 176.676 46.7262 176.676 48.492V66.0434H172.066V48.4425C172.066 47.0397 171.86 45.9175 171.447 45.0758C171.034 44.2177 170.43 43.5988 169.637 43.2192C168.844 42.8231 167.869 42.6251 166.713 42.6251C165.573 42.6251 164.532 42.8644 163.59 43.343C162.665 43.8216 161.863 44.4817 161.186 45.3234C160.525 46.1651 160.004 47.1305 159.624 48.2197C159.261 49.2924 159.079 50.4312 159.079 51.6359Z" fill="black"/>
<path d="M182.426 52.9479V52.3786C182.426 50.4477 182.707 48.6571 183.269 47.0067C183.831 45.3399 184.64 43.8958 185.698 42.6746C186.755 41.4368 188.036 40.4796 189.54 39.803C191.043 39.1099 192.728 38.7633 194.596 38.7633C196.479 38.7633 198.173 39.1099 199.676 39.803C201.197 40.4796 202.485 41.4368 203.543 42.6746C204.617 43.8958 205.435 45.3399 205.997 47.0067C206.558 48.6571 206.839 50.4477 206.839 52.3786V52.9479C206.839 54.8788 206.558 56.6694 205.997 58.3198C205.435 59.9701 204.617 61.4142 203.543 62.6519C202.485 63.8732 201.205 64.8304 199.701 65.5235C198.214 66.2001 196.529 66.5385 194.645 66.5385C192.762 66.5385 191.068 66.2001 189.564 65.5235C188.061 64.8304 186.772 63.8732 185.698 62.6519C184.64 61.4142 183.831 59.9701 183.269 58.3198C182.707 56.6694 182.426 54.8788 182.426 52.9479ZM187.011 52.3786V52.9479C187.011 54.2847 187.168 55.5472 187.482 56.7355C187.796 57.9072 188.267 58.9469 188.895 59.8546C189.54 60.7623 190.341 61.4802 191.299 62.0083C192.258 62.5199 193.373 62.7757 194.645 62.7757C195.901 62.7757 197 62.5199 197.942 62.0083C198.9 61.4802 199.693 60.7623 200.321 59.8546C200.949 58.9469 201.42 57.9072 201.734 56.7355C202.064 55.5472 202.229 54.2847 202.229 52.9479V52.3786C202.229 51.0583 202.064 49.8123 201.734 48.6406C201.42 47.4523 200.941 46.4043 200.296 45.4967C199.668 44.5725 198.875 43.8463 197.917 43.3182C196.975 42.7901 195.868 42.5261 194.596 42.5261C193.34 42.5261 192.233 42.7901 191.274 43.3182C190.333 43.8463 189.54 44.5725 188.895 45.4967C188.267 46.4043 187.796 47.4523 187.482 48.6406C187.168 49.8123 187.011 51.0583 187.011 52.3786Z" fill="black"/>
<path d="M219.38 61.2904L226.271 39.2584H229.294L228.699 43.64L221.685 66.0434H218.736L219.38 61.2904ZM214.746 39.2584L220.62 61.5379L221.041 66.0434H217.943L210.16 39.2584H214.746ZM235.887 61.3647L241.488 39.2584L246.371 39.6792L238.266 66.0434H235.193L235.887 61.3647ZM229.963 39.2584L236.705 60.9191L237.473 66.0434H234.549L227.336 43.5905L226.741 39.2584H229.963Z" fill="black"/>
<path d="M257.202 62.3301L264.538 39.6792H269.223L259.581 66.4642H256.508L257.202 62.3301ZM251.08 39.6792L258.639 62.4539L259.16 66.4642H256.087L246.371 39.6792H251.08Z" fill="#ED7F01"/>
<path d="M281.541 66.5385C279.673 66.5385 277.98 66.2249 276.46 65.5978C274.956 64.9541 273.659 64.0547 272.568 62.8995C271.494 61.7442 270.668 60.3745 270.09 58.7901C269.512 57.2058 269.223 55.473 269.223 53.5916V52.5519C269.223 50.3734 269.545 48.4343 270.189 46.7344C270.834 45.0181 271.709 43.5658 272.816 42.3775C273.923 41.1893 275.179 40.2899 276.584 39.6792C277.988 39.0686 279.442 38.7633 280.946 38.7633C282.862 38.7633 284.515 39.0934 285.903 39.7535C287.307 40.4136 288.456 41.3378 289.348 42.5261C290.24 43.6978 290.901 45.0841 291.331 46.6849C291.76 48.2692 291.975 50.0021 291.975 51.8835V53.9381H271.949V50.2001H287.39V49.8536C287.324 48.6653 287.076 47.5101 286.646 46.3878C286.233 45.2656 285.572 44.3414 284.663 43.6153C283.755 42.8891 282.515 42.5261 280.946 42.5261C279.905 42.5261 278.946 42.7489 278.071 43.1944C277.195 43.6235 276.443 44.2672 275.815 45.1253C275.187 45.9835 274.7 47.0315 274.353 48.2692C274.006 49.507 273.833 50.9345 273.833 52.5519V53.5916C273.833 54.8623 274.006 56.0588 274.353 57.1811C274.716 58.2868 275.237 59.2605 275.914 60.1021C276.608 60.9438 277.443 61.604 278.418 62.0826C279.409 62.5611 280.533 62.8004 281.788 62.8004C283.408 62.8004 284.779 62.4704 285.903 61.8102C287.026 61.1501 288.009 60.2672 288.852 59.1615L291.628 61.3647C291.05 62.2393 290.314 63.0728 289.422 63.8649C288.53 64.6571 287.431 65.3007 286.126 65.7958C284.837 66.2909 283.309 66.5385 281.541 66.5385Z" fill="#ED7F01"/>
<path d="M297.527 39.2584L303.401 49.0119L309.349 39.2584H314.727L305.954 52.4776L315 66.0434H309.696L303.5 55.9928L297.304 66.0434H291.975L300.997 52.4776L292.248 39.2584H297.527Z" fill="#ED7F01"/>
<path d="M47.9808 65.9038L46.8846 65.1731L35.1923 53.4808L31.9038 56.4038V69.9231L14 80.1538V10H21.6731L31.9038 21.3269V42.1538L52.7308 20.5962H69.5385L47.25 43.9808L57.4808 54.9423L47.9808 65.9038Z" fill="black"/>
<path d="M114.112 84.173L82.3238 53.1153L69.5367 66.2692L69.5354 87.0961L46.8828 65.173L89.2674 21.3269L122.516 10.7307L93.2854 41.7884L135.305 84.9038L114.112 84.173Z" fill="url(#paint0_linear_359_3276)"/>
<path d="M57.3672 54.3109L69.9044 66.2693" stroke="white"/>
<defs>
<linearGradient id="paint0_linear_359_3276" x1="38.0477" y1="53.4511" x2="171.91" y2="56.2764" gradientUnits="userSpaceOnUse">
<stop stop-color="#FA9805"/>
<stop offset="1" stop-color="#930D0D"/>
</linearGradient>
</defs>
</svg>
