<svg width="204" height="128" viewBox="0 0 204 128" fill="none" xmlns="http://www.w3.org/2000/svg">
<path d="M11.7835 84.0961V120.139H7V84.0961H11.7835ZM33.5693 84.0961L18.5745 100.905L10.1477 109.643L9.35455 104.544L15.6995 97.5628L27.8192 84.0961H33.5693ZM28.9593 120.139L15.6003 102.563L18.4506 98.7758L34.6598 120.139H28.9593Z" fill="black"/>
<path d="M42.1696 99.0729V120.139H37.5844V93.3545H41.9217L42.1696 99.0729ZM41.0791 105.732L39.1706 105.658C39.1871 103.826 39.4598 102.134 39.9885 100.583C40.5173 99.0151 41.2608 97.6536 42.2191 96.4984C43.1775 95.3431 44.3176 94.4519 45.6394 93.8248C46.9778 93.1812 48.4566 92.8594 50.0759 92.8594C51.3978 92.8594 52.5874 93.0409 53.6449 93.404C54.7024 93.7505 55.6029 94.3117 56.3465 95.0873C57.1065 95.863 57.6848 96.8697 58.0814 98.1074C58.478 99.3287 58.6762 100.822 58.6762 102.588V120.139H54.0663V102.539C54.0663 101.136 53.8597 100.014 53.4466 99.1719C53.0336 98.3137 52.4305 97.6948 51.6374 97.3153C50.8442 96.9192 49.8694 96.7211 48.7128 96.7211C47.5727 96.7211 46.5317 96.9604 45.5899 97.439C44.6646 97.9176 43.8632 98.5778 43.1858 99.4194C42.5248 100.261 42.0043 101.227 41.6243 102.316C41.2608 103.389 41.0791 104.527 41.0791 105.732Z" fill="black"/>
<path d="M64.4263 107.044V106.475C64.4263 104.544 64.7072 102.753 65.269 101.103C65.8308 99.436 66.6404 97.9919 67.6979 96.7707C68.7554 95.5329 70.0359 94.5757 71.5395 93.8991C73.0431 93.2059 74.7285 92.8594 76.5956 92.8594C78.4793 92.8594 80.1729 93.2059 81.6765 93.8991C83.1966 94.5757 84.4854 95.5329 85.5429 96.7707C86.6169 97.9919 87.4348 99.436 87.9966 101.103C88.5584 102.753 88.8393 104.544 88.8393 106.475V107.044C88.8393 108.975 88.5584 110.766 87.9966 112.416C87.4348 114.066 86.6169 115.51 85.5429 116.748C84.4854 117.969 83.2049 118.926 81.7013 119.62C80.2142 120.296 78.5288 120.635 76.6452 120.635C74.7615 120.635 73.0679 120.296 71.5643 119.62C70.0607 118.926 68.7719 117.969 67.6979 116.748C66.6404 115.51 65.8308 114.066 65.269 112.416C64.7072 110.766 64.4263 108.975 64.4263 107.044ZM69.0115 106.475V107.044C69.0115 108.381 69.1685 109.643 69.4824 110.832C69.7963 112.003 70.2672 113.043 70.8951 113.951C71.5395 114.858 72.3409 115.576 73.2992 116.104C74.2576 116.616 75.3729 116.872 76.6452 116.872C77.9009 116.872 78.9997 116.616 79.9416 116.104C80.8999 115.576 81.693 114.858 82.3209 113.951C82.9488 113.043 83.4197 112.003 83.7336 110.832C84.0641 109.643 84.2293 108.381 84.2293 107.044V106.475C84.2293 105.154 84.0641 103.908 83.7336 102.737C83.4197 101.548 82.9405 100.5 82.2961 99.5927C81.6682 98.6685 80.8751 97.9424 79.9168 97.4143C78.975 96.8862 77.8679 96.6221 76.5956 96.6221C75.3399 96.6221 74.2328 96.8862 73.2745 97.4143C72.3326 97.9424 71.5395 98.6685 70.8951 99.5927C70.2672 100.5 69.7963 101.548 69.4824 102.737C69.1685 103.908 69.0115 105.154 69.0115 106.475Z" fill="black"/>
<path d="M101.38 115.386L108.271 93.3545H111.294L110.699 97.7361L103.685 120.139H100.736L101.38 115.386ZM96.7456 93.3545L102.62 115.634L103.041 120.139H99.9429L92.1604 93.3545H96.7456ZM117.887 115.461L123.488 93.3545L128.371 93.7753L120.266 120.139H117.193L117.887 115.461ZM111.963 93.3545L118.705 115.015L119.473 120.139H116.549L109.336 97.6866L108.741 93.3545H111.963Z" fill="black"/>
<path d="M139.202 116.426L146.538 93.7753H151.223L141.581 120.56H138.508L139.202 116.426ZM133.08 93.7753L140.639 116.55L141.16 120.56H138.087L128.371 93.7753H133.08Z" fill="#ED7F01"/>
<path d="M163.541 120.635C161.673 120.635 159.98 120.321 158.46 119.694C156.956 119.05 155.659 118.151 154.568 116.996C153.494 115.84 152.668 114.471 152.09 112.886C151.512 111.302 151.223 109.569 151.223 107.688V106.648C151.223 104.469 151.545 102.53 152.189 100.83C152.834 99.1141 153.709 97.6618 154.816 96.4736C155.923 95.2854 157.179 94.3859 158.584 93.7753C159.988 93.1647 161.442 92.8594 162.946 92.8594C164.862 92.8594 166.515 93.1894 167.903 93.8496C169.307 94.5097 170.456 95.4339 171.348 96.6221C172.24 97.7939 172.901 99.1801 173.331 100.781C173.76 102.365 173.975 104.098 173.975 105.98V108.034H153.949V104.296H169.39V103.95C169.324 102.761 169.076 101.606 168.646 100.484C168.233 99.3617 167.572 98.4375 166.663 97.7113C165.755 96.9852 164.515 96.6221 162.946 96.6221C161.905 96.6221 160.946 96.8449 160.071 97.2905C159.195 97.7196 158.443 98.3632 157.815 99.2214C157.187 100.08 156.7 101.128 156.353 102.365C156.006 103.603 155.833 105.031 155.833 106.648V107.688C155.833 108.958 156.006 110.155 156.353 111.277C156.716 112.383 157.237 113.357 157.914 114.198C158.608 115.04 159.443 115.7 160.418 116.179C161.409 116.657 162.533 116.897 163.788 116.897C165.408 116.897 166.779 116.566 167.903 115.906C169.026 115.246 170.009 114.363 170.852 113.258L173.628 115.461C173.05 116.335 172.314 117.169 171.422 117.961C170.53 118.753 169.431 119.397 168.126 119.892C166.837 120.387 165.309 120.635 163.541 120.635Z" fill="#ED7F01"/>
<path d="M179.527 93.3545L185.401 103.108L191.349 93.3545H196.727L187.954 106.574L197 120.139H191.696L185.5 110.089L179.304 120.139H173.975L182.997 106.574L174.248 93.3545H179.527Z" fill="#ED7F01"/>
<path d="M74.9808 62.9038L73.8846 62.1731L62.1923 50.4808L58.9038 53.4038V66.9231L41 77.1538V7H48.6731L58.9038 18.3269V39.1538L79.7308 17.5962H96.5385L74.25 40.9808L84.4808 51.9423L74.9808 62.9038Z" fill="black"/>
<path d="M141.112 81.173L109.324 50.1153L96.5367 63.2692L96.5354 84.0961L73.8828 62.173L116.267 18.3269L149.516 7.73071L120.285 38.7884L162.305 81.9038L141.112 81.173Z" fill="url(#paint0_linear_359_3276)"/>
<path d="M84.3672 51.3109L96.9044 63.2693" stroke="white"/>
<defs>
<linearGradient id="paint0_linear_359_3276" x1="65.0477" y1="50.4511" x2="198.91" y2="53.2764" gradientUnits="userSpaceOnUse">
<stop stop-color="#FA9805"/>
<stop offset="1" stop-color="#930D0D"/>
</linearGradient>
</defs>
</svg>
