<svg xmlns="http://www.w3.org/2000/svg" viewBox="0 0 256 256" xml:space="preserve"><path fill="#72C2E9" d="M178.164 146.672H77.836a6.586 6.586 0 0 1 0-13.172h100.328a6.586 6.586 0 1 1 0 13.172z"/><path fill="#F0C020" d="M120.67 146.67h14.66v101.9h-14.66z"/><path fill="#E8A61E" d="M120.67 146.67h14.66v9.32h-14.66z"/><circle fill="#FFB69F" cx="37.795" cy="66.818" r="17.088"/><path fill="#FC5D3D" d="M30.73 120.25v6.63c0 3.65 2.97 6.62 6.62 6.62h17.78v22.49H20.46v-54.75c0-9.57 7.76-17.33 17.33-17.33h.01c9.57 0 17.33 7.76 17.33 17.33v19.01h-24.4z"/><path fill="#7D7B79" d="M93.04 165.99v69.51H73.7v-55.17a5 5 0 0 0-5-5H30.46c-5.523 0-10-4.477-10-10v-9.34h62.58c5.523 0 10 4.477 10 10z"/><path fill="#EFEFEF" d="M108.483 241.167c.52 3.984-2.58 7.403-6.483 7.403H73.7V235.5h28.071c3.319 0 6.283 2.376 6.712 5.667z"/><path fill="#F0C020" d="M5.04 192.667h12.333v55.903H5.04z"/><path fill="#72C2E9" d="M20.46 165.33V89.15a7.71 7.71 0 0 0-15.42 0v103.516H73.7V180.33a5 5 0 0 0-5-5H30.46c-5.523 0-10-4.477-10-10z"/><path fill="#F0C020" d="M61.367 192.667H73.7v55.903H61.367z"/><path fill="#FFB69F" d="M93.04 126.87v.01c0 3.65-2.97 6.62-6.62 6.62H37.35c-3.65 0-6.62-2.97-6.62-6.62v-6.63h55.69c3.65 0 6.62 2.97 6.62 6.62zM235.29 66.82c0 9.44-7.65 17.09-17.08 17.09-9.44 0-17.09-7.65-17.09-17.09 0-1.92.32-3.77.91-5.49 2.28-6.75 8.66-11.6 16.18-11.6 7.51 0 13.89 4.85 16.17 11.6.59 1.72.91 3.57.91 5.49z"/><path fill="#EFEFEF" d="M225.27 120.25v6.63c0 3.65-2.97 6.62-6.62 6.62h-17.78v22.49h34.67v-54.75c0-9.57-7.76-17.33-17.33-17.33h-.01c-9.57 0-17.33 7.76-17.33 17.33v19.01h24.4z"/><path fill="#7D7B79" d="M162.96 165.99v69.51h19.34v-55.17a5 5 0 0 1 5-5h38.24c5.523 0 10-4.477 10-10v-9.34h-62.58c-5.523 0-10 4.477-10 10z"/><path fill="#EFEFEF" d="M147.517 241.167c-.52 3.984 2.58 7.403 6.483 7.403h28.3V235.5h-28.071c-3.319 0-6.283 2.376-6.712 5.667z"/><path fill="#F0C020" d="M250.96 248.57h-12.333v-55.903h12.333z"/><path fill="#72C2E9" d="M235.54 165.33V89.15a7.71 7.71 0 0 1 15.42 0v103.516H182.3V180.33a5 5 0 0 1 5-5h38.24c5.523 0 10-4.477 10-10z"/><path fill="#F0C020" d="M194.633 248.57H182.3v-55.903h12.333z"/><path fill="#FFB69F" d="M162.96 126.87v.01c0 3.65 2.97 6.62 6.62 6.62h49.07c3.65 0 6.62-2.97 6.62-6.62v-6.63h-55.69c-3.65 0-6.62 2.97-6.62 6.62z"/><path fill="#F0C020" d="M152 121.701h-40.1a5.9 5.9 0 1 0 0 11.8H152v-11.8z"/><circle fill="#F0C020" cx="91.162" cy="36.5" r="24.833"/><path fill="#F0C020" d="M245.75 21.67v29.66c0 5.523-4.477 10-10 10h-1.37c-2.28-6.75-8.66-11.6-16.17-11.6-7.52 0-13.9 4.85-16.18 11.6H139c-5.523 0-10-4.477-10-10V21.67c0-5.523 4.477-10 10-10h96.75c5.523 0 10 4.477 10 10z"/><path fill="#AFAFAF" d="M84.04 229a2.5 2.5 0 0 1-2.5-2.5v-3.661a2.5 2.5 0 1 1 5 0v3.661a2.5 2.5 0 0 1-2.5 2.5zm0-13.661a2.5 2.5 0 0 1-2.5-2.5V167.49H29.46a2.5 2.5 0 1 1 0-5h53.58c1.93 0 3.5 1.57 3.5 3.5v46.849a2.5 2.5 0 0 1-2.5 2.5zM171.96 229a2.5 2.5 0 0 1-2.5-2.5v-3.661a2.5 2.5 0 1 1 5 0v3.661a2.5 2.5 0 0 1-2.5 2.5zm0-13.661a2.5 2.5 0 0 1-2.5-2.5V165.99c0-1.93 1.57-3.5 3.5-3.5h53.58a2.5 2.5 0 1 1 0 5h-52.08v45.349a2.5 2.5 0 0 1-2.5 2.5z"/><path fill="#AFAFAF" d="M84.04 229a2.5 2.5 0 0 1-2.5-2.5v-3.661a2.5 2.5 0 1 1 5 0v3.661a2.5 2.5 0 0 1-2.5 2.5zm0-13.661a2.5 2.5 0 0 1-2.5-2.5V167.49H29.46a2.5 2.5 0 1 1 0-5h53.58c1.93 0 3.5 1.57 3.5 3.5v46.849a2.5 2.5 0 0 1-2.5 2.5zM171.96 229a2.5 2.5 0 0 1-2.5-2.5v-3.661a2.5 2.5 0 1 1 5 0v3.661a2.5 2.5 0 0 1-2.5 2.5zm0-13.661a2.5 2.5 0 0 1-2.5-2.5V165.99c0-1.93 1.57-3.5 3.5-3.5h53.58a2.5 2.5 0 1 1 0 5h-52.08v45.349a2.5 2.5 0 0 1-2.5 2.5z"/><path d="M63.649 64.02a2.497 2.497 0 0 0 3.53 0l6.504-6.504C78.588 61.603 84.7 63.83 91.16 63.83c14.997 0 27.33-12.1 27.33-27.33 0-15.016-12.116-27.33-27.33-27.33-15.028 0-27.33 12.129-27.33 27.33 0 6.461 2.228 12.583 6.317 17.482l-6.498 6.498a2.5 2.5 0 0 0 0 3.54zM91.16 14.17c12.29.02 22.31 10.04 22.33 22.33-.021 12.29-10.04 22.31-22.33 22.33-12.29-.02-22.31-10.04-22.33-22.33.02-12.29 10.04-22.31 22.33-22.33z"/><path d="M91.16 45.31a2.5 2.5 0 0 0-2.5 2.5v.72a2.5 2.5 0 0 0 5 0v-.72a2.5 2.5 0 0 0-2.5-2.5zM84.76 31.65a2.5 2.5 0 0 0 2.5-2.5c.01-2.1 1.75-3.81 3.91-3.82 1.997 0 3.89 1.735 3.89 3.82 0 1.46-.83 2.77-2.18 3.42-2.6 1.24-4.22 3.7-4.22 6.42v.55a2.5 2.5 0 0 0 5 0v-.55c0-.77.5-1.47 1.39-1.92 3.04-1.46 5.01-4.57 5.01-7.92-.04-4.84-3.997-8.779-8.899-8.82-4.9.01-8.891 3.97-8.9 8.82a2.5 2.5 0 0 0 2.499 2.5z"/><circle cx="195.63" cy="11.67" r="2.5"/><path d="M229.63 21.5h-84.5a2.5 2.5 0 0 0 0 5h84.5c1.37 0 2.5-1.12 2.5-2.5s-1.13-2.5-2.5-2.5zM145.125 39h14a2.5 2.5 0 1 0 0-5h-14a2.5 2.5 0 1 0 0 5zM232.125 36.5a2.5 2.5 0 0 0-2.5-2.5h-60.5a2.5 2.5 0 1 0 0 5h60.5a2.5 2.5 0 0 0 2.5-2.5zM145.12 51.5H197a2.5 2.5 0 0 0 0-5h-51.88c-1.37 0-2.5 1.12-2.5 2.5s1.13 2.5 2.5 2.5z"/><circle cx="135.33" cy="176.67" r="2.5"/><circle cx="5.04" cy="138.74" r="2.5"/><path d="M253.46 248.57V89.15c0-5.63-4.58-10.21-10.21-10.21-5.302 0-9.67 4.063-10.161 9.239a19.952 19.952 0 0 0-5.306-4.29c5.962-3.362 10.007-9.749 10.007-17.069 0-1.056-.087-2.103-.253-3.133 6.045-.872 10.713-6.076 10.713-12.357V21.67c0-6.89-5.61-12.5-12.5-12.5h-30.12a2.5 2.5 0 0 0 0 5h30.12c4.13.01 7.49 3.37 7.5 7.5v29.66a7.496 7.496 0 0 1-7.17 7.49c-3.105-6.967-10.135-11.59-17.87-11.59-7.679 0-14.732 4.525-17.88 11.6H139c-4.13-.01-7.49-3.37-7.5-7.5V21.67c.01-4.13 3.37-7.49 7.5-7.5h46.63a2.5 2.5 0 0 0 0-5H139c-6.891 0-12.5 5.61-12.5 12.5v29.66c0 6.89 5.609 12.5 12.5 12.5h35.17v5.34c0 4.13 3.36 7.5 7.5 7.5h6.96c1.37 0 2.49-1.12 2.49-2.5s-1.12-2.5-2.49-2.5h-6.96c-1.38 0-2.5-1.13-2.5-2.5v-5.34h19.685c-1.285 8.348 2.866 16.163 9.772 20.057-6.108 3.385-10.257 9.893-10.257 17.353v16.51h-28.79c-6.774.013-11.215 7.185-8.124 13.25H154.5v-9.07l7.29-40.04c.25-1.36-.65-2.66-2.01-2.91a2.526 2.526 0 0 0-2.91 2.01l-6.957 38.21h-38.014c-6.032 0-10.15 6.235-7.673 11.8H94.54c3.112-6.095-1.386-13.25-8.12-13.25H57.63v-16.51c0-7.459-4.149-13.967-10.258-17.352 5.966-3.361 10.008-9.746 10.008-17.068 0-10.8-8.78-19.59-19.58-19.59s-19.59 8.79-19.59 19.59c0 7.32 4.045 13.703 10.01 17.065a19.965 19.965 0 0 0-5.31 4.293c-.491-5.175-4.859-9.238-10.161-9.238-5.63 0-10.21 4.58-10.21 10.21v39.59a2.5 2.5 0 0 0 5 0V89.15c.01-2.87 2.34-5.2 5.21-5.21 2.87.01 5.2 2.34 5.21 5.21v76.18c0 6.89 5.609 12.5 12.5 12.5H68.7c1.369 0 2.5 1.13 2.5 2.5v9.84H7.54v-41.43a2.5 2.5 0 0 0-5 0v99.83a2.5 2.5 0 0 0 2.5 2.5h245.92a2.5 2.5 0 0 0 2.5-2.5zm-5-2.5h-7.331l-.009-50.9h7.34v50.9zM154.229 233c-6.797 0-11.37 6.972-8.307 13.07h-8.092v-59.4a2.5 2.5 0 0 0-5 0v59.4h-9.66v-96.9h9.66v17.5a2.5 2.5 0 0 0 5 0v-17.5h40.33c6.726 0 11.178-7.111 8.106-13.17h12.104v17.49h-25.41c-6.891 0-12.5 5.61-12.5 12.5V233h-6.231zm-52.459 0h-6.23v-67.01c0-6.89-5.61-12.5-12.5-12.5H57.63V136h12.104c-3.066 6.05 1.372 13.17 8.096 13.17h40.34v96.9h-8.097c3.065-6.097-1.506-13.07-8.303-13.07zm76.39-97c2.25 0 4.09 1.84 4.09 4.09 0 2.24-1.84 4.08-4.09 4.08H77.83c-2.24 0-4.08-1.84-4.08-4.08 0-2.25 1.84-4.09 4.08-4.09h100.33zm-12.7 29.99c.01-4.13 3.37-7.49 7.5-7.5h60.08v6.84c-.01 4.13-3.37 7.49-7.5 7.5H187.3c-4.13 0-7.5 3.37-7.5 7.5V233h-14.34v-67.01zm19.34 29.18h7.33v50.9h-7.33v-50.9zm12.33 0h39v50.9h-39v-50.9zm40.91-106.02c0-2.87 2.34-5.2 5.21-5.21 2.87.01 5.2 2.34 5.21 5.21v101.02H184.8v-9.84a2.5 2.5 0 0 1 2.5-2.5h38.24c6.89 0 12.5-5.61 12.5-12.5V89.15zm-34.42-22.33c0-7.93 6.41-14.59 14.58-14.59h.02c8.116 0 14.57 6.61 14.57 14.59-.01 8.03-6.55 14.58-14.58 14.59-8.03-.01-14.58-6.56-14.59-14.59zm-.25 34.42c.01-8.16 6.67-14.82 14.84-14.83 8.16.01 14.81 6.67 14.83 14.83v52.25h-29.67V136h15.279c5.021 0 9.11-4.1 9.12-9.12V107.2a2.5 2.5 0 0 0-5 0v10.55h-9.06V107.2a2.5 2.5 0 0 0-5 0v10.55h-5.34v-16.51zm-37.91 25.63c0-2.27 1.85-4.12 4.12-4.12h53.189v4.13c-.01 2.27-1.85 4.12-4.12 4.12H169.58a4.13 4.13 0 0 1-4.12-4.13zm-56.96.73c0-1.87 1.53-3.4 3.399-3.4H149.5v6.8h-37.601a3.41 3.41 0 0 1-3.399-3.4zm-17.96-.72c-.01 2.27-1.851 4.12-4.12 4.12H37.35c-2.27 0-4.12-1.85-4.12-4.12v-4.13h53.19a4.143 4.143 0 0 1 4.12 4.13zM23.21 66.82c.01-8.03 6.56-14.58 14.59-14.59 8.02.01 14.57 6.56 14.58 14.59-.01 8.03-6.561 14.57-14.58 14.59-8.03-.02-14.58-6.56-14.59-14.59zm14.58 19.59h.01c8.16.02 14.81 6.67 14.83 14.83v16.51h-5.34V107.2a2.5 2.5 0 0 0-2.5-2.5c-1.37 0-2.49 1.11-2.5 2.49v10.56h-9.061V107.2a2.5 2.5 0 0 0-5 0v19.68c0 5.02 4.09 9.11 9.12 9.12h15.28v17.49H22.96v-52.25c.01-8.16 6.67-14.81 14.83-14.83zm30.91 86.42H30.46c-4.13-.01-7.49-3.37-7.5-7.5v-6.84h60.08c4.13.01 7.49 3.37 7.5 7.5V233H76.2v-52.67c0-4.13-3.37-7.5-7.5-7.5zm2.5 22.34v50.9h-7.341v-50.9H71.2zm-12.33 50.9h-39v-50.9h39v50.9zm-44-50.9v50.9H7.54v-50.9h7.33zm61.33 50.9V238h25.58c2.14 0 3.989 1.53 4.22 3.49 0 0 0 .01.01.01a4.05 4.05 0 0 1-4.01 4.57H76.2zm73.8-4.57v-.01c.229-1.96 2.08-3.49 4.229-3.49h25.57v8.07H154c-2.497 0-4.366-2.272-4-4.57z"/></svg>