<svg xmlns="http://www.w3.org/2000/svg" viewBox="0 0 256 256" xml:space="preserve"><path fill="#72C2E9" d="M5 15.878h246v224.243H5z"/><path fill="#EFEFEF" d="M251 240.122H5V15.878h52.5L76 42.702h175z"/><path fill="#FC5D3D" d="M224.176 15.878H251v26.824h-26.824z"/><path fill="#F0C020" d="M117.342 116.215c0 16.165-8.22 30.413-20.707 38.799-7.431 4.982-16.365 7.888-25.979 7.888s-18.548-2.906-25.979-7.888C32.19 146.628 23.97 132.38 23.97 116.215c0-25.78 20.906-46.687 46.687-46.687s46.685 20.907 46.685 46.687z"/><path fill="#72C2E9" d="M96.634 146.728v8.286c-7.431 4.982-16.365 7.888-25.979 7.888s-18.548-2.906-25.979-7.888v-8.286c0-8.627 6.999-15.626 15.626-15.626h20.707c8.626 0 15.625 6.999 15.625 15.626z"/><path fill="#7C7B7A" d="M84.269 107.815H57.447l.006-7.762a4.73 4.73 0 0 1 4.731-4.727h13.84c1.679 0 3.332-.406 4.821-1.183l5.781-3.018c2.923 5.838 1.702 12.367-2.357 16.69z"/><path fill="#FFB69F" d="M70.855 131.099c-7.405 0-13.408-6.003-13.408-13.408v-9.876h26.817v9.876c0 7.405-6.003 13.408-13.409 13.408z"/><path fill="#7C7B7A" d="M84.269 107.815H57.447l.006-7.762a4.73 4.73 0 0 1 4.731-4.727h13.84c1.679 0 3.332-.406 4.821-1.183l5.781-3.018c2.923 5.838 1.702 12.367-2.357 16.69z"/><path fill="#FFB69F" d="M70.855 131.099c-7.405 0-13.408-6.003-13.408-13.408v-9.876h26.817v9.876c0 7.405-6.003 13.408-13.409 13.408z"/><path fill="#FC5D3D" d="M183.609 115.525h-45.5V93.149h45.5a5 5 0 0 1 5 5v12.376a5 5 0 0 1-5 5z"/><path fill="#13BF6C" d="M183.609 193.752h-45.5v-22.376h45.5a5 5 0 0 1 5 5v12.376a5 5 0 0 1-5 5z"/><path fill="#F0C020" d="M214.609 154.638h-76.5v-22.376h76.5a5 5 0 0 1 5 5v12.376a5 5 0 0 1-5 5z"/><path fill="#F8E5B0" d="M93.673 142.485a2.5 2.5 0 0 1-.02-3.535c6.012-6.079 9.323-14.152 9.323-22.732 0-8.65-3.358-16.772-9.455-22.87a2.499 2.499 0 1 1 3.535-3.535c7.042 7.042 10.92 16.419 10.92 26.405 0 9.905-3.824 19.228-10.769 26.248a2.498 2.498 0 0 1-3.534.019z"/><path fill="#C5E5FE" d="M65.733 153.212a2.5 2.5 0 0 1-2.152-2.805 2.492 2.492 0 0 1 2.805-2.152c9.714 1.278 19.717-1.754 27.277-9.314a2.499 2.499 0 1 1 3.535 3.535c-8.629 8.629-20.148 12.224-31.465 10.736zm-10.282-2.891a37.158 37.158 0 0 1-3.811-1.964 2.5 2.5 0 1 1 2.543-4.305 32.264 32.264 0 0 0 3.297 1.698 2.502 2.502 0 0 1 1.271 3.3 2.5 2.5 0 0 1-3.3 1.271z"/><path d="M45.5 35a2.5 2.5 0 0 0 0-5H25.359a2.5 2.5 0 0 0 0 5H45.5z"/><circle cx="5" cy="116.12" r="2.5"/><path d="M251 13.38H5a2.503 2.503 0 0 0-2.5 2.5v90.24a2.5 2.5 0 0 0 5 0V18.38h48.684l17.755 25.74A2.505 2.505 0 0 0 76 45.2h172.5v192.42H7.5v-111.5c0-1.37-1.12-2.5-2.5-2.5s-2.5 1.13-2.5 2.5v114c0 1.396 1.122 2.5 2.5 2.5h246c1.381 0 2.5-1.108 2.5-2.5V15.88c0-1.377-1.103-2.5-2.5-2.5zm-188.737 5H221.68V40.2H77.31L62.263 18.38zM226.67 40.2V18.38h21.83V40.2h-21.83z"/><path d="M243.52 23.359c-.939-.949-2.59-.949-3.54 0l-2.395 2.395-2.395-2.395c-.939-.949-2.59-.949-3.529 0a2.497 2.497 0 0 0-.011 3.53l2.4 2.4-2.4 2.4c-.959.961-.99 2.552.011 3.53.94.961 2.542.987 3.529 0l2.395-2.395 2.395 2.395c1.04 1.016 2.627.934 3.54 0 .979-.977.97-2.56 0-3.53l-2.4-2.4 2.4-2.4a2.497 2.497 0 0 0 0-3.53zM70.66 165.399c27.295 0 49.18-22.149 49.18-49.18 0-4.04-.49-8.05-1.45-11.92-.33-1.32-1.72-2.16-3.03-1.82a2.498 2.498 0 0 0-1.829 3.011v.01c.869 3.49 1.31 7.09 1.31 10.72 0 13.102-5.802 25.395-15.705 33.762v-3.254c0-9.546-7.421-17.373-16.795-18.059 2.733-2.858 4.424-6.721 4.424-10.979v-8.942c4.4-5.301 5.2-12.581 2.096-18.739a2.498 2.498 0 0 0-3.39-1.1c-6.162 3.219-6.999 3.92-9.45 3.92h-13.83c-3.989 0-7.229 3.239-7.239 7.22 0 4.44-.003 8.948-.003 17.641 0 4.248 1.684 8.103 4.406 10.959-9.553.498-17.178 8.403-17.178 18.078v3.254c-9.904-8.367-15.706-20.66-15.706-33.762 0-24.411 19.75-44.19 44.19-44.19 13.51 0 26.1 6.07 34.55 16.65.83 1.03 2.47 1.22 3.51.39a2.496 2.496 0 0 0 .4-3.51c-9.086-11.379-22.991-18.53-38.46-18.53-27.15 0-49.19 21.992-49.19 49.19-.001 27.218 22.051 49.18 49.189 49.18zm-10.713-55.08h21.816v7.371c0 6.015-4.894 10.908-10.908 10.908s-10.908-4.894-10.908-10.908v-7.371zm2.242-12.489h13.83c3.749 0 5.879-1.418 9.28-3.19 1.013 3.633.221 7.636-2.176 10.675H59.95v-5.265c0-1.22 1.01-2.22 2.239-2.22zm-1.887 35.772h20.707c7.237 0 13.126 5.889 13.126 13.126v6.924A43.989 43.989 0 0 1 70.66 160.4c-8.369 0-16.455-2.332-23.484-6.748v-6.924c0-7.238 5.888-13.126 13.126-13.126z"/><path d="M113.63 97.779a2.501 2.501 0 0 0 1.13-3.35c-.6-1.21-2.13-1.74-3.35-1.14a2.512 2.512 0 0 0-1.141 3.34l.011.01c.63 1.29 2.168 1.718 3.35 1.14zM70.556 123.643a7.052 7.052 0 0 0 6.817-5.23 2.502 2.502 0 0 0-4.834-1.282c-.235.891-1.051 1.512-1.983 1.512s-1.748-.621-1.983-1.512a2.501 2.501 0 0 0-4.834 1.282 7.052 7.052 0 0 0 6.817 5.23zM104.95 173.81H36.37a2.517 2.517 0 0 0-2.511 2.5c0 1.38 1.131 2.51 2.511 2.51h68.58c1.38 0 2.5-1.13 2.5-2.51 0-1.371-1.12-2.5-2.5-2.5zM104.95 187.229H36.359c-1.369 0-2.489 1.12-2.489 2.5s1.12 2.5 2.489 2.5h68.591a2.5 2.5 0 0 0 0-5zM104.939 214.06h-68.58c-1.369 0-2.5 1.12-2.5 2.49 0 1.38 1.131 2.51 2.5 2.51h68.58c1.38 0 2.511-1.13 2.511-2.51 0-1.37-1.131-2.49-2.511-2.49zM138.109 67.029a2.5 2.5 0 0 0-2.5 2.5V217.37c0 1.386 1.114 2.5 2.5 2.5h43.921a2.5 2.5 0 0 0 0-5h-41.421v-18.62h43c4.131 0 7.49-3.37 7.5-7.5v-12.38c-.01-4.13-3.369-7.49-7.5-7.49h-43v-11.741h74c4.136 0 7.5-3.364 7.5-7.5v-12.376c0-4.136-3.364-7.5-7.5-7.5h-74V118.03h43c4.131-.01 7.5-3.369 7.5-7.5V98.15c0-4.14-3.369-7.5-7.5-7.5h-43V69.53a2.5 2.5 0 0 0-2.5-2.501zm45.5 106.841c1.381.01 2.5 1.13 2.5 2.5v12.38a2.5 2.5 0 0 1-2.5 2.5h-43v-17.38h43zm31-39.107c1.379 0 2.5 1.121 2.5 2.5v12.376c0 1.379-1.121 2.5-2.5 2.5h-74v-17.376h74zm-31-39.114c1.37 0 2.5 1.12 2.5 2.5v12.38c0 1.37-1.13 2.49-2.5 2.5h-43v-17.38h43z"/><circle cx="192.03" cy="217.37" r="2.5"/><path d="M199.53 217.37a2.5 2.5 0 0 0 2.5 2.5h30a2.5 2.5 0 0 0 0-5h-30a2.5 2.5 0 0 0-2.5 2.5z"/></svg>