<svg width="119" height="110" viewBox="0 0 119 110" fill="none" xmlns="http://www.w3.org/2000/svg">
<g clip-path="url(#clip0_356_3236)">
<path d="M89.9401 111L92 80L4.5 81L7 109.5L89.9401 111Z" fill="#06DAFF" stroke="#19CAF7"/>
<path d="M29.5 34.1481V22L68.5 26L67 34.1481L70.5 34.5L72 38L69.5 42L67 45.284L60 56.4198L56 61.5L48 63L43 62L38.5 58.4444L29 45.5L26 38.7037L25.5 35.5L29.5 34.1481Z" fill="#FFDBAC"/>
<path fill-rule="evenodd" clip-rule="evenodd" d="M47.9417 96.9751C48.9314 96.9734 49.8994 97.2659 50.7232 97.8156C51.5471 98.3654 52.1896 99.1477 52.5696 100.064C52.9496 100.979 53.0499 101.988 52.8579 102.961C52.6659 103.934 52.1902 104.828 51.4909 105.53C50.7917 106.232 49.9004 106.71 48.9298 106.904C47.9592 107.098 46.9529 107 46.0384 106.62C45.1238 106.241 44.342 105.599 43.7919 104.774C43.2419 103.95 42.9483 102.98 42.9483 101.988C42.9483 100.66 43.4741 99.3864 44.4103 98.4466C45.3465 97.5067 46.6165 96.9775 47.9417 96.9751ZM35.1053 68.4099C41.6084 75.7325 56.3384 74.4434 61.7785 68.4099C60.4173 66.7892 59.1583 65.0851 58.0089 63.3073L57.2585 62.2152C54.5903 64.0232 51.43 64.9612 48.2097 64.9008C44.5901 64.9274 41.0801 63.6576 38.3122 61.32C37.5708 63.5401 36.5257 66.5926 35.4359 68.0518C35.3417 68.1746 35.2304 68.2831 35.1053 68.3741V68.4099ZM8.93246 81.39C8.42977 81.417 7.93845 81.5502 7.4907 81.7808C7.04294 82.0114 6.64886 82.3342 6.33428 82.728C6.0197 83.1219 5.79171 83.5779 5.66527 84.0662C5.53882 84.5545 5.51677 85.0641 5.60056 85.5616L8.75381 110H0.714355C0.714355 96.9483 -3.90386 80.9424 9.72748 73.2976C14.8013 70.4598 27.8788 69.502 33.5779 65.7512C34.5317 63.6979 35.3406 61.5801 35.9986 59.4133C36.0611 59.2163 35.954 59.5386 36.0522 59.2432C34.0061 56.9027 32.1819 54.3763 30.6033 51.6968L25.9046 44.2399C24.1806 41.6708 23.2874 39.3164 23.2248 37.3918C23.195 36.5364 23.3695 35.6862 23.734 34.9121C24.0882 34.1471 24.6481 33.4962 25.3508 33.0323C25.7068 32.7977 26.0872 32.6026 26.4853 32.4504C26.1602 27.9822 26.0856 23.4992 26.2619 19.0227C26.3698 17.9906 26.564 16.9695 26.8426 15.9701C28.5845 9.84704 33.8458 5.37113 39.8844 3.2764C42.8143 2.26484 41.6798 -0.152149 44.6634 3.169e-05C51.6845 0.38496 62.5288 4.91458 66.6647 9.72171C72.4888 16.4535 70.9881 24.7429 70.7916 32.9965C71.3919 33.1556 71.9377 33.4754 72.3705 33.9217C72.8032 34.368 73.1066 34.9239 73.2481 35.5298C73.6233 37.0158 73.2481 39.1105 71.9528 41.9662C71.9528 41.9662 71.9528 42.0646 71.8724 42.1184L66.5128 50.9538C64.4494 54.3645 62.3502 57.7751 59.5542 60.4069L59.4113 60.5323L60.3046 61.7855C61.1978 63.1551 62.2876 64.7128 63.2702 65.9302C69.0944 69.5109 81.895 70.5315 86.9062 73.3244C99.412 80.3247 95.1511 97.6107 95.839 110.027H87.8799L91.0331 85.5884C91.1169 85.091 91.0949 84.5814 90.9684 84.0931C90.842 83.6048 90.614 83.1487 90.2994 82.7549C89.9848 82.361 89.5908 82.0382 89.143 81.8076C88.6953 81.577 88.2039 81.4439 87.7012 81.4169L8.93246 81.39ZM29.1919 34.6525C28.3531 34.6402 27.5264 34.8535 26.7979 35.2702C26.5052 35.467 26.2707 35.7391 26.119 36.058C25.9543 36.4574 25.8811 36.8887 25.9046 37.3202C25.9493 38.7525 26.6997 40.6234 28.1468 42.7808L32.8454 50.2735C34.7302 53.2723 36.7132 56.3339 39.1608 58.5808C41.5865 60.9539 44.8465 62.2755 48.2365 62.26C49.9983 62.2926 51.7491 61.9739 53.3869 61.3223C55.0247 60.6707 56.5169 59.6992 57.7766 58.4644C60.3135 56.0832 62.3055 52.8337 64.2796 49.5752L69.5678 40.8382C70.5593 38.5824 70.9166 37.0695 70.6933 36.1923C70.5593 35.6641 69.9787 35.4045 68.9872 35.3508C68.7728 35.3508 68.5584 35.3508 68.344 35.3508C68.0971 35.3379 67.8496 35.3379 67.6026 35.3508C67.4662 35.3689 67.3281 35.3689 67.1917 35.3508C66.7079 35.3726 66.2231 35.3456 65.7446 35.2702L67.5311 27.2136C54.0785 29.3352 44.0113 19.3181 29.7904 25.2084L30.8176 34.7242C30.2747 34.7554 29.73 34.7315 29.1919 34.6525Z" fill="black"/>
</g>
<g clip-path="url(#clip1_356_3236)">
<path d="M114.536 13.471C114.53 13.4148 114.521 13.3556 114.521 13.2932C114.521 13.2339 114.524 13.1746 114.536 13.1153V9.21871C111.756 8.95976 108.89 9.25926 106.386 10.1921C104.047 11.0656 102.028 12.4976 100.718 14.5536V36.7509C102.758 35.4125 104.844 34.3113 106.986 33.5625C109.427 32.7077 111.937 32.3021 114.536 32.5049V13.471ZM98.3149 36.5201V14.5161C97.0549 12.3323 95.0173 10.8722 92.7195 10.0049C90.1138 9.02528 87.1843 8.80377 84.6326 9.15943L84.4961 32.5735C87.2795 32.4737 90.0059 32.8231 92.5671 33.6467C94.6079 34.2988 96.5408 35.2566 98.3149 36.5201Z" fill="#F1C051"/>
<path d="M82.1011 33.7246L82.2122 14.4785H80V38.9689C83.0374 38.1984 86.0842 37.7085 89.1565 37.6867C91.9907 37.6711 94.825 38.058 97.6655 39.0033C95.9009 37.5994 93.9331 36.5636 91.832 35.8928C89.1882 35.0442 86.3286 34.7635 83.396 35.0099C82.7327 35.063 82.155 34.5794 82.0979 33.9305C82.0916 33.8587 82.0916 33.7901 82.1011 33.7246ZM101.884 38.8223C104.54 38.0018 107.19 37.6649 109.844 37.6805C112.913 37.6961 115.963 38.1921 119 38.9627V14.4785H116.943V33.8306C116.943 34.4827 116.404 35.013 115.74 35.013C115.645 35.013 115.553 35.0037 115.464 34.9818C112.833 34.5763 110.285 34.9132 107.796 35.7836C105.791 36.4856 103.823 37.537 101.884 38.8223Z" fill="#2E2E2E"/>
</g>
<defs>
<clipPath id="clip0_356_3236">
<rect width="96" height="110" fill="white"/>
</clipPath>
<clipPath id="clip1_356_3236">
<rect width="39" height="30" fill="white" transform="translate(80 9)"/>
</clipPath>
</defs>
</svg>
