<svg width="147" height="118" viewBox="0 0 147 118" fill="none" xmlns="http://www.w3.org/2000/svg">
<path d="M62.6586 20.1775C63.4193 20.1775 64.0359 19.5871 64.0359 18.8588C64.0359 18.1305 63.4193 17.54 62.6586 17.54C61.8979 17.54 61.2812 18.1305 61.2812 18.8588C61.2812 19.5871 61.8979 20.1775 62.6586 20.1775Z" fill="#FF7D5F"/>
<path d="M69.7953 25.7498C70.556 25.7498 71.1726 25.1593 71.1726 24.431C71.1726 23.7027 70.556 23.1123 69.7953 23.1123C69.0346 23.1123 68.418 23.7027 68.418 24.431C68.418 25.1593 69.0346 25.7498 69.7953 25.7498Z" fill="#FF7D5F"/>
<path d="M78.1327 16.4305C78.6706 15.9155 78.6706 15.0805 78.1327 14.5655C77.5948 14.0505 76.7227 14.0505 76.1848 14.5656C75.647 15.0806 75.647 15.9155 76.1849 16.4305C76.7228 16.9455 77.5948 16.9455 78.1327 16.4305Z" fill="#FF7D5F"/>
<path d="M82.3501 24.3305C83.0529 24.0518 83.3866 23.2803 83.0955 22.6075C82.8044 21.9346 81.9987 21.6151 81.2959 21.8938C80.5932 22.1725 80.2594 22.9439 80.5505 23.6168C80.8416 24.2897 81.6473 24.6092 82.3501 24.3305Z" fill="#FF7D5F"/>
<path d="M89.6849 31.4074C89.8556 30.6976 89.3931 29.9898 88.6518 29.8263C87.9105 29.6629 87.1712 30.1058 87.0005 30.8155C86.8298 31.5252 87.2923 32.2331 88.0336 32.3965C88.7749 32.56 89.5142 32.1171 89.6849 31.4074Z" fill="#FF7D5F"/>
<path d="M69.1533 23.2715L63.9746 19.2278C63.9232 19.396 63.8371 19.5527 63.7213 19.6886C63.6056 19.8245 63.4626 19.9368 63.3008 20.0189L68.4796 24.0627C68.531 23.8944 68.6171 23.7377 68.7329 23.6018C68.8486 23.4659 68.9915 23.3536 69.1533 23.2715ZM80.627 23.7575C80.5139 23.5662 80.4443 23.3482 80.4443 23.1127C80.4443 22.9835 80.4698 22.8612 80.5058 22.7432L70.9901 23.7867C71.103 23.9781 71.1728 24.196 71.1728 24.4314C71.1728 24.5607 71.1473 24.683 71.1112 24.801L80.627 23.7575ZM87.9821 29.843L83.019 23.7523C82.9299 23.9055 82.8096 24.04 82.6653 24.148C82.5209 24.2559 82.3555 24.3352 82.1787 24.3809L87.1414 30.4716C87.2307 30.3184 87.351 30.1839 87.4954 30.0759C87.6398 29.968 87.8053 29.8888 87.9821 29.843ZM76.0521 16.2795C75.8827 16.0604 75.779 15.7919 75.779 15.4983C75.779 15.4259 75.7896 15.3564 75.8013 15.2871L63.7631 18.0776C63.9326 18.2967 64.0362 18.5652 64.0362 18.8589C64.0362 18.9312 64.0256 19.0007 64.014 19.0699L76.0521 16.2795ZM78.2562 16.2846C78.1466 16.4251 78.0086 16.5431 77.8505 16.6316C77.6924 16.7201 77.5173 16.7773 77.3357 16.7998L80.7217 22.3266C80.8313 22.1861 80.9693 22.0681 81.1274 21.9796C81.2855 21.8912 81.4606 21.834 81.6422 21.8114L78.2562 16.2846ZM83.2216 30.7911H82.7262V30.3168C82.7262 30.1777 82.6685 30.0444 82.5659 29.9461C82.4632 29.8478 82.3239 29.7925 82.1787 29.7925C82.0335 29.7925 81.8942 29.8478 81.7915 29.9461C81.6888 30.0444 81.6311 30.1777 81.6311 30.3168V30.7911H81.1358C80.9905 30.7911 80.8513 30.8463 80.7486 30.9446C80.6459 31.0429 80.5882 31.1763 80.5882 31.3153C80.5882 31.4544 80.6459 31.5877 80.7486 31.686C80.8513 31.7843 80.9905 31.8396 81.1358 31.8396H81.6311V32.3138C81.6311 32.4528 81.6888 32.5861 81.7915 32.6845C81.8942 32.7828 82.0335 32.838 82.1787 32.838C82.3239 32.838 82.4632 32.7828 82.5659 32.6845C82.6685 32.5861 82.7262 32.4528 82.7262 32.3138V31.8396H83.2216C83.3668 31.8396 83.5061 31.7843 83.6088 31.686C83.7115 31.5877 83.7692 31.4544 83.7692 31.3153C83.7692 31.1763 83.7115 31.0429 83.6088 30.9446C83.5061 30.8463 83.3668 30.7911 83.2216 30.7911ZM79.4304 33.4284H78.935V32.9541C78.935 32.8151 78.8773 32.6817 78.7746 32.5834C78.6719 32.4851 78.5326 32.4299 78.3874 32.4299C78.2422 32.4299 78.1029 32.4851 78.0003 32.5834C77.8976 32.6817 77.8399 32.8151 77.8399 32.9541V33.4284H77.3445C77.1993 33.4284 77.06 33.4836 76.9573 33.582C76.8546 33.6803 76.7969 33.8136 76.7969 33.9527C76.7969 34.0917 76.8546 34.225 76.9573 34.3234C77.06 34.4217 77.1993 34.4769 77.3445 34.4769H77.8399V34.9511C77.8399 35.0901 77.8976 35.2235 78.0003 35.3218C78.1029 35.4201 78.2422 35.4753 78.3874 35.4753C78.5326 35.4753 78.6719 35.4201 78.7746 35.3218C78.8773 35.2235 78.935 35.0901 78.935 34.9511V34.4769H79.4304C79.5756 34.4769 79.7148 34.4217 79.8175 34.3234C79.9202 34.225 79.9779 34.0917 79.9779 33.9527C79.9779 33.8136 79.9202 33.6803 79.8175 33.582C79.7148 33.4836 79.5756 33.4284 79.4304 33.4284ZM78.6829 30.0566C78.6852 30.1624 78.6654 30.2676 78.6247 30.366C78.5839 30.4644 78.5231 30.554 78.4457 30.6296C78.3684 30.7052 78.276 30.7653 78.1741 30.8063C78.0722 30.8473 77.9628 30.8684 77.8522 30.8684C77.7417 30.8684 77.6322 30.8472 77.5303 30.8062C77.4284 30.7652 77.3361 30.7051 77.2587 30.6295C77.1814 30.5539 77.1205 30.4643 77.0798 30.3659C77.0391 30.2675 77.0193 30.1623 77.0216 30.0564C77.0261 29.8483 77.1156 29.6502 77.2709 29.5046C77.4262 29.3589 77.6349 29.2774 77.8523 29.2774C78.0697 29.2774 78.2784 29.359 78.4337 29.5047C78.589 29.6503 78.6785 29.8485 78.6829 30.0566Z" fill="#FFDA88"/>
<path d="M77.687 30.0561C77.6871 29.9014 77.7343 29.75 77.823 29.6206C77.9117 29.4912 78.0379 29.3894 78.1861 29.3277C78.0815 29.2835 77.9685 29.2608 77.8543 29.2607C77.6339 29.2607 77.4226 29.3446 77.2668 29.4937C77.111 29.6429 77.0234 29.8453 77.0234 30.0562C77.0234 30.2672 77.111 30.4695 77.2668 30.6187C77.4226 30.7679 77.6339 30.8517 77.8543 30.8517C77.9685 30.8517 78.0815 30.8289 78.1861 30.7848C78.0379 30.723 77.9117 30.6211 77.823 30.4917C77.7344 30.3623 77.6871 30.2109 77.687 30.0561Z" fill="#FFE2A9"/>
<path d="M66.777 29.3691H66.2816V28.8949C66.2816 28.7558 66.2239 28.6225 66.1212 28.5242C66.0186 28.4259 65.8793 28.3706 65.7341 28.3706C65.5889 28.3706 65.4496 28.4259 65.3469 28.5242C65.2442 28.6225 65.1865 28.7558 65.1865 28.8949V29.3691H64.6911C64.5459 29.3691 64.4067 29.4243 64.304 29.5226C64.2013 29.6209 64.1436 29.7543 64.1436 29.8933C64.1436 30.0324 64.2013 30.1657 64.304 30.264C64.4067 30.3623 64.5459 30.4176 64.6911 30.4176H65.1865V30.8918C65.1865 31.0308 65.2442 31.1641 65.3469 31.2625C65.4496 31.3608 65.5889 31.416 65.7341 31.416C65.8793 31.416 66.0186 31.3608 66.1212 31.2625C66.2239 31.1641 66.2816 31.0308 66.2816 30.8918V30.4176H66.777C66.9222 30.4176 67.0615 30.3623 67.1642 30.264C67.2669 30.1657 67.3246 30.0324 67.3246 29.8933C67.3246 29.7543 67.2669 29.6209 67.1642 29.5226C67.0615 29.4243 66.9222 29.3691 66.777 29.3691ZM89.0253 10.5229H88.53V10.0487C88.53 9.90962 88.4723 9.77628 88.3696 9.67796C88.267 9.57965 88.1277 9.52441 87.9825 9.52441C87.8372 9.52441 87.698 9.57965 87.5953 9.67796C87.4926 9.77628 87.4349 9.90962 87.4349 10.0487V10.5229H86.9395C86.7943 10.5229 86.655 10.5781 86.5524 10.6764C86.4497 10.7747 86.392 10.9081 86.392 11.0471C86.392 11.1861 86.4497 11.3195 86.5524 11.4178C86.655 11.5161 86.7943 11.5714 86.9395 11.5714H87.4349V12.0455C87.4349 12.1846 87.4926 12.3179 87.5953 12.4162C87.698 12.5146 87.8372 12.5698 87.9825 12.5698C88.1277 12.5698 88.267 12.5146 88.3696 12.4162C88.4723 12.3179 88.53 12.1846 88.53 12.0455V11.5714H89.0253C89.1705 11.5713 89.3098 11.5161 89.4125 11.4178C89.5152 11.3195 89.5729 11.1861 89.5729 11.0471C89.5729 10.9081 89.5152 10.7747 89.4125 10.6764C89.3098 10.5781 89.1705 10.5229 89.0253 10.5229ZM85.2338 12.4513H84.7385V11.9771C84.7385 11.8381 84.6808 11.7048 84.5782 11.6064C84.4755 11.5081 84.3362 11.4529 84.191 11.4529C84.0458 11.4529 83.9065 11.5081 83.8038 11.6064C83.7011 11.7048 83.6434 11.8381 83.6434 11.9771V12.4513H83.1482C83.0029 12.4513 82.8637 12.5066 82.761 12.6049C82.6583 12.7032 82.6006 12.8365 82.6006 12.9756C82.6006 13.1146 82.6583 13.248 82.761 13.3463C82.8637 13.4446 83.0029 13.4998 83.1482 13.4998H83.6434V13.974C83.6434 14.1131 83.7011 14.2464 83.8038 14.3447C83.9065 14.443 84.0458 14.4983 84.191 14.4983C84.3362 14.4983 84.4755 14.443 84.5782 14.3447C84.6808 14.2464 84.7385 14.1131 84.7385 13.974V13.4998H85.2338C85.379 13.4998 85.5183 13.4446 85.621 13.3463C85.7236 13.248 85.7813 13.1146 85.7813 12.9756C85.7813 12.8365 85.7236 12.7032 85.621 12.6049C85.5183 12.5066 85.379 12.4513 85.2338 12.4513ZM63.9623 26.7859C63.9646 26.8917 63.9447 26.9969 63.904 27.0953C63.8633 27.1937 63.8025 27.2833 63.7251 27.3589C63.6477 27.4345 63.5554 27.4946 63.4535 27.5356C63.3516 27.5766 63.2421 27.5977 63.1316 27.5977C63.021 27.5977 62.9116 27.5765 62.8097 27.5355C62.7078 27.4945 62.6154 27.4344 62.5381 27.3588C62.4607 27.2832 62.3999 27.1936 62.3592 27.0952C62.3185 26.9968 62.2987 26.8916 62.301 26.7857C62.3055 26.5776 62.3949 26.3795 62.5503 26.2339C62.7056 26.0882 62.9143 26.0067 63.1317 26.0067C63.3491 26.0067 63.5578 26.0883 63.7131 26.234C63.8684 26.3796 63.9578 26.5778 63.9623 26.7859ZM88.0533 15.4976C88.0534 15.602 88.0319 15.7055 87.9903 15.802C87.9486 15.8985 87.8874 15.9862 87.8103 16.06C87.7332 16.1339 87.6417 16.1925 87.5409 16.2325C87.4401 16.2725 87.3321 16.2931 87.2231 16.2931C87.0027 16.2931 86.7914 16.2093 86.6356 16.0601C86.4798 15.9109 86.3922 15.7086 86.3922 15.4976C86.3922 15.2866 86.4798 15.0843 86.6356 14.9351C86.7914 14.7859 87.0027 14.7021 87.2231 14.7021C87.3321 14.7021 87.4401 14.7227 87.5409 14.7627C87.6417 14.8027 87.7332 14.8613 87.8103 14.9352C87.8874 15.009 87.9486 15.0967 87.9903 15.1932C88.0319 15.2897 88.0534 15.3932 88.0533 15.4976Z" fill="#FFDA88"/>
<path d="M62.1107 18.859C62.1107 18.27 62.5166 17.7771 63.0732 17.6079C62.9418 17.5677 62.8043 17.5403 62.6586 17.5403C61.8979 17.5403 61.2812 18.1307 61.2812 18.859C61.2812 19.5873 61.8979 20.1777 62.6586 20.1777C62.8042 20.1777 62.9416 20.1503 63.0732 20.1101C62.5166 19.9409 62.1107 19.4481 62.1107 18.859ZM69.2473 24.4316C69.2473 23.8425 69.6532 23.3497 70.2098 23.1805C70.0782 23.1403 69.9409 23.1129 69.7952 23.1129C69.0345 23.1129 68.4178 23.7033 68.4178 24.4316C68.4178 25.1599 69.0345 25.7503 69.7952 25.7503C69.9408 25.7503 70.0782 25.7229 70.2098 25.6827C69.6532 25.5135 69.2473 25.0206 69.2473 24.4316ZM76.6082 15.4984C76.6082 14.9094 77.0141 14.4165 77.5707 14.2473C77.4391 14.2071 77.3018 14.1797 77.1561 14.1797C76.3954 14.1797 75.7788 14.7701 75.7788 15.4984C75.7788 16.2267 76.3954 16.8171 77.1561 16.8171C77.3017 16.8171 77.4391 16.7897 77.5707 16.7495C77.0141 16.5803 76.6082 16.0876 76.6082 15.4984ZM81.2733 23.1129C81.2733 22.5238 81.6793 22.0309 82.2358 21.8617C82.1042 21.8216 81.9669 21.7941 81.8212 21.7941C81.0605 21.7941 80.4439 22.3845 80.4439 23.1129C80.4439 23.8412 81.0605 24.4316 81.8212 24.4316C81.9668 24.4316 82.1042 24.4041 82.2358 24.364C81.6793 24.1948 81.2733 23.702 81.2733 23.1129ZM87.7909 31.1114C87.7909 30.5223 88.1966 30.0295 88.7531 29.8603C88.622 29.8201 88.4845 29.7927 88.3387 29.7927C87.5779 29.7927 86.9613 30.3831 86.9613 31.1114C86.9613 31.8397 87.5779 32.4301 88.3387 32.4301C88.4845 32.4301 88.622 32.4028 88.7531 32.3625C88.1966 32.1933 87.7909 31.7004 87.7909 31.1114Z" fill="#FF9D8D"/>
<path d="M62.9643 26.7858C62.9644 26.631 63.0117 26.4796 63.1003 26.3502C63.189 26.2208 63.3152 26.119 63.4634 26.0573C63.3589 26.0132 63.2459 25.9904 63.1316 25.9904C62.9113 25.9904 62.6999 26.0742 62.5441 26.2234C62.3883 26.3726 62.3008 26.5749 62.3008 26.7859C62.3008 26.9969 62.3883 27.1992 62.5441 27.3484C62.6999 27.4976 62.9113 27.5814 63.1316 27.5814C63.2459 27.5813 63.3589 27.5585 63.4634 27.5144C63.3152 27.4527 63.189 27.3508 63.1004 27.2214C63.0117 27.0919 62.9644 26.9406 62.9643 26.7858ZM87.0557 15.4975C87.0558 15.3428 87.1031 15.1914 87.1918 15.062C87.2804 14.9326 87.4066 14.8308 87.5548 14.7691C87.4503 14.7249 87.3373 14.7021 87.223 14.7021C87.0026 14.7021 86.7913 14.786 86.6355 14.9351C86.4797 15.0843 86.3922 15.2867 86.3922 15.4976C86.3922 15.7086 86.4797 15.9109 86.6355 16.0601C86.7913 16.2093 87.0026 16.2931 87.223 16.2931C87.3373 16.2931 87.4503 16.2703 87.5548 16.2262C87.4066 16.1644 87.2804 16.0625 87.1918 15.9331C87.1031 15.8037 87.0558 15.6523 87.0557 15.4975Z" fill="#FFE2A9"/>
<path d="M19.8347 49.6904H36.0027C37.3995 49.6904 38.5327 50.8236 38.5327 52.2204V67.1959L34.5532 63.7238H19.8347C18.4379 63.7238 17.3047 62.5906 17.3047 61.1939V52.2204C17.3047 50.8236 18.4379 49.6904 19.8347 49.6904Z" fill="#BCBEC0"/>
<path d="M38.5393 50.198V59.1714C38.5393 60.5682 37.406 61.7014 36.0093 61.7014H19.8347C18.4379 61.7014 17.3047 60.5682 17.3047 59.1714V50.198C17.3047 48.8012 18.4379 47.668 19.8347 47.668H36.0027C37.406 47.6614 38.5393 48.8012 38.5393 50.198Z" fill="#FFC224"/>
<path d="M34.5547 61.7001L38.5407 65.1722V56.7061H34.5547V61.7001Z" fill="#F1C051"/>
<path d="M21.1944 52.4313H34.088C34.4042 52.4313 34.6612 52.1743 34.6612 51.8581V51.8251C34.6612 51.5089 34.4042 51.252 34.088 51.252H21.1944C20.8782 51.252 20.6212 51.5089 20.6212 51.8251V51.8581C20.6146 52.1743 20.8716 52.4313 21.1944 52.4313ZM21.1944 55.4883H34.088C34.4042 55.4883 34.6612 55.2314 34.6612 54.9151V54.8822C34.6612 54.5659 34.4042 54.309 34.088 54.309H21.1944C20.8782 54.309 20.6212 54.5659 20.6212 54.8822V54.9151C20.6146 55.2314 20.8716 55.4883 21.1944 55.4883ZM21.1944 58.5454H34.088C34.4042 58.5454 34.6612 58.2884 34.6612 57.9722V57.9392C34.6612 57.623 34.4042 57.366 34.088 57.366H21.1944C20.8782 57.366 20.6212 57.623 20.6212 57.9392V57.9722C20.6146 58.2884 20.8716 58.5454 21.1944 58.5454Z" fill="#D1D3D4"/>
<path d="M31.2327 47.6602V54.1695C31.2327 55.5663 30.0995 56.6995 28.7027 56.6995H17.3047V50.1901C17.3047 48.7934 18.4379 47.6602 19.8347 47.6602H31.2327Z" fill="#D1D3D4"/>
<path d="M31.2285 54.3086H21.1943C20.878 54.3086 20.6211 54.5655 20.6211 54.8818V54.9147C20.6211 55.231 20.878 55.4879 21.1943 55.4879H30.8661C31.077 55.1387 31.2087 54.7368 31.2285 54.3086Z" fill="#BCBEC0"/>
<path d="M28.7046 41.3486H12.53C11.1332 41.3486 10 42.4818 10 43.8786V58.8607L13.9794 55.3886H28.698C30.0948 55.3886 31.228 54.2554 31.228 52.8586V43.8786C31.2346 42.4818 30.1014 41.3486 28.7046 41.3486Z" fill="#136DA0"/>
<path d="M28.7046 53.3596H12.53C11.1332 53.3596 10 52.2264 10 50.8296V41.8561C10 40.4594 11.1332 39.3262 12.53 39.3262H28.698C30.0948 39.3262 31.228 40.4594 31.228 41.8561V50.8296C31.2346 52.2264 30.1014 53.3596 28.7046 53.3596Z" fill="#1CAEE4"/>
<path d="M13.986 53.3603L10 56.8324V48.3662H13.986V53.3603Z" fill="#1CAEE4"/>
<path d="M27.3508 44.0963H14.4638C14.1476 44.0963 13.8906 43.8394 13.8906 43.5231V43.4902C13.8906 43.1739 14.1476 42.917 14.4638 42.917H27.3574C27.6737 42.917 27.9306 43.1739 27.9306 43.4902V43.5231C27.9306 43.8394 27.6737 44.0963 27.3508 44.0963ZM27.3508 47.1468H14.4638C14.1476 47.1468 13.8906 46.8898 13.8906 46.5736V46.5406C13.8906 46.2244 14.1476 45.9674 14.4638 45.9674H27.3574C27.6737 45.9674 27.9306 46.2244 27.9306 46.5406V46.5736C27.9306 46.8898 27.6737 47.1468 27.3508 47.1468ZM27.3508 50.2038H14.4638C14.1476 50.2038 13.8906 49.9469 13.8906 49.6306V49.5977C13.8906 49.2814 14.1476 49.0245 14.4638 49.0245H27.3574C27.6737 49.0245 27.9306 49.2814 27.9306 49.5977V49.6306C27.9306 49.9469 27.6737 50.2038 27.3508 50.2038Z" fill="#136DA0"/>
<path d="M109.085 100.126C108.824 95.3673 105.679 91.3617 101.232 90.1618L85.7808 86.6759C85.4119 86.5927 79.2718 90.5349 73.3678 90.4924C67.7421 90.452 62.3308 86.4248 62.3308 86.4248L45.7666 90.1618C41.3199 91.3615 38.1748 95.3673 37.9135 100.126L37.1781 114.266C37.1273 115.244 37.9065 116.065 38.8857 116.065H108.113C109.092 116.065 109.871 115.244 109.821 114.266L109.085 100.126Z" fill="#C9E7F8"/>
<path d="M76.1762 82.099H70.8895C69.5813 82.099 68.3079 81.7339 67.1931 81.0576L66.7266 85.4459L73.4302 89.7531L80.2634 85.3625L79.8099 81.0966C78.7102 81.7484 77.4597 82.099 76.1762 82.099Z" fill="#FED9A8"/>
<path d="M70.3936 82.0819C70.245 82.0712 70.0968 82.0557 69.9492 82.0355C69.9335 82.0333 69.9177 82.0317 69.902 82.0295C69.7598 82.0091 69.6182 81.9843 69.4775 81.9552L69.4166 81.9429C69.2797 81.9136 69.1438 81.8798 69.009 81.8426C68.986 81.8361 68.9628 81.8298 68.9399 81.8232C68.7825 81.778 68.6268 81.7273 68.4731 81.671C68.3453 81.6245 68.2188 81.5744 68.0938 81.5208C68.0686 81.5099 68.0434 81.4988 68.0182 81.4877C67.894 81.4328 67.7714 81.3743 67.6505 81.3125L67.577 81.2739C67.4561 81.2104 67.3369 81.1435 67.2197 81.0732C67.2112 81.0683 67.2023 81.0639 67.1938 81.0586L67.1406 81.5588C68.0619 82.74 71.8456 86.6303 80.1132 83.9446L79.8104 81.0974L79.8095 81.0979C79.6861 81.1705 79.5605 81.2395 79.4329 81.3047C79.3998 81.3218 79.3664 81.3381 79.333 81.3548C79.2292 81.4062 79.1241 81.4551 79.0181 81.5017C78.9895 81.5142 78.9614 81.5273 78.9327 81.5394C78.8007 81.5952 78.6671 81.647 78.532 81.6948C78.5093 81.7028 78.4861 81.7097 78.4632 81.7175C78.3122 81.7692 78.1596 81.8157 78.0054 81.8569C77.8885 81.8883 77.7711 81.9167 77.6526 81.9422C77.6301 81.947 77.6082 81.9527 77.5858 81.9573C77.4465 81.9855 77.3065 82.0095 77.1658 82.0292C77.1302 82.0342 77.0943 82.038 77.0584 82.0425C76.9488 82.0563 76.8391 82.0676 76.7288 82.0762C76.6881 82.0795 76.6474 82.0828 76.6066 82.0853C76.4638 82.0941 76.3206 82.1 76.1769 82.1H70.8905C70.7338 82.1 70.5775 82.094 70.422 82.0837C70.4125 82.0828 70.4031 82.0827 70.3936 82.0819Z" fill="#F2C18B"/>
<path d="M45.7666 90.1624C41.3199 91.3621 38.1748 95.3678 37.9135 100.127L37.1781 114.267C37.1273 115.245 37.9065 116.065 38.8857 116.065H65.7518L61.2109 86.6781L45.7666 90.1624ZM109.085 100.127C108.824 95.3679 105.679 91.3623 101.232 90.1624L85.7648 86.6729L85.7635 86.6736L81.2312 116.065H108.113C109.092 116.065 109.871 115.244 109.82 114.266L109.085 100.127Z" fill="#4D5560"/>
<path d="M73.5032 89.7981V89.7979L73.5031 89.798L73.503 89.7979V89.7981L70.2532 92.0366L71.8713 95.2606H75.1355L76.7453 92.034L73.5032 89.7981ZM75.1355 95.2606H71.8713L69.4453 116.071L77.5602 116.061L75.1355 95.2606Z" fill="#FC3F49"/>
<path d="M61.2192 86.6768L65.7519 116.065L54.1394 99.9684C54.0141 99.7947 53.9539 99.5824 53.9695 99.3687C53.9851 99.1551 54.0754 98.9537 54.2247 98.8L56.3207 96.641C56.7054 96.2446 56.6522 95.5999 56.2076 95.2722L52.6167 92.6246C52.474 92.5194 52.3651 92.3749 52.3033 92.2088C52.2415 92.0426 52.2295 91.8621 52.2687 91.6892L52.9845 88.5343L61.2192 86.6768ZM85.7632 86.6768L81.2305 116.065L92.843 99.9684C92.9684 99.7947 93.0285 99.5824 93.0129 99.3687C92.9973 99.1551 92.907 98.9537 92.7578 98.8L90.6617 96.641C90.277 96.2446 90.3302 95.5999 90.7748 95.2722L94.3656 92.6246C94.5083 92.5194 94.6171 92.3749 94.679 92.2088C94.7408 92.0426 94.7528 91.8621 94.7136 91.6892L93.9978 88.5343L85.7632 86.6768Z" fill="#3F4651"/>
<path d="M66.5849 85.3545L73.4996 89.7974L68.4782 93.2581L61.1055 86.6759L66.5849 85.3545Z" fill="#B7DAEA"/>
<path d="M80.2861 85.3496L73.3711 89.7927L78.3928 93.2532L85.7654 86.6712L80.2861 85.3496Z" fill="#B7DAEA"/>
<path d="M78.8631 44.9297H74.5C80.2482 44.9297 84.9079 49.5895 84.9079 55.3376V65.8687H89.271V55.3376C89.2711 49.5894 84.6113 44.9297 78.8631 44.9297Z" fill="#F28F0C"/>
<path d="M86.7969 60.7949V68.5321C88.5412 68.4171 89.9183 67.1254 89.9183 65.541V63.7867C89.9182 62.2024 88.5412 60.9098 86.7969 60.7949Z" fill="#FFC07B"/>
<path d="M60.1996 60.7949V68.5321C58.4552 68.4171 57.0781 67.1254 57.0781 65.541V63.7867C57.0781 62.2024 58.4551 60.9098 60.1996 60.7949Z" fill="#FED9A8"/>
<path d="M78.8636 44.9297H68.2009C62.4527 44.9297 57.793 49.5895 57.793 55.3376V61.9403C58.3621 61.2931 59.2233 60.8591 60.1999 60.7948V60.8017V59.2751C61.8099 57.2227 65.5001 58.4444 73.1814 58.1491C78.9602 57.9269 81.4143 54.8693 82.4211 51.8441C83.1075 52.1089 85.7659 53.5246 85.7659 59.5741C85.7659 60.2802 86.2357 60.6364 86.8474 60.8C87.8435 60.879 88.7138 61.3422 89.2715 62.0228V55.3376C89.2716 49.5894 84.6118 44.9297 78.8636 44.9297Z" fill="#FE9901"/>
<path d="M85.7653 59.5748C85.7653 53.5254 83.1069 52.1096 82.4204 51.8447C81.4137 54.8698 78.9593 57.9275 73.1807 58.1497C65.4995 58.4451 61.8094 57.2234 60.1992 59.2758V70.3849C60.1992 72.9968 61.2333 75.4921 63.0558 77.2782L65.85 80.0166C67.2156 81.3549 69.0169 82.0995 70.8884 82.0995H76.175C78.0465 82.0995 79.848 81.3548 81.2134 80.0166L84.0076 77.2782C85.83 75.4921 86.8642 72.9968 86.8642 70.3849V60.8058C86.2439 60.6442 85.7653 60.2876 85.7653 59.5748Z" fill="#FED9A8"/>
<path d="M85.7653 59.5748C85.7653 53.5254 83.1069 52.1096 82.4204 51.8447C81.4137 54.8698 78.9593 57.9275 73.1807 58.1497C65.4995 58.4451 61.8094 57.2234 60.1992 59.2758V70.3849C60.1992 72.9968 61.2333 75.4921 63.0558 77.2782L65.85 80.0166C67.2156 81.3549 69.0169 82.0995 70.8884 82.0995H76.175C78.0465 82.0995 79.848 81.3548 81.2134 80.0166L84.0076 77.2782C85.83 75.4921 86.8642 72.9968 86.8642 70.3849V60.8058C86.2439 60.6442 85.7653 60.2876 85.7653 59.5748Z" fill="#FED9A8"/>
<path d="M85.7653 59.5748C85.7653 53.5254 83.1069 52.1096 82.4204 51.8447C81.4137 54.8698 78.9593 57.9275 73.1807 58.1497C65.4995 58.4451 61.8094 57.2234 60.1992 59.2758V70.3849C60.1992 72.9968 61.2333 75.4921 63.0558 77.2782L65.85 80.0166C67.2156 81.3549 69.0169 82.0995 70.8884 82.0995H76.175C78.0465 82.0995 79.848 81.3548 81.2134 80.0166L84.0076 77.2782C85.83 75.4921 86.8642 72.9968 86.8642 70.3849V60.8058C86.2439 60.6442 85.7653 60.2876 85.7653 59.5748Z" fill="#FED9A8"/>
<path d="M73.1807 60.0784C79.5637 60.0784 82.669 55.9365 83.9035 52.9491C83.291 52.2445 82.6963 51.9511 82.4204 51.8447C81.4137 54.8698 78.9593 57.9275 73.1807 58.1497C65.4995 58.4451 61.8094 57.2234 60.1992 59.2758V61.2045C61.8092 59.1521 65.4938 60.0784 73.1807 60.0784Z" fill="#FFC07B"/>
<path d="M85.7661 59.575C85.7661 53.7392 83.2927 52.216 82.5017 51.8779V70.385C82.5017 72.9969 81.4678 75.4922 79.6451 77.2783L76.8509 80.0167C75.4853 81.355 73.6841 82.0996 71.8125 82.0996H76.1756C78.0471 82.0996 79.8485 81.3549 81.2139 80.0167L84.0081 77.2783C85.8306 75.4922 86.8647 72.9969 86.8647 70.385V60.8059C86.2447 60.6445 85.7661 60.2878 85.7661 59.575Z" fill="#FFC07B"/>
<path d="M59.4557 66.6729H60.2016V62.6553H59.4557C59.1401 62.6553 58.8374 62.7807 58.6142 63.0038C58.391 63.227 58.2656 63.5297 58.2656 63.8453V65.4829C58.2656 65.7985 58.391 66.1012 58.6142 66.3244C58.8374 66.5475 59.1401 66.6729 59.4557 66.6729Z" fill="#F7C68B"/>
<path d="M87.6131 66.6729H86.8672V62.6553H87.6131C87.9287 62.6553 88.2314 62.7807 88.4546 63.0038C88.6778 63.227 88.8031 63.5297 88.8031 63.8453V65.4829C88.8031 65.7985 88.6778 66.1012 88.4546 66.3244C88.2314 66.5475 87.9287 66.6729 87.6131 66.6729Z" fill="#F2AD5A"/>
<path d="M73.499 77.1751C75.6347 77.1751 77.4299 75.96 77.9411 74.3144C78.0892 73.8377 77.7267 73.3545 77.2276 73.3545H69.7705C69.2713 73.3545 68.9087 73.8377 69.057 74.3144C69.5682 75.9599 71.3632 77.1751 73.499 77.1751Z" fill="#FFF4E9"/>
<path d="M45.8291 94.7829L43.1054 91.2998C40.1059 93.113 38.119 96.3868 37.9135 100.127L37.1781 114.266C37.1273 115.244 37.9065 116.065 38.8857 116.065H48.9402L49.4148 106.048C49.6073 101.985 48.3349 97.9874 45.8291 94.7829ZM101.17 94.7829L103.894 91.2998C106.893 93.113 108.88 96.3868 109.085 100.127L109.821 114.266C109.872 115.244 109.092 116.065 108.113 116.065H98.0587L97.5841 106.048C97.3916 101.985 98.664 97.9874 101.17 94.7829Z" fill="#3F4651"/>
<path d="M71.8711 95.2598L71.6953 96.7863H75.3237L75.1343 95.2598H73.5227H71.8711Z" fill="#EA2F41"/>
<path d="M105.94 92.9162C105.959 92.9348 105.976 92.9542 105.995 92.9731C105.977 92.9543 105.959 92.935 105.94 92.9162ZM105.678 92.6596C105.712 92.692 105.745 92.7249 105.779 92.7576C105.745 92.7249 105.712 92.692 105.678 92.6596ZM105.409 92.4145C105.444 92.4451 105.478 92.4759 105.513 92.5069C105.478 92.4757 105.444 92.4451 105.409 92.4145ZM106.777 93.8729C106.814 93.9207 106.85 93.9692 106.886 94.0176C106.85 93.969 106.814 93.9205 106.777 93.8729ZM106.306 93.3079C106.341 93.3472 106.376 93.3861 106.411 93.4261C106.376 93.3861 106.341 93.3472 106.306 93.3079ZM107.293 94.5985C107.329 94.654 107.365 94.7095 107.4 94.7657C107.365 94.7097 107.329 94.6539 107.293 94.5985ZM104.102 91.4297C104.137 91.452 104.172 91.4741 104.207 91.4968C104.172 91.4742 104.137 91.4521 104.102 91.4297ZM104.701 91.8407C104.726 91.859 104.75 91.8782 104.775 91.8968C104.75 91.8782 104.726 91.8592 104.701 91.8407ZM104.402 91.6282C104.438 91.6525 104.473 91.6771 104.508 91.7017C104.472 91.6771 104.438 91.6525 104.402 91.6282ZM105.154 92.1961C105.181 92.2185 105.208 92.2405 105.235 92.2632C105.208 92.2405 105.181 92.2185 105.154 92.1961Z" fill="#3F4651"/>
<path d="M108.113 116.065C109.093 116.065 109.872 115.244 109.821 114.266C109.872 115.244 109.093 116.065 108.113 116.065ZM105.778 92.7572C105.832 92.8098 105.887 92.8623 105.939 92.9159C105.887 92.862 105.832 92.8095 105.778 92.7572ZM105.234 92.2627C105.293 92.3122 105.351 92.363 105.408 92.4139C105.351 92.3628 105.293 92.3125 105.234 92.2627ZM108.932 98.7822C108.938 98.8184 108.944 98.8551 108.95 98.8916C108.944 98.8551 108.939 98.8185 108.932 98.7822ZM108.736 97.877C108.747 97.9217 108.759 97.9667 108.77 98.0115C108.759 97.9664 108.747 97.9217 108.736 97.877Z" fill="#C9E7F8"/>
<path d="M104.1 91.4293C103.214 90.8637 102.247 90.4364 101.232 90.1622L93.9961 88.5342L94.2185 89.5142L97.0913 90.1624C99.138 90.7146 100.908 91.8623 102.249 93.4032L103.893 91.2998C103.963 91.3419 104.032 91.3857 104.1 91.4293Z" fill="#3F4651"/>
<path d="M108.509 97.1162C108.52 97.1483 108.53 97.1807 108.54 97.2129C108.53 97.1807 108.52 97.1482 108.509 97.1162ZM108.992 99.1815C108.999 99.2262 109.004 99.2712 109.01 99.316C109.004 99.2712 108.998 99.2263 108.992 99.1815Z" fill="#C9E7F8"/>
<path d="M85.7636 86.6768L85.625 87.5753L94.2202 89.5145L93.9979 88.5345L85.7636 86.6768Z" fill="#373E49"/>
<path d="M109.521 108.533L109.084 100.126C109.076 99.9915 109.066 99.8566 109.054 99.722C109.05 99.6809 109.046 99.6401 109.041 99.5991C109.032 99.5044 109.021 99.4099 109.009 99.3155C109.004 99.2707 108.998 99.2257 108.992 99.1811C108.978 99.0843 108.964 98.9878 108.948 98.8915C108.942 98.8551 108.937 98.8185 108.93 98.782C108.908 98.6528 108.883 98.524 108.856 98.3956C108.85 98.3682 108.844 98.3408 108.838 98.3136C108.806 98.1672 108.772 98.0217 108.734 97.8769C108.712 97.7927 108.689 97.7088 108.665 97.6252C108.652 97.5797 108.639 97.5341 108.626 97.4889C108.598 97.3963 108.569 97.3041 108.539 97.2123C108.529 97.1801 108.519 97.1477 108.508 97.1156C108.468 96.9969 108.426 96.879 108.383 96.7617C108.367 96.7197 108.35 96.6782 108.334 96.6365C108.257 96.4367 108.174 96.2393 108.085 96.0445C108.063 95.9972 108.042 95.9494 108.019 95.9024C107.953 95.7623 107.883 95.6235 107.811 95.4863C107.769 95.4057 107.726 95.3257 107.682 95.2463C107.654 95.1962 107.625 95.1467 107.596 95.097C107.498 94.9277 107.396 94.7612 107.289 94.5975C107.256 94.547 107.224 94.4963 107.19 94.4465C107.091 94.3007 106.989 94.1573 106.883 94.0164C106.846 93.9681 106.81 93.9196 106.773 93.8717C106.697 93.7744 106.62 93.6784 106.541 93.5837C106.497 93.5304 106.452 93.4775 106.407 93.4251C106.368 93.3801 106.328 93.336 106.289 93.2913C106.187 93.1768 106.081 93.0663 105.975 92.9553C105.962 92.942 105.95 92.9283 105.937 92.9151C105.884 92.8615 105.83 92.8091 105.776 92.7565C105.742 92.7237 105.708 92.6907 105.674 92.6585C105.619 92.607 105.564 92.5561 105.509 92.5057C105.475 92.4747 105.44 92.444 105.405 92.4133C105.348 92.3625 105.29 92.3116 105.232 92.2621C105.205 92.2394 105.177 92.2174 105.15 92.195C105.026 92.0922 104.9 91.9923 104.771 91.8955C104.747 91.877 104.722 91.8578 104.698 91.8395C104.634 91.7925 104.569 91.7461 104.504 91.7005C104.469 91.6759 104.434 91.6513 104.399 91.627C104.334 91.5824 104.269 91.5386 104.203 91.4956C104.168 91.4729 104.133 91.4507 104.098 91.4285C104.029 91.3844 103.96 91.3412 103.891 91.2988L102.246 93.4022C103.818 95.2091 104.801 97.5573 104.942 100.126L105.771 116.064H108.111C109.09 116.064 109.869 115.243 109.818 114.265L109.521 108.533Z" fill="#333A44"/>
<path d="M67.7267 64.8311V63.8419C67.7267 63.5145 67.5966 63.2005 67.3651 62.969C67.1336 62.7375 66.8196 62.6074 66.4922 62.6074C66.1649 62.6074 65.8509 62.7375 65.6194 62.969C65.3879 63.2005 65.2578 63.5145 65.2578 63.8419V64.8311C65.2578 65.1585 65.3879 65.4724 65.6194 65.7039C65.8509 65.9354 66.1649 66.0655 66.4922 66.0655C66.8196 66.0655 67.1336 65.9354 67.3651 65.7039C67.5966 65.4724 67.7267 65.1585 67.7267 64.8311ZM80.5101 66.0656C80.8375 66.0656 81.1515 65.9356 81.383 65.7041C81.6145 65.4726 81.7446 65.1586 81.7446 64.8312V63.842C81.7446 63.5146 81.6145 63.2006 81.383 62.9691C81.1515 62.7376 80.8375 62.6076 80.5101 62.6076C80.1828 62.6076 79.8688 62.7376 79.6373 62.9691C79.4058 63.2006 79.2757 63.5146 79.2757 63.842V64.8312C79.2758 65.1586 79.4058 65.4726 79.6373 65.704C79.8688 65.9355 80.1828 66.0656 80.5101 66.0656ZM73.5011 77.598C76.1034 77.598 78.3921 76.0813 79.067 73.9098C79.1552 73.6233 79.1752 73.3202 79.1252 73.0246C79.0753 72.7291 78.9569 72.4493 78.7794 72.2078C78.6002 71.9652 78.3667 71.768 78.0976 71.6319C77.8284 71.4958 77.5312 71.4246 77.2296 71.4239H69.7725C69.1635 71.4239 68.5842 71.7169 68.2228 72.2076C68.0453 72.4492 67.9269 72.729 67.8769 73.0246C67.827 73.3201 67.847 73.6233 67.9353 73.9098C68.6101 76.0814 70.899 77.598 73.5011 77.598ZM76.5507 73.7777C75.9782 74.6538 74.7953 75.2448 73.5011 75.2448C72.2071 75.2448 71.0242 74.6538 70.4516 73.7777H76.5507Z" fill="#232323"/>
<path d="M110.996 113.452L110.261 99.3092L110.26 99.3079C110.252 99.1612 110.241 99.0147 110.228 98.8684C110.225 98.8317 110.221 98.7953 110.217 98.7586C110.205 98.641 110.192 98.5235 110.177 98.4063C110.174 98.3782 110.17 98.3502 110.166 98.3222C109.676 94.6514 107.609 91.4172 104.502 89.5395C104.474 89.522 104.444 89.5064 104.414 89.4916C103.622 89.0182 102.775 88.643 101.892 88.3742C101.594 88.2876 101.275 88.3218 101.002 88.4692C100.73 88.6166 100.527 88.8655 100.437 89.1618C100.347 89.4581 100.377 89.778 100.521 90.0521C100.665 90.3262 100.912 90.5324 101.207 90.626C101.506 90.7175 101.8 90.8244 102.087 90.9465L100.243 93.3048C97.5642 96.7316 96.2037 101.006 96.4088 105.351L96.8251 114.135H83.5291L93.7963 99.9034C94.0839 99.5056 94.222 99.0191 94.1862 98.5296C94.1505 98.04 93.9433 97.5787 93.601 97.2269L91.7163 95.2859L95.0628 92.8185C95.3897 92.5775 95.6392 92.2464 95.7808 91.8658C95.9224 91.4852 95.9499 91.0715 95.8599 90.6755L95.5557 89.3347L96.4901 89.5457C96.6409 89.5797 96.7968 89.5837 96.9491 89.5574C97.1014 89.5311 97.247 89.4751 97.3776 89.3925C97.5083 89.31 97.6213 89.2025 97.7104 89.0762C97.7995 88.95 97.8628 88.8074 97.8968 88.6567C97.9309 88.5059 97.9349 88.3499 97.9086 88.1977C97.8824 88.0454 97.8264 87.8997 97.7438 87.7691C97.6612 87.6385 97.5537 87.5254 97.4275 87.4363C97.3012 87.3472 97.1586 87.2839 97.0078 87.25L86.049 84.7776C86.0457 84.7769 86.0427 84.7754 86.0396 84.7747L81.3441 83.6422L81.0562 80.9329C81.4037 80.6813 81.7321 80.4042 82.0386 80.1038L84.8328 77.3654C86.8726 75.3665 88.0426 72.5475 88.0426 69.6317V68.731C89.8245 68.158 91.0971 66.5939 91.0971 64.7884V63.0342C91.0971 62.2567 90.8604 61.5242 90.4497 60.8958V54.5846C90.4497 48.1969 85.2527 43 78.865 43H68.2025C61.8147 43 56.6179 48.197 56.6179 54.5846V60.7944C56.1654 61.4445 55.9033 62.2145 55.9033 63.0338V64.7879C55.9033 66.6161 57.2078 68.1972 59.0248 68.7521V69.6313C59.0248 72.5471 60.1946 75.3661 62.2344 77.365L65.0288 80.1034C65.3169 80.3858 65.6244 80.6477 65.949 80.8872L65.6591 83.6143L60.8301 84.7792C60.761 84.7967 60.6937 84.8204 60.6289 84.8499L52.7259 86.633L45.5092 88.261C45.4932 88.2646 45.4774 88.2685 45.4616 88.2727C44.4244 88.5527 43.4316 88.9765 42.5119 89.5316C42.5074 89.5343 42.5026 89.5364 42.498 89.5391L42.4842 89.5477C42.4362 89.5769 42.3892 89.6072 42.3416 89.6369C42.268 89.6831 42.1946 89.7295 42.1224 89.777C41.9983 89.8591 41.8756 89.9433 41.7545 90.0297C41.717 90.0565 41.6792 90.0831 41.642 90.1105C41.5355 90.1883 41.4303 90.268 41.3266 90.3494L41.3115 90.361C41.0765 90.5465 40.8488 90.741 40.6289 90.944L40.5953 90.9752C40.4889 91.0738 40.3844 91.1744 40.2818 91.277L40.2805 91.2783C39.6273 91.9322 39.0522 92.6597 38.5668 93.4463L38.5606 93.4564C38.4853 93.5787 38.4121 93.7024 38.3412 93.8273L38.3175 93.8689C38.1692 94.1316 38.0308 94.3998 37.9025 94.6728C37.8965 94.6854 37.8911 94.698 37.8852 94.7106C37.8313 94.8267 37.7792 94.9435 37.7287 95.0611C37.7125 95.0991 37.6968 95.1372 37.6807 95.1754C37.6407 95.2718 37.6017 95.3688 37.5641 95.4662C37.548 95.5081 37.5314 95.5498 37.5156 95.5919C37.4726 95.7068 37.4314 95.8224 37.3918 95.9386C37.3829 95.965 37.3735 95.991 37.3647 96.0175C37.323 96.143 37.2833 96.2692 37.2456 96.3959C37.2295 96.4498 37.2146 96.5043 37.1992 96.5585C37.1341 96.7878 37.0757 97.0189 37.0242 97.2515C37.0121 97.306 36.9993 97.3601 36.988 97.4147C36.9599 97.5491 36.9341 97.6838 36.9103 97.819C36.9018 97.8678 36.8947 97.917 36.8866 97.9661C36.8613 98.1193 36.8392 98.2731 36.8202 98.4272C36.8084 98.5228 36.7976 98.6184 36.7877 98.7142C36.7825 98.7659 36.7769 98.8176 36.7722 98.8695C36.7594 99.0093 36.749 99.1494 36.741 99.2896C36.7407 99.2959 36.74 99.302 36.7395 99.3082V99.3095L36.7394 99.3116L36.4978 103.955C36.4898 104.109 36.5122 104.264 36.5639 104.41C36.6155 104.555 36.6953 104.689 36.7988 104.804C36.9022 104.919 37.0273 105.012 37.1668 105.079C37.3063 105.145 37.4575 105.183 37.6119 105.191C37.7662 105.199 37.9206 105.177 38.0663 105.125C38.212 105.074 38.3461 104.994 38.4609 104.891C38.5757 104.787 38.669 104.662 38.7354 104.522C38.8018 104.383 38.8401 104.232 38.848 104.077L39.0894 99.4371C39.0989 99.2737 39.1122 99.1106 39.1293 98.9478C39.134 98.9017 39.1395 98.8557 39.1448 98.8097C39.1595 98.6836 39.1763 98.558 39.1955 98.4329C39.2017 98.3935 39.2069 98.3538 39.2134 98.3144C39.2395 98.1574 39.2687 98.0012 39.3017 97.8466C39.3093 97.8108 39.3181 97.7755 39.3263 97.7399C39.3534 97.6189 39.383 97.4988 39.4144 97.3793C39.4278 97.3284 39.4413 97.2776 39.4557 97.2272C39.4891 97.1078 39.5248 96.9895 39.5625 96.8718C39.5736 96.8373 39.5835 96.8021 39.595 96.7678C39.6903 96.483 39.7984 96.2026 39.919 95.9275C39.947 95.8634 39.9745 95.7991 40.0037 95.7359C40.0936 95.5417 40.1899 95.3506 40.2925 95.1628C40.3245 95.1038 40.3567 95.0449 40.3898 94.9866C40.4335 94.9101 40.4777 94.8344 40.5231 94.7592C40.552 94.7115 40.582 94.6646 40.6116 94.6174C40.705 94.4689 40.8025 94.3229 40.904 94.1796C40.9255 94.1491 40.9464 94.1181 40.9683 94.0879C41.0253 94.0094 41.0837 93.9326 41.1429 93.856C41.1723 93.8178 41.2024 93.78 41.2324 93.7422C41.4243 93.5015 41.6277 93.2702 41.8419 93.049C41.882 93.0076 41.9222 92.9661 41.9632 92.9254C42.0244 92.8644 42.0862 92.8042 42.1489 92.7451C42.2026 92.6945 42.2575 92.6452 42.3126 92.5958C42.3964 92.5203 42.4817 92.4464 42.5683 92.374C42.6414 92.3129 42.7148 92.2524 42.7898 92.1935C42.8127 92.1755 42.8361 92.1582 42.8591 92.1405L44.9024 94.7535C47.2341 97.7363 48.4183 101.457 48.2398 105.238L47.8184 114.134H38.8864C38.6872 114.134 38.5584 114.03 38.4997 113.968C38.441 113.906 38.3435 113.772 38.3539 113.573L38.588 109.073C38.5961 108.919 38.5736 108.765 38.522 108.619C38.4704 108.473 38.3905 108.339 38.2871 108.224C38.1836 108.11 38.0586 108.016 37.9191 107.95C37.7796 107.883 37.6283 107.845 37.474 107.837C36.8243 107.804 36.2715 108.302 36.2378 108.951L36.0037 113.451C35.9838 113.842 36.0437 114.233 36.1797 114.601C36.3151 114.968 36.5238 115.304 36.7931 115.589C37.0633 115.872 37.388 116.098 37.7479 116.253C38.1077 116.407 38.4951 116.487 38.8867 116.488H69.3441C69.377 116.491 69.4101 116.493 69.4434 116.493H69.4449L73.6866 116.488H108.113C108.505 116.487 108.892 116.407 109.252 116.253C109.612 116.098 109.937 115.872 110.207 115.589C110.476 115.304 110.685 114.968 110.82 114.601C110.956 114.234 111.016 113.843 110.996 113.452ZM78.6065 114.135L76.3431 94.7188L77.1601 93.0811L77.7232 93.4693C77.9402 93.6191 78.2013 93.6916 78.4645 93.6751C78.7277 93.6586 78.9778 93.5541 79.1744 93.3783L84.0997 88.9811L80.22 114.135H78.6065V114.135ZM66.7611 114.135L66.1734 110.332L62.899 89.1023L67.6941 93.383C67.9096 93.5757 68.1887 93.6821 68.4779 93.6818C68.7163 93.682 68.9491 93.6095 69.1453 93.474L69.8058 93.0188L70.6597 94.7203L68.3965 114.135H66.7611ZM57.747 95.0805C57.7225 94.7835 57.6347 94.4952 57.4895 94.2349C57.3443 93.9747 57.145 93.7486 56.9051 93.5718L53.4539 91.0271L53.9671 88.7655L60.2409 87.3502L63.8418 110.654L55.2227 98.7069L57.1641 96.7073C57.3718 96.4935 57.5312 96.2376 57.6317 95.957C57.7323 95.6764 57.7716 95.3775 57.747 95.0805ZM74.4057 93.3303H72.5955L71.7627 91.6707L73.4386 90.5163L75.2029 91.7321L74.4057 93.3303ZM70.766 114.135L72.9168 95.6837H74.0861L76.2366 114.132L73.6548 114.135H70.766ZM90.0751 93.5718C89.8351 93.7486 89.6358 93.9748 89.4905 94.235C89.3453 94.4953 89.2574 94.7837 89.2329 95.0807C89.2083 95.3778 89.2477 95.6766 89.3483 95.9572C89.4489 96.2378 89.6084 96.4936 89.8161 96.7073L91.7573 98.7069L83.1411 110.651L86.7344 87.349L93.0132 88.7655L93.5263 91.0274L90.0751 93.5718ZM78.2971 91.0066L77.6984 90.5939C77.6197 90.484 77.5226 90.3884 77.4113 90.3115L75.5569 89.0327L80.4972 85.8584L83.305 86.5356L78.2971 91.0066ZM88.7434 64.7881C88.7434 65.3072 88.4727 65.7807 88.0423 66.1154V61.706L88.0605 61.7205C88.11 61.7601 88.1579 61.8015 88.2035 61.8452L88.2226 61.8638C88.2688 61.9093 88.3126 61.9568 88.3536 62.0065C88.5981 62.301 88.7434 62.6551 88.7434 63.0339V64.7881ZM58.9706 54.5846C58.9706 49.4944 63.1119 45.3534 68.2018 45.3534H78.8643C83.9545 45.3534 88.0955 49.4947 88.0955 54.5846V59.1075C87.7616 58.9959 87.4166 58.9211 87.0664 58.8844C87.0428 58.8764 87.0195 58.8674 86.9966 58.8575L86.9892 58.8542C86.9735 58.8472 86.9582 58.8394 86.9434 58.8307L86.9432 58.8211C86.9432 52.0967 83.8066 50.3641 82.8453 49.9932C82.6779 49.9287 82.498 49.9033 82.3193 49.919C82.1406 49.9346 81.9679 49.9909 81.8142 50.0834C81.5743 50.2281 81.3939 50.4537 81.3055 50.7195C80.145 54.2057 77.397 56.0564 73.137 56.2203C72.1254 56.2592 71.1131 56.2747 70.1008 56.2667C68.8282 56.2582 67.6938 56.2187 66.6802 56.1831C65.8803 56.155 65.1755 56.1302 64.5271 56.1243C64.4355 56.1235 64.3439 56.1231 64.2524 56.123C62.4792 56.123 60.486 56.2524 59.275 57.7959C59.1124 58.0031 59.0241 58.2588 59.024 58.5222V59.0681C59.0062 59.0735 58.9883 59.0791 58.9706 59.0848V54.5846ZM58.2562 64.7881V63.0339C58.2562 62.6295 58.4198 62.2521 58.695 61.9467C58.7132 61.9266 58.7328 61.9077 58.752 61.8884C58.7813 61.8584 58.8108 61.8285 58.8423 61.8001C58.8626 61.7818 58.8846 61.7646 58.9058 61.7469C58.9386 61.7198 58.9715 61.6924 59.0062 61.6671C59.012 61.6628 59.0182 61.6588 59.0242 61.6546V66.1687C58.5538 65.8319 58.2562 65.3343 58.2562 64.7881ZM63.8811 75.6842C62.2901 74.125 61.3776 71.9187 61.3776 69.6312V59.0003C61.8708 58.6226 62.715 58.4762 64.2524 58.4762C64.935 58.4762 65.7052 58.5033 66.5973 58.5348C67.7554 58.5755 69.0679 58.6216 70.5785 58.6216H70.5838C71.4892 58.6216 72.3539 58.6054 73.2272 58.5717C78.8696 58.3547 81.616 55.6225 82.9496 52.9049C83.693 53.7264 84.5898 55.4219 84.5898 58.8208C84.5898 58.8856 84.5929 58.9493 84.5974 59.0123C84.5987 59.0302 84.6005 59.0479 84.6021 59.0656C84.6067 59.114 84.6125 59.1616 84.6197 59.2089C84.622 59.2244 84.6241 59.2399 84.6267 59.2555C84.6374 59.317 84.6496 59.3776 84.6648 59.4371C84.6655 59.4399 84.6666 59.4425 84.6672 59.4455C84.6818 59.5021 84.6988 59.5575 84.7175 59.612C84.7221 59.6253 84.7269 59.6385 84.7316 59.6517C84.7492 59.7 84.7682 59.7477 84.7889 59.7945C84.7928 59.8033 84.7962 59.8123 84.8003 59.821C84.8273 59.8802 84.8569 59.938 84.8891 59.9945C84.9233 60.0543 84.9603 60.1125 85 60.1688C85.0323 60.2148 85.066 60.2598 85.1018 60.3036L85.1101 60.3141C85.1504 60.3627 85.1932 60.4099 85.2379 60.4555C85.2417 60.4594 85.2459 60.4631 85.2496 60.467C85.2894 60.507 85.331 60.5457 85.374 60.5834L85.4006 60.6062C85.4485 60.6469 85.4979 60.6858 85.5487 60.7228C85.5723 60.7399 85.5969 60.7562 85.6212 60.7726V67.7784C85.6212 67.9119 85.6451 68.0427 85.6882 68.1663V69.6307C85.6882 71.9182 84.7757 74.1243 83.1846 75.6838L80.3904 78.4222C80.039 78.7672 79.648 79.0695 79.2255 79.3226C79.2203 79.3257 79.2144 79.3278 79.2091 79.331C79.0937 79.3995 78.9761 79.4638 78.8568 79.5243L78.8567 79.5245C78.2683 79.8227 77.6347 80.0214 76.9814 80.1126C76.9663 80.1147 76.951 80.1163 76.936 80.1183C76.8318 80.1318 76.7273 80.1425 76.6226 80.1503C76.5942 80.1525 76.5658 80.1548 76.5374 80.1566C76.417 80.164 76.2964 80.169 76.1756 80.169H70.8892C70.7663 80.169 70.6437 80.164 70.5212 80.1561C70.4932 80.1544 70.4654 80.152 70.4374 80.1498C70.3257 80.1414 70.2143 80.1298 70.1033 80.115L70.0756 80.1114C69.2708 79.9973 68.4977 79.7206 67.8032 79.2982C67.7984 79.2952 67.7929 79.2932 67.7881 79.2903C67.3853 79.0439 67.0118 78.7527 66.6747 78.4222L63.8811 75.6842ZM69.4806 82.4C69.5029 82.4039 69.525 82.4079 69.5472 82.4116C69.6776 82.433 69.8084 82.4512 69.9395 82.4663C70.01 82.4745 70.0805 82.4823 70.1511 82.4886C70.2193 82.4945 70.2875 82.4995 70.3558 82.5037C70.4089 82.5072 70.4618 82.5113 70.5148 82.5138C70.6397 82.5197 70.7647 82.523 70.8899 82.523H76.1766C76.3007 82.523 76.4246 82.5195 76.5484 82.514C76.599 82.5118 76.6494 82.5078 76.7 82.5046C76.7697 82.5002 76.8393 82.4955 76.9089 82.4892C77.1046 82.4712 77.2997 82.4468 77.4938 82.4161C77.5152 82.4126 77.5363 82.4088 77.5576 82.405C77.9836 82.3331 78.4032 82.2277 78.8126 82.0899L79.0171 84.0123L73.4309 87.6018L67.9741 84.0957L68.1898 82.0686C68.6104 82.2138 69.0421 82.3246 69.4806 82.4ZM66.3714 85.8635L71.3758 89.0791L69.5847 90.3134L69.584 90.3138L68.5715 91.0116L63.5636 86.5407L66.3714 85.8635ZM46.7563 93.3046L44.9114 90.9452C45.282 90.789 45.6626 90.6575 46.0506 90.5514L51.4237 89.3393L51.1206 90.6754C51.0307 91.0714 51.0582 91.4851 51.1999 91.8657C51.3415 92.2464 51.591 92.5775 51.9179 92.8185L55.2644 95.2859L53.3795 97.2271C53.0372 97.5789 52.83 98.0401 52.7943 98.5297C52.7586 99.0192 52.8967 99.5056 53.1844 99.9034L63.4513 114.135H50.1743L50.5906 105.351C50.7956 101.006 49.4351 96.7315 46.7563 93.3046ZM108.5 113.969C108.45 114.022 108.39 114.064 108.324 114.092C108.257 114.121 108.186 114.135 108.113 114.135H99.1812L98.7598 105.239C98.5813 101.457 99.7655 97.7371 102.097 94.7544L104.137 92.1452C105.837 93.4609 107.077 95.3575 107.621 97.5224C107.627 97.5476 107.633 97.5729 107.639 97.5981C107.664 97.7026 107.689 97.8076 107.711 97.9132C107.738 98.0412 107.762 98.1697 107.784 98.2993C107.794 98.3584 107.802 98.418 107.811 98.4773C107.859 98.7949 107.892 99.1145 107.911 99.435L108.646 113.575C108.65 113.647 108.639 113.719 108.614 113.787C108.589 113.855 108.55 113.917 108.5 113.969Z" fill="#232323"/>
<path d="M114.381 41.6732V42.7421L110.127 52.3628L109.595 53.4318H108V50.7594L112.254 41.1387L114.381 41.6732ZM140.967 52.3628V57.1732H139.903L138.84 55.0353L134.586 44.8801L134.055 43.2766L137.133 42.2451L140.967 52.3628Z" fill="#E9EDF5"/>
<path d="M137.135 42.2443L136.715 41.1379L140.969 39V52.3621L137.135 42.2443Z" fill="#4A9BF6"/>
<path d="M112.254 40.6035V41.1379L108 50.7587V39L112.254 40.6035Z" fill="#00C7B1"/>
<path d="M122.346 60.6357C122.488 60.7419 122.608 60.8754 122.699 61.0285C122.79 61.1816 122.849 61.3512 122.875 61.5276C122.9 61.704 122.89 61.8837 122.846 62.0562C122.802 62.2288 122.724 62.3909 122.617 62.5331L122.548 62.624L123.298 63.244L122.676 64.1793C122.579 64.326 122.448 64.4463 122.294 64.5293C122.14 64.6124 121.968 64.6556 121.793 64.655H121.368C120.976 64.6552 120.592 64.538 120.267 64.3183L120.054 64.1793C119.782 63.9969 119.559 63.7497 119.405 63.4596C119.251 63.1696 119.171 62.8458 119.172 62.5171L119.826 61.694L120.613 60.796C120.66 60.7372 120.708 60.6784 120.751 60.6196C120.983 60.449 121.263 60.3583 121.551 60.3612C121.838 60.3641 122.117 60.4604 122.346 60.6357ZM117.683 62.5491L116.656 61.7474C116.542 61.66 116.447 61.5498 116.378 61.4237C116.308 61.2976 116.265 61.1583 116.252 61.0147C116.238 60.8711 116.254 60.7262 116.299 60.5892C116.344 60.4522 116.417 60.3261 116.513 60.2188L117.752 58.8024L117.954 58.5726C118.254 58.2343 118.671 58.023 119.12 57.9814C119.569 57.9397 120.017 58.0707 120.373 58.3481C120.712 58.6073 120.94 58.9866 121.01 59.4087C121.08 59.8307 120.987 60.2638 120.751 60.6196C120.648 60.6889 120.557 60.7736 120.48 60.8708L119.826 61.694L119.198 62.4102C119.01 62.6216 118.749 62.7535 118.468 62.7793C118.186 62.8051 117.906 62.7228 117.683 62.5491ZM113.083 58.0595C113.072 58.0696 113.062 58.0824 113.057 58.0969C112.847 58.2072 112.611 58.2547 112.375 58.2339C112.139 58.213 111.915 58.1247 111.727 57.9793L110.589 57.092C110.463 56.9943 110.357 56.8714 110.279 56.731C110.202 56.5905 110.154 56.4355 110.138 56.2756C110.123 56.1156 110.14 55.9542 110.19 55.8014C110.239 55.6485 110.319 55.5075 110.425 55.387L111.839 53.7729L112.03 53.5591C112.365 53.1841 112.829 52.9503 113.328 52.9047C113.827 52.8591 114.325 53.005 114.721 53.3132C114.947 53.489 115.13 53.7142 115.256 53.9717C115.382 54.2291 115.448 54.5121 115.449 54.7991C115.448 55.1863 115.328 55.5636 115.104 55.8788C114.95 55.9767 114.811 56.0954 114.689 56.2315L113.083 58.0595Z" fill="#FA9D82"/>
<path d="M117.373 55.986C116.976 55.6778 116.478 55.5319 115.979 55.5775C115.48 55.6231 115.017 55.8569 114.682 56.2319L113.076 58.0598C113.064 58.0699 113.055 58.0828 113.05 58.0973C112.951 58.2182 112.877 58.358 112.833 58.5083C112.788 58.6586 112.775 58.8163 112.793 58.9719C112.811 59.1276 112.86 59.278 112.937 59.4143C113.014 59.5505 113.117 59.6697 113.241 59.7648L114.379 60.6521C114.626 60.845 114.938 60.9363 115.249 60.9075C115.561 60.8788 115.851 60.7321 116.059 60.4971L117.633 58.7066C117.934 58.3664 118.101 57.9271 118.101 57.4719C118.1 57.1849 118.034 56.9019 117.907 56.6445C117.781 56.387 117.598 56.1618 117.373 55.986ZM131.937 53.335C126.093 52.5707 126.077 47.6107 126.077 47.5519H123.95C123.949 48.402 123.612 49.217 123.014 49.8181C122.416 50.4192 121.605 50.7575 120.76 50.7588C120.337 50.7588 119.931 50.5898 119.632 50.2891C119.333 49.9884 119.164 49.5806 119.164 49.1553L120.228 44.345L123.987 42.8324L125.545 42.207H128.204L134.585 44.8795L138.838 55.0347L135.648 57.1726L131.926 53.4312L131.937 53.335Z" fill="#FA9D82"/>
<path d="M120.366 58.3491C120.009 58.0718 119.561 57.9407 119.112 57.9824C118.663 58.0241 118.247 58.2353 117.947 58.5736L117.745 58.8034L117.633 58.7072C117.934 58.3671 118.1 57.9278 118.101 57.4726C118.1 57.1856 118.033 56.9026 117.907 56.6451C117.781 56.3877 117.598 56.1625 117.372 55.9867C117.05 55.7365 116.658 55.5921 116.251 55.573C115.844 55.5539 115.441 55.661 115.097 55.8798C115.32 55.5646 115.441 55.1874 115.442 54.8002C115.441 54.5131 115.375 54.2302 115.249 53.9727C115.122 53.7153 114.939 53.4901 114.714 53.3143C114.317 53.0061 113.82 52.8601 113.32 52.9057C112.821 52.9513 112.358 53.1851 112.023 53.5602L111.832 53.7739L110.125 52.3629L114.379 42.7422H123.95L123.987 42.833L120.228 44.3456L119.164 49.156C119.164 49.5813 119.332 49.9891 119.632 50.2898C119.931 50.5905 120.336 50.7595 120.759 50.7595C121.605 50.7582 122.416 50.4199 123.014 49.8188C123.612 49.2176 123.949 48.4027 123.95 47.5525H126.077C126.077 47.6113 126.093 52.5714 131.936 53.3357L131.926 53.4319L135.648 57.1733L136.27 57.7986C136.48 58.0101 136.623 58.2796 136.681 58.5728C136.739 58.8661 136.709 59.17 136.596 59.4463C136.482 59.7225 136.289 59.9587 136.042 60.1249C135.795 60.2911 135.504 60.3799 135.206 60.3802C134.611 60.3808 134.029 60.2001 133.537 59.8617C133.841 60.1717 134.024 60.5815 134.053 61.0162V61.5133C134.052 61.9215 133.891 62.3129 133.604 62.6016C133.317 62.8902 132.927 63.0525 132.521 63.0526C132.138 63.0514 131.769 62.9087 131.484 62.6517L130.862 62.0852V63.1167C130.862 63.5249 130.701 63.9164 130.414 64.205C130.126 64.4937 129.737 64.6559 129.331 64.656C128.948 64.6548 128.579 64.5122 128.294 64.2552L127.13 63.1916C127.105 63.5689 126.944 63.9243 126.678 64.191C126.404 64.4662 126.04 64.6308 125.653 64.6534C125.267 64.6761 124.886 64.5553 124.583 64.314L123.291 63.245L122.541 62.625L122.61 62.5341C122.717 62.3919 122.794 62.2299 122.839 62.0573C122.883 61.8847 122.893 61.7051 122.867 61.5287C122.842 61.3523 122.783 61.1826 122.692 61.0296C122.601 60.8765 122.481 60.743 122.339 60.6367C122.11 60.4614 121.831 60.3651 121.544 60.3622C121.256 60.3594 120.976 60.45 120.744 60.6207C120.98 60.2649 121.073 59.8318 121.003 59.4097C120.932 58.9876 120.705 58.6083 120.366 58.3491Z" fill="#FFC9BD"/>
<path d="M114.72 53.314C114.558 53.1901 114.377 53.0926 114.185 53.0254C114.336 53.1542 114.46 53.3132 114.547 53.4924C114.634 53.6716 114.684 53.867 114.692 54.0664C114.701 54.2657 114.668 54.4647 114.596 54.6506C114.524 54.8366 114.414 55.0055 114.274 55.1468L112.932 56.4963C112.747 56.6824 112.5 56.7934 112.238 56.808C111.977 56.8226 111.719 56.7398 111.515 56.5754L110.285 55.5856C110.146 55.8314 110.1 56.1194 110.156 56.3964C110.212 56.6734 110.366 56.9208 110.589 57.0928L111.727 57.9801C111.914 58.1254 112.139 58.2138 112.374 58.2346C112.61 58.2555 112.846 58.2079 113.056 58.0976C113.062 58.0832 113.071 58.0703 113.083 58.0602L114.688 56.2323C114.81 56.0962 114.949 55.9775 115.103 55.8795C115.327 55.5644 115.448 55.1871 115.449 54.7999C115.448 54.5129 115.381 54.2299 115.255 53.9724C115.129 53.715 114.946 53.4898 114.72 53.314Z" fill="#EB8669"/>
<path d="M117.374 55.9855C117.216 55.8625 117.04 55.7646 116.853 55.6953L116.92 55.746C117.072 55.8609 117.199 56.0056 117.294 56.1714C117.389 56.3372 117.449 56.5206 117.471 56.7106C117.493 56.9005 117.477 57.093 117.423 57.2763C117.369 57.4597 117.278 57.63 117.156 57.7771L116.111 59.0379C115.933 59.2529 115.678 59.389 115.401 59.4171C115.124 59.4452 114.847 59.363 114.63 59.1881L113.141 57.9887L113.08 58.0577C113.068 58.0678 113.059 58.0806 113.054 58.0951C112.954 58.2161 112.881 58.3559 112.837 58.5061C112.792 58.6564 112.779 58.8141 112.797 58.9698C112.815 59.1255 112.863 59.2759 112.941 59.4121C113.018 59.5484 113.121 59.6676 113.245 59.7627L114.38 60.6515C114.628 60.8445 114.939 60.9357 115.251 60.907C115.563 60.8782 115.852 60.7315 116.06 60.4965L117.634 58.706C117.935 58.3659 118.102 57.9266 118.102 57.4714C118.101 57.1843 118.035 56.9014 117.909 56.6439C117.782 56.3865 117.6 56.1613 117.374 55.9855ZM120.367 58.3479C120.315 58.3091 120.261 58.2734 120.204 58.241C120.333 58.433 120.397 58.6619 120.385 58.8933C120.373 59.1246 120.287 59.3459 120.139 59.5238L118.77 61.1759C118.591 61.3908 118.336 61.5269 118.059 61.555C117.782 61.5831 117.506 61.5009 117.288 61.3261L116.315 60.5446C116.233 60.7546 116.222 60.9855 116.283 61.2024C116.343 61.4193 116.472 61.6106 116.651 61.7472L117.677 62.549C117.9 62.7227 118.181 62.8049 118.462 62.7791C118.743 62.7533 119.004 62.6214 119.192 62.41L119.82 61.6938L120.474 60.8707C120.551 60.7734 120.642 60.6887 120.745 60.6195C120.982 60.2637 121.074 59.8306 121.004 59.4085C120.934 58.9864 120.706 58.6071 120.367 58.3479ZM122.303 62.9445C122.154 63.1436 121.962 63.3053 121.74 63.4166C121.519 63.5279 121.274 63.5859 121.027 63.5859H120.761C120.416 63.585 120.081 63.4716 119.806 63.2628C119.531 63.054 119.331 62.7611 119.236 62.4282L119.166 62.5169C119.165 62.8456 119.245 63.1695 119.399 63.4595C119.553 63.7495 119.776 63.9967 120.048 64.1791L120.261 64.3181C120.587 64.5378 120.97 64.655 121.362 64.6548H121.787C121.962 64.6554 122.134 64.6122 122.288 64.5292C122.442 64.4461 122.574 64.3258 122.67 64.1791L123.292 63.2438L122.542 62.6238L122.303 62.9445ZM134.586 44.8789V50.4375C134.586 50.9985 134.41 51.5453 134.084 52.0003C133.758 52.4554 133.297 52.7958 132.768 52.9731L131.764 53.3093C131.823 53.3179 131.878 53.3286 131.938 53.3366L131.927 53.4307L135.649 57.172L138.84 55.0341L134.586 44.8789ZM125.546 46.4824H123.845C123.728 46.4818 123.614 46.5204 123.521 46.592C123.429 46.6636 123.362 46.7642 123.332 46.8779C123.11 47.7352 122.421 49.6893 120.761 49.6893H120.021C119.83 49.6889 119.644 49.624 119.494 49.505C119.344 49.386 119.238 49.2198 119.193 49.0329L119.166 49.1548C119.166 49.58 119.334 49.9879 119.633 50.2886C119.932 50.5893 120.338 50.7582 120.761 50.7582C121.607 50.757 122.417 50.4187 123.015 49.8175C123.613 49.2164 123.95 48.4015 123.951 47.5513H126.078V47.0168C126.078 46.8751 126.022 46.7391 125.922 46.6389C125.823 46.5387 125.687 46.4824 125.546 46.4824Z" fill="#EB8669"/>
<path d="M129.99 63.8454L125.056 59.2675C124.759 58.9919 124.367 58.8426 123.963 58.8508C123.559 58.859 123.173 59.024 122.888 59.3113L126.787 62.8747L126.59 63.072C126.306 63.3575 125.925 63.5247 125.524 63.5401C125.122 63.5556 124.73 63.4182 124.425 63.1553L122.874 61.8191C122.855 62.0779 122.763 62.3258 122.608 62.5337L122.539 62.6246L123.289 63.2446L124.581 64.3136C124.885 64.5549 125.266 64.6757 125.652 64.653C126.038 64.6304 126.403 64.4658 126.676 64.1906C126.943 63.9239 127.103 63.5685 127.128 63.1911L128.293 64.2548C128.578 64.5117 128.947 64.6544 129.329 64.6556C129.558 64.655 129.783 64.6026 129.989 64.5024C130.195 64.4022 130.375 64.2567 130.517 64.0768C130.321 64.0613 130.135 63.9798 129.99 63.8454ZM117.57 50.7596C117.57 51.1848 117.738 51.5927 118.038 51.8934C118.337 52.1941 118.742 52.363 119.165 52.363C119.779 52.3622 120.38 52.1837 120.895 51.8487C121.411 51.5137 121.819 51.0365 122.072 50.4742C121.66 50.6624 121.213 50.7597 120.761 50.7596C120.338 50.7596 119.932 50.5906 119.633 50.2899C119.334 49.9892 119.165 49.5814 119.165 49.1561L119.996 45.4014L118.634 45.9492L117.57 50.7596ZM132.771 61.8266L128.152 57.5678C127.88 57.3179 127.523 57.1829 127.155 57.1909C126.787 57.199 126.437 57.3495 126.176 57.6111L126.078 57.7079L130.863 62.081V62.0853L131.486 62.6519C131.771 62.9088 132.14 63.0515 132.522 63.0527C132.845 63.0518 133.159 62.9482 133.42 62.7566C133.68 62.565 133.874 62.2954 133.972 61.9864C133.78 62.0859 133.562 62.1238 133.347 62.0953C133.132 62.0667 132.931 61.973 132.771 61.8266ZM135.266 59.531L130.206 54.8361C129.953 54.6026 129.621 54.4761 129.278 54.4831C128.935 54.4901 128.609 54.6299 128.366 54.8735L128.205 55.0354L133.606 59.9479C133.578 59.9142 133.553 59.8757 133.522 59.8458C133.552 59.8757 133.575 59.9142 133.606 59.9479L133.612 59.9532C133.587 59.9238 133.564 59.8886 133.538 59.8618C134.03 60.2002 134.612 60.381 135.208 60.3803C135.457 60.3812 135.703 60.3189 135.923 60.1992C136.143 60.0794 136.329 59.9061 136.464 59.6951C136.272 59.7942 136.053 59.8316 135.839 59.8023C135.625 59.7729 135.425 59.6782 135.266 59.531Z" fill="#FFB4A3"/>
<path d="M131.861 53.325C126.095 52.5265 126.077 47.6108 126.077 47.5525H123.95C123.95 48.1159 123.802 48.6692 123.52 49.156H124.482C124.538 50.3532 124.955 51.5048 125.677 52.4591C126.398 53.4133 127.39 54.1252 128.523 54.5008H129.116C129.25 54.4803 129.386 54.4803 129.52 54.5008H130.331C130.679 54.5002 131.017 54.3848 131.293 54.1724C131.57 53.96 131.769 53.6623 131.861 53.325ZM114.379 42.7422L110.125 52.3629L111.807 53.7531L116.288 42.7422H114.379Z" fill="#FFB4A3"/>
</svg>
