<svg width="147" height="112" viewBox="0 0 147 112" fill="none" xmlns="http://www.w3.org/2000/svg">
<path d="M61.0706 18.0387C61.718 18.0387 62.2428 17.5401 62.2428 16.9251C62.2428 16.3101 61.718 15.8115 61.0706 15.8115C60.4232 15.8115 59.8984 16.3101 59.8984 16.9251C59.8984 17.5401 60.4232 18.0387 61.0706 18.0387Z" fill="#FF7D5F"/>
<path d="M67.1449 22.7448C67.7922 22.7448 68.3171 22.2462 68.3171 21.6312C68.3171 21.0161 67.7922 20.5176 67.1449 20.5176C66.4975 20.5176 65.9727 21.0161 65.9727 21.6312C65.9727 22.2462 66.4975 22.7448 67.1449 22.7448Z" fill="#FF7D5F"/>
<path d="M74.2405 14.8743C74.6983 14.4394 74.6983 13.7343 74.2405 13.2994C73.7827 12.8646 73.0405 12.8646 72.5828 13.2995C72.125 13.7344 72.125 14.4395 72.5828 14.8743C73.0406 15.3092 73.7828 15.3092 74.2405 14.8743Z" fill="#FF7D5F"/>
<path d="M77.8317 21.5456C78.4298 21.3102 78.7138 20.6588 78.4661 20.0906C78.2183 19.5224 77.5326 19.2526 76.9345 19.4879C76.3364 19.7233 76.0524 20.3747 76.3001 20.9429C76.5479 21.5111 77.2336 21.7809 77.8317 21.5456Z" fill="#FF7D5F"/>
<path d="M84.0711 27.522C84.2164 26.9227 83.8227 26.325 83.1918 26.1869C82.561 26.0489 81.9318 26.4229 81.7865 27.0222C81.6412 27.6216 82.0349 28.2193 82.6657 28.3573C83.2966 28.4953 83.9258 28.1214 84.0711 27.522Z" fill="#FF7D5F"/>
<path d="M66.5981 20.6515L62.1907 17.2368C62.1469 17.3789 62.0736 17.5113 61.9751 17.626C61.8766 17.7407 61.7549 17.8356 61.6172 17.9049L66.0247 21.3197C66.0685 21.1776 66.1417 21.0452 66.2402 20.9305C66.3387 20.8157 66.4604 20.7209 66.5981 20.6515ZM76.3629 21.0619C76.2667 20.9004 76.2074 20.7163 76.2074 20.5175C76.2074 20.4083 76.2291 20.3051 76.2598 20.2054L68.1613 21.0866C68.2574 21.2482 68.3168 21.4322 68.3168 21.6311C68.3168 21.7402 68.2951 21.8435 68.2644 21.9431L76.3629 21.0619ZM82.6226 26.2009L78.3987 21.0575C78.3228 21.1869 78.2204 21.3005 78.0976 21.3917C77.9748 21.4829 77.834 21.5497 77.6835 21.5884L81.9071 26.7316C81.983 26.6023 82.0855 26.4887 82.2083 26.3975C82.3312 26.3064 82.4721 26.2395 82.6226 26.2009ZM72.4694 14.7472C72.3252 14.5622 72.237 14.3354 72.237 14.0875C72.237 14.0264 72.246 13.9677 72.2559 13.9092L62.0107 16.2656C62.1549 16.4506 62.2431 16.6774 62.2431 16.9253C62.2431 16.9864 62.2341 17.0451 62.2242 17.1036L72.4694 14.7472ZM74.3452 14.7515C74.2519 14.8702 74.1345 14.9698 73.9999 15.0445C73.8653 15.1192 73.7164 15.1675 73.5618 15.1865L76.4435 19.8536C76.5368 19.735 76.6542 19.6354 76.7888 19.5607C76.9233 19.4859 77.0723 19.4376 77.2269 19.4186L74.3452 14.7515ZM78.5711 27.0014H78.1495V26.6009C78.1495 26.4835 78.1004 26.3709 78.013 26.2879C77.9256 26.2048 77.8071 26.1582 77.6835 26.1582C77.5599 26.1582 77.4414 26.2048 77.354 26.2879C77.2666 26.3709 77.2175 26.4835 77.2175 26.6009V27.0014H76.7959C76.6723 27.0014 76.5538 27.0481 76.4664 27.1311C76.379 27.2141 76.3299 27.3267 76.3299 27.4441C76.3299 27.5615 76.379 27.6741 76.4664 27.7572C76.5538 27.8402 76.6723 27.8868 76.7959 27.8868H77.2175V28.2872C77.2175 28.4046 77.2666 28.5173 77.354 28.6003C77.4414 28.6833 77.5599 28.7299 77.6835 28.7299C77.8071 28.7299 77.9256 28.6833 78.013 28.6003C78.1004 28.5173 78.1495 28.4046 78.1495 28.2872V27.8868H78.5711C78.6947 27.8868 78.8132 27.8402 78.9006 27.7572C78.988 27.6741 79.0371 27.5615 79.0371 27.4441C79.0371 27.3267 78.988 27.2141 78.9006 27.1311C78.8132 27.0481 78.6947 27.0014 78.5711 27.0014ZM75.3445 29.2285H74.9229V28.828C74.9229 28.7106 74.8738 28.598 74.7864 28.5149C74.699 28.4319 74.5805 28.3853 74.4569 28.3853C74.3333 28.3853 74.2148 28.4319 74.1274 28.5149C74.04 28.598 73.9909 28.7106 73.9909 28.828V29.2285H73.5693C73.4457 29.2285 73.3272 29.2751 73.2398 29.3582C73.1524 29.4412 73.1033 29.5538 73.1033 29.6712C73.1033 29.7886 73.1524 29.9012 73.2398 29.9842C73.3272 30.0673 73.4457 30.1139 73.5693 30.1139H73.9909V30.5143C73.9909 30.6317 74.04 30.7443 74.1274 30.8274C74.2148 30.9104 74.3333 30.957 74.4569 30.957C74.5805 30.957 74.699 30.9104 74.7864 30.8274C74.8738 30.7443 74.9229 30.6317 74.9229 30.5143V30.1139H75.3445C75.4681 30.1139 75.5866 30.0673 75.674 29.9842C75.7614 29.9012 75.8105 29.7886 75.8105 29.6712C75.8105 29.5538 75.7614 29.4412 75.674 29.3582C75.5866 29.2751 75.4681 29.2285 75.3445 29.2285ZM74.7084 26.3812C74.7103 26.4705 74.6935 26.5593 74.6588 26.6424C74.6241 26.7255 74.5724 26.8012 74.5065 26.8651C74.4407 26.9289 74.3621 26.9796 74.2753 27.0142C74.1886 27.0489 74.0955 27.0667 74.0014 27.0667C73.9073 27.0667 73.8142 27.0488 73.7274 27.0142C73.6407 26.9796 73.5621 26.9288 73.4963 26.865C73.4305 26.8011 73.3787 26.7254 73.344 26.6424C73.3094 26.5593 73.2925 26.4704 73.2945 26.3811C73.2983 26.2053 73.3745 26.038 73.5067 25.9151C73.6388 25.7921 73.8165 25.7232 74.0015 25.7232C74.1865 25.7232 74.3641 25.7921 74.4963 25.9151C74.6284 26.0381 74.7046 26.2054 74.7084 26.3812Z" fill="#FFDA88"/>
<path d="M73.8616 26.3806C73.8617 26.2499 73.9019 26.1221 73.9774 26.0129C74.0528 25.9036 74.1602 25.8176 74.2864 25.7655C74.1974 25.7282 74.1012 25.709 74.004 25.709C73.8164 25.709 73.6366 25.7798 73.504 25.9057C73.3714 26.0317 73.2969 26.2026 73.2969 26.3807C73.2969 26.5589 73.3714 26.7297 73.504 26.8557C73.6366 26.9817 73.8164 27.0525 74.004 27.0525C74.1012 27.0524 74.1974 27.0332 74.2864 26.996C74.1602 26.9438 74.0528 26.8578 73.9774 26.7485C73.9019 26.6392 73.8617 26.5113 73.8616 26.3806Z" fill="#FFE2A9"/>
<path d="M64.5752 25.8007H64.1536V25.4003C64.1536 25.2828 64.1045 25.1702 64.0171 25.0872C63.9297 25.0042 63.8112 24.9576 63.6876 24.9576C63.564 24.9576 63.4455 25.0042 63.3581 25.0872C63.2707 25.1702 63.2216 25.2828 63.2216 25.4003V25.8007H62.8C62.6764 25.8007 62.5579 25.8473 62.4705 25.9303C62.3831 26.0134 62.334 26.126 62.334 26.2434C62.334 26.3608 62.3831 26.4734 62.4705 26.5564C62.5579 26.6394 62.6764 26.6861 62.8 26.6861H63.2216V27.0865C63.2216 27.2039 63.2707 27.3165 63.3581 27.3995C63.4455 27.4826 63.564 27.5292 63.6876 27.5292C63.8112 27.5292 63.9297 27.4826 64.0171 27.3995C64.1045 27.3165 64.1536 27.2039 64.1536 27.0865V26.6861H64.5752C64.6988 26.6861 64.8173 26.6394 64.9047 26.5564C64.9921 26.4734 65.0412 26.3608 65.0412 26.2434C65.0412 26.126 64.9921 26.0134 64.9047 25.9303C64.8173 25.8473 64.6988 25.8007 64.5752 25.8007ZM83.5099 9.88609H83.0884V9.48567C83.0884 9.36826 83.0393 9.25566 82.9519 9.17263C82.8645 9.08961 82.746 9.04297 82.6224 9.04297C82.4988 9.04297 82.3803 9.08961 82.2929 9.17263C82.2055 9.25566 82.1564 9.36826 82.1564 9.48567V9.88609H81.7348C81.6112 9.88609 81.4927 9.93274 81.4053 10.0158C81.3179 10.0988 81.2688 10.2114 81.2688 10.3288C81.2688 10.4462 81.3179 10.5588 81.4053 10.6418C81.4927 10.7249 81.6112 10.7715 81.7348 10.7715H82.1564V11.1719C82.1564 11.2893 82.2055 11.4019 82.2929 11.485C82.3803 11.568 82.4988 11.6146 82.6224 11.6146C82.746 11.6146 82.8645 11.568 82.9519 11.485C83.0393 11.4019 83.0884 11.2893 83.0884 11.1719V10.7715H83.5099C83.6335 10.7715 83.752 10.7248 83.8394 10.6418C83.9268 10.5588 83.9759 10.4462 83.976 10.3288C83.9759 10.2114 83.9268 10.0988 83.8394 10.0158C83.752 9.93277 83.6335 9.88612 83.5099 9.88609ZM80.2831 11.5146H79.8616V11.1142C79.8616 10.9967 79.8125 10.8841 79.7251 10.8011C79.6377 10.7181 79.5192 10.6715 79.3956 10.6715C79.272 10.6715 79.1535 10.7181 79.0661 10.8011C78.9787 10.8841 78.9296 10.9967 78.9296 11.1142V11.5146H78.5081C78.3845 11.5146 78.266 11.5612 78.1786 11.6442C78.0912 11.7273 78.0421 11.8399 78.0421 11.9573C78.0421 12.0747 78.0912 12.1873 78.1786 12.2703C78.266 12.3533 78.3845 12.4 78.5081 12.4H78.9296V12.8004C78.9296 12.9178 78.9787 13.0304 79.0661 13.1134C79.1535 13.1965 79.272 13.2431 79.3956 13.2431C79.5192 13.2431 79.6377 13.1965 79.7251 13.1134C79.8125 13.0304 79.8616 12.9178 79.8616 12.8004V12.4H80.2831C80.4067 12.4 80.5252 12.3533 80.6126 12.2703C80.7 12.1873 80.7491 12.0747 80.7491 11.9573C80.7491 11.8399 80.7 11.7273 80.6126 11.6442C80.5252 11.5612 80.4067 11.5146 80.2831 11.5146ZM62.1797 23.6193C62.1816 23.7087 62.1647 23.7975 62.1301 23.8806C62.0954 23.9637 62.0437 24.0394 61.9778 24.1032C61.912 24.167 61.8334 24.2178 61.7466 24.2524C61.6599 24.287 61.5668 24.3048 61.4727 24.3048C61.3786 24.3048 61.2855 24.287 61.1987 24.2523C61.112 24.2177 61.0334 24.167 60.9676 24.1031C60.9017 24.0393 60.85 23.9636 60.8153 23.8805C60.7807 23.7974 60.7638 23.7086 60.7658 23.6192C60.7696 23.4435 60.8458 23.2762 60.9779 23.1532C61.1101 23.0302 61.2878 22.9613 61.4728 22.9613C61.6578 22.9613 61.8354 23.0302 61.9676 23.1533C62.0997 23.2763 62.1759 23.4436 62.1797 23.6193ZM82.6827 14.087C82.6827 14.1752 82.6645 14.2625 82.629 14.344C82.5935 14.4255 82.5415 14.4996 82.4759 14.5619C82.4102 14.6243 82.3323 14.6738 82.2466 14.7076C82.1608 14.7413 82.0689 14.7587 81.9761 14.7587C81.7885 14.7587 81.6087 14.688 81.4761 14.562C81.3435 14.436 81.269 14.2652 81.269 14.087C81.269 13.9088 81.3435 13.738 81.4761 13.612C81.6087 13.486 81.7885 13.4152 81.9761 13.4152C82.0689 13.4153 82.1608 13.4326 82.2466 13.4664C82.3323 13.5002 82.4102 13.5497 82.4759 13.6121C82.5415 13.6744 82.5935 13.7485 82.629 13.83C82.6645 13.9115 82.6827 13.9988 82.6827 14.087Z" fill="#FFDA88"/>
<path d="M60.6043 16.9251C60.6043 16.4276 60.9498 16.0114 61.4235 15.8686C61.3116 15.8347 61.1946 15.8115 61.0706 15.8115C60.4232 15.8115 59.8984 16.31 59.8984 16.9251C59.8984 17.5401 60.4232 18.0387 61.0706 18.0387C61.1945 18.0387 61.3115 18.0155 61.4235 17.9816C60.9498 17.8387 60.6043 17.4225 60.6043 16.9251ZM66.678 21.6308C66.678 21.1334 67.0235 20.7172 67.4972 20.5743C67.3852 20.5404 67.2683 20.5172 67.1443 20.5172C66.4969 20.5172 65.9721 21.0158 65.9721 21.6308C65.9721 22.2458 66.4969 22.7444 67.1443 22.7444C67.2682 22.7444 67.3852 22.7212 67.4972 22.6873C67.0235 22.5444 66.678 22.1282 66.678 21.6308ZM72.9426 14.0872C72.9426 13.5898 73.2881 13.1736 73.7618 13.0307C73.6498 12.9968 73.5329 12.9736 73.4089 12.9736C72.7615 12.9736 72.2367 13.4722 72.2367 14.0872C72.2367 14.7023 72.7615 15.2008 73.4089 15.2008C73.5328 15.2008 73.6498 15.1776 73.7618 15.1437C73.2881 15.0008 72.9426 14.5847 72.9426 14.0872ZM76.9129 20.5172C76.9129 20.0198 77.2584 19.6036 77.7321 19.4607C77.6201 19.4268 77.5032 19.4036 77.3792 19.4036C76.7318 19.4036 76.207 19.9022 76.207 20.5172C76.207 21.1322 76.7318 21.6308 77.3792 21.6308C77.5031 21.6308 77.6201 21.6076 77.7321 21.5737C77.2584 21.4308 76.9129 21.0147 76.9129 20.5172ZM82.4598 27.2715C82.4598 26.7741 82.8051 26.3579 83.2787 26.215C83.1671 26.1811 83.0501 26.1579 82.926 26.1579C82.2785 26.1579 81.7538 26.6565 81.7538 27.2715C81.7538 27.8865 82.2785 28.3851 82.926 28.3851C83.0501 28.3851 83.1671 28.362 83.2787 28.328C82.8051 28.1851 82.4598 27.7689 82.4598 27.2715Z" fill="#FF9D8D"/>
<path d="M61.3303 23.62C61.3304 23.4893 61.3706 23.3615 61.4461 23.2522C61.5216 23.1429 61.629 23.0569 61.7551 23.0048C61.6661 22.9676 61.57 22.9483 61.4727 22.9483C61.2852 22.9483 61.1053 23.0191 60.9727 23.1451C60.8401 23.271 60.7656 23.4419 60.7656 23.6201C60.7656 23.7982 60.8401 23.9691 60.9727 24.0951C61.1053 24.221 61.2852 24.2918 61.4727 24.2918C61.57 24.2918 61.6661 24.2725 61.7551 24.2353C61.629 24.1831 61.5216 24.0971 61.4461 23.9878C61.3707 23.8785 61.3304 23.7507 61.3303 23.62ZM81.8336 14.0877C81.8337 13.957 81.874 13.8292 81.9495 13.7199C82.0249 13.6107 82.1323 13.5247 82.2584 13.4725C82.1695 13.4352 82.0733 13.416 81.976 13.416C81.7885 13.416 81.6086 13.4868 81.476 13.6128C81.3434 13.7387 81.2689 13.9096 81.2689 14.0878C81.2689 14.2659 81.3434 14.4368 81.476 14.5628C81.6086 14.6887 81.7885 14.7595 81.976 14.7595C82.0733 14.7595 82.1694 14.7402 82.2584 14.703C82.1323 14.6508 82.0249 14.5648 81.9494 14.4555C81.874 14.3462 81.8337 14.2184 81.8336 14.0877Z" fill="#FFE2A9"/>
<path d="M26.3276 49.7666H36.884C37.7959 49.7666 38.5358 50.5065 38.5358 51.4184V61.1962L35.9376 58.9292H26.3276C25.4157 58.9292 24.6758 58.1893 24.6758 57.2773V51.4184C24.6758 50.5065 25.4157 49.7666 26.3276 49.7666Z" fill="#BCBEC0"/>
<path d="M38.5401 50.0982V55.957C38.5401 56.869 37.8002 57.6089 36.8883 57.6089H26.3276C25.4157 57.6089 24.6758 56.869 24.6758 55.957V50.0982C24.6758 49.1862 25.4157 48.4463 26.3276 48.4463H36.884C37.8002 48.442 38.5401 49.1862 38.5401 50.0982Z" fill="#FFC224"/>
<path d="M35.9375 57.6083L38.54 59.8753V54.3477H35.9375V57.6083Z" fill="#F1C051"/>
<path d="M27.2142 51.5561H35.6326C35.839 51.5561 36.0068 51.3884 36.0068 51.1819V51.1604C36.0068 50.9539 35.839 50.7861 35.6326 50.7861H27.2142C27.0077 50.7861 26.8399 50.9539 26.8399 51.1604V51.1819C26.8356 51.3884 27.0034 51.5561 27.2142 51.5561ZM27.2142 53.5521H35.6326C35.839 53.5521 36.0068 53.3843 36.0068 53.1779V53.1564C36.0068 52.9499 35.839 52.7821 35.6326 52.7821H27.2142C27.0077 52.7821 26.8399 52.9499 26.8399 53.1564V53.1779C26.8356 53.3843 27.0034 53.5521 27.2142 53.5521ZM27.2142 55.5481H35.6326C35.839 55.5481 36.0068 55.3803 36.0068 55.1738V55.1523C36.0068 54.9459 35.839 54.7781 35.6326 54.7781H27.2142C27.0077 54.7781 26.8399 54.9459 26.8399 55.1523V55.1738C26.8356 55.3803 27.0034 55.5481 27.2142 55.5481Z" fill="#D1D3D4"/>
<path d="M33.7695 48.4414V52.6915C33.7695 53.6034 33.0296 54.3433 32.1177 54.3433H24.6758V50.0933C24.6758 49.1813 25.4157 48.4414 26.3276 48.4414H33.7695Z" fill="#D1D3D4"/>
<path d="M33.7655 52.7822H27.2141C27.0076 52.7822 26.8398 52.95 26.8398 53.1565V53.178C26.8398 53.3845 27.0076 53.5522 27.2141 53.5522H33.529C33.6666 53.3242 33.7526 53.0618 33.7655 52.7822Z" fill="#BCBEC0"/>
<path d="M32.1187 44.3203H21.5581C20.6461 44.3203 19.9062 45.0602 19.9062 45.9722V55.7542L22.5045 53.4872H32.1144C33.0264 53.4872 33.7663 52.7473 33.7663 51.8353V45.9722C33.7706 45.0602 33.0307 44.3203 32.1187 44.3203Z" fill="#136DA0"/>
<path d="M32.1187 52.1626H21.5581C20.6461 52.1626 19.9062 51.4227 19.9062 50.5107V44.6518C19.9062 43.7399 20.6461 43 21.5581 43H32.1144C33.0264 43 33.7663 43.7399 33.7663 44.6518V50.5107C33.7706 51.4227 33.0307 52.1626 32.1187 52.1626Z" fill="#1CAEE4"/>
<path d="M22.5088 52.163L19.9062 54.43V48.9023H22.5088V52.163Z" fill="#1CAEE4"/>
<path d="M31.2336 46.1147H22.8196C22.6131 46.1147 22.4453 45.947 22.4453 45.7405V45.719C22.4453 45.5125 22.6131 45.3447 22.8196 45.3447H31.2379C31.4444 45.3447 31.6122 45.5125 31.6122 45.719V45.7405C31.6122 45.947 31.4444 46.1147 31.2336 46.1147ZM31.2336 48.1064H22.8196C22.6131 48.1064 22.4453 47.9386 22.4453 47.7322V47.7107C22.4453 47.5042 22.6131 47.3364 22.8196 47.3364H31.2379C31.4444 47.3364 31.6122 47.5042 31.6122 47.7107V47.7322C31.6122 47.9386 31.4444 48.1064 31.2336 48.1064ZM31.2336 50.1024H22.8196C22.6131 50.1024 22.4453 49.9346 22.4453 49.7281V49.7066C22.4453 49.5002 22.6131 49.3324 22.8196 49.3324H31.2379C31.4444 49.3324 31.6122 49.5002 31.6122 49.7066V49.7281C31.6122 49.9346 31.4444 50.1024 31.2336 50.1024Z" fill="#136DA0"/>
<path d="M109.085 94.1264C108.824 89.3673 105.679 85.3617 101.232 84.1618L85.7808 80.6759C85.4119 80.5927 79.2718 84.5349 73.3678 84.4924C67.7421 84.452 62.3308 80.4248 62.3308 80.4248L45.7666 84.1618C41.3199 85.3615 38.1748 89.3673 37.9135 94.1264L37.1781 108.266C37.1273 109.244 37.9065 110.065 38.8857 110.065H108.113C109.092 110.065 109.871 109.244 109.821 108.266L109.085 94.1264Z" fill="#C9E7F8"/>
<path d="M76.1762 76.099H70.8895C69.5813 76.099 68.3079 75.7339 67.1931 75.0576L66.7266 79.4459L73.4302 83.7531L80.2634 79.3625L79.8099 75.0966C78.7102 75.7484 77.4597 76.099 76.1762 76.099Z" fill="#FED9A8"/>
<path d="M70.3936 76.0819C70.245 76.0712 70.0968 76.0557 69.9492 76.0355C69.9335 76.0333 69.9177 76.0317 69.902 76.0295C69.7598 76.0091 69.6182 75.9843 69.4775 75.9552L69.4166 75.9429C69.2797 75.9136 69.1438 75.8798 69.009 75.8426C68.986 75.8361 68.9628 75.8298 68.9399 75.8232C68.7825 75.778 68.6268 75.7273 68.4731 75.671C68.3453 75.6245 68.2188 75.5744 68.0938 75.5208C68.0686 75.5099 68.0434 75.4988 68.0182 75.4877C67.894 75.4328 67.7714 75.3743 67.6505 75.3125L67.577 75.2739C67.4561 75.2104 67.3369 75.1435 67.2197 75.0732C67.2112 75.0683 67.2023 75.0639 67.1938 75.0586L67.1406 75.5588C68.0619 76.74 71.8456 80.6303 80.1132 77.9446L79.8104 75.0974L79.8095 75.0979C79.6861 75.1705 79.5605 75.2395 79.4329 75.3047C79.3998 75.3218 79.3664 75.3381 79.333 75.3548C79.2292 75.4062 79.1241 75.4551 79.0181 75.5017C78.9895 75.5142 78.9614 75.5273 78.9327 75.5394C78.8007 75.5952 78.6671 75.647 78.532 75.6948C78.5093 75.7028 78.4861 75.7097 78.4632 75.7175C78.3122 75.7692 78.1596 75.8157 78.0054 75.8569C77.8885 75.8883 77.7711 75.9167 77.6526 75.9422C77.6301 75.947 77.6082 75.9527 77.5858 75.9573C77.4465 75.9855 77.3065 76.0095 77.1658 76.0292C77.1302 76.0342 77.0943 76.038 77.0584 76.0425C76.9488 76.0563 76.8391 76.0676 76.7288 76.0762C76.6881 76.0795 76.6474 76.0828 76.6066 76.0853C76.4638 76.0941 76.3206 76.1 76.1769 76.1H70.8905C70.7338 76.1 70.5775 76.094 70.422 76.0837C70.4125 76.0828 70.4031 76.0827 70.3936 76.0819Z" fill="#F2C18B"/>
<path d="M45.7666 84.1624C41.3199 85.3621 38.1748 89.3678 37.9135 94.1271L37.1781 108.267C37.1273 109.245 37.9065 110.065 38.8857 110.065H65.7518L61.2109 80.6781L45.7666 84.1624ZM109.085 94.1271C108.824 89.3679 105.679 85.3623 101.232 84.1624L85.7648 80.6729L85.7635 80.6736L81.2312 110.065H108.113C109.092 110.065 109.871 109.244 109.82 108.266L109.085 94.1271Z" fill="#4D5560"/>
<path d="M73.5032 83.7981V83.7979L73.5031 83.798L73.503 83.7979V83.7981L70.2532 86.0366L71.8713 89.2606H75.1355L76.7453 86.034L73.5032 83.7981ZM75.1355 89.2606H71.8713L69.4453 110.071L77.5602 110.061L75.1355 89.2606Z" fill="#FC3F49"/>
<path d="M61.2192 80.6768L65.7519 110.065L54.1394 93.9684C54.0141 93.7947 53.9539 93.5824 53.9695 93.3687C53.9851 93.1551 54.0754 92.9537 54.2247 92.8L56.3207 90.641C56.7054 90.2446 56.6522 89.5999 56.2076 89.2722L52.6167 86.6246C52.474 86.5194 52.3651 86.3749 52.3033 86.2088C52.2415 86.0426 52.2295 85.8621 52.2687 85.6892L52.9845 82.5343L61.2192 80.6768ZM85.7632 80.6768L81.2305 110.065L92.843 93.9684C92.9684 93.7947 93.0285 93.5824 93.0129 93.3687C92.9973 93.1551 92.907 92.9537 92.7578 92.8L90.6617 90.641C90.277 90.2446 90.3302 89.5999 90.7748 89.2722L94.3656 86.6246C94.5083 86.5194 94.6171 86.3749 94.679 86.2088C94.7408 86.0426 94.7528 85.8621 94.7136 85.6892L93.9978 82.5343L85.7632 80.6768Z" fill="#3F4651"/>
<path d="M66.5849 79.3545L73.4996 83.7974L68.4782 87.2581L61.1055 80.6759L66.5849 79.3545Z" fill="#B7DAEA"/>
<path d="M80.2861 79.3496L73.3711 83.7927L78.3928 87.2532L85.7654 80.6712L80.2861 79.3496Z" fill="#B7DAEA"/>
<path d="M78.8631 38.9297H74.5C80.2482 38.9297 84.9079 43.5895 84.9079 49.3376V59.8687H89.271V49.3376C89.2711 43.5894 84.6113 38.9297 78.8631 38.9297Z" fill="#F28F0C"/>
<path d="M86.7969 54.7949V62.5321C88.5412 62.4171 89.9183 61.1254 89.9183 59.541V57.7867C89.9182 56.2024 88.5412 54.9098 86.7969 54.7949Z" fill="#FFC07B"/>
<path d="M60.1996 54.7949V62.5321C58.4552 62.4171 57.0781 61.1254 57.0781 59.541V57.7867C57.0781 56.2024 58.4551 54.9098 60.1996 54.7949Z" fill="#FED9A8"/>
<path d="M78.8636 38.9297H68.2009C62.4527 38.9297 57.793 43.5895 57.793 49.3376V55.9403C58.3621 55.2931 59.2233 54.8591 60.1999 54.7948V54.8017V53.2751C61.8099 51.2227 65.5001 52.4444 73.1814 52.1491C78.9602 51.9269 81.4143 48.8693 82.4211 45.8441C83.1075 46.1089 85.7659 47.5246 85.7659 53.5741C85.7659 54.2802 86.2357 54.6364 86.8474 54.8C87.8435 54.879 88.7138 55.3422 89.2715 56.0228V49.3376C89.2716 43.5894 84.6118 38.9297 78.8636 38.9297Z" fill="#FE9901"/>
<path d="M85.7653 53.5748C85.7653 47.5254 83.1069 46.1096 82.4204 45.8447C81.4137 48.8698 78.9593 51.9275 73.1807 52.1497C65.4995 52.4451 61.8094 51.2234 60.1992 53.2758V64.3849C60.1992 66.9968 61.2333 69.4921 63.0558 71.2782L65.85 74.0166C67.2156 75.3549 69.0169 76.0995 70.8884 76.0995H76.175C78.0465 76.0995 79.848 75.3548 81.2134 74.0166L84.0076 71.2782C85.83 69.4921 86.8642 66.9968 86.8642 64.3849V54.8058C86.2439 54.6442 85.7653 54.2876 85.7653 53.5748Z" fill="#FED9A8"/>
<path d="M85.7653 53.5748C85.7653 47.5254 83.1069 46.1096 82.4204 45.8447C81.4137 48.8698 78.9593 51.9275 73.1807 52.1497C65.4995 52.4451 61.8094 51.2234 60.1992 53.2758V64.3849C60.1992 66.9968 61.2333 69.4921 63.0558 71.2782L65.85 74.0166C67.2156 75.3549 69.0169 76.0995 70.8884 76.0995H76.175C78.0465 76.0995 79.848 75.3548 81.2134 74.0166L84.0076 71.2782C85.83 69.4921 86.8642 66.9968 86.8642 64.3849V54.8058C86.2439 54.6442 85.7653 54.2876 85.7653 53.5748Z" fill="#FED9A8"/>
<path d="M85.7653 53.5748C85.7653 47.5254 83.1069 46.1096 82.4204 45.8447C81.4137 48.8698 78.9593 51.9275 73.1807 52.1497C65.4995 52.4451 61.8094 51.2234 60.1992 53.2758V64.3849C60.1992 66.9968 61.2333 69.4921 63.0558 71.2782L65.85 74.0166C67.2156 75.3549 69.0169 76.0995 70.8884 76.0995H76.175C78.0465 76.0995 79.848 75.3548 81.2134 74.0166L84.0076 71.2782C85.83 69.4921 86.8642 66.9968 86.8642 64.3849V54.8058C86.2439 54.6442 85.7653 54.2876 85.7653 53.5748Z" fill="#FED9A8"/>
<path d="M73.1807 54.0784C79.5637 54.0784 82.669 49.9365 83.9035 46.9491C83.291 46.2445 82.6963 45.9511 82.4204 45.8447C81.4137 48.8698 78.9593 51.9275 73.1807 52.1497C65.4995 52.4451 61.8094 51.2234 60.1992 53.2758V55.2045C61.8092 53.1521 65.4938 54.0784 73.1807 54.0784Z" fill="#FFC07B"/>
<path d="M85.7661 53.575C85.7661 47.7392 83.2927 46.216 82.5017 45.8779V64.385C82.5017 66.9969 81.4678 69.4922 79.6451 71.2783L76.8509 74.0167C75.4853 75.355 73.6841 76.0996 71.8125 76.0996H76.1756C78.0471 76.0996 79.8485 75.3549 81.2139 74.0167L84.0081 71.2783C85.8306 69.4922 86.8647 66.9969 86.8647 64.385V54.8059C86.2447 54.6445 85.7661 54.2878 85.7661 53.575Z" fill="#FFC07B"/>
<path d="M59.4557 60.6729H60.2016V56.6553H59.4557C59.1401 56.6553 58.8374 56.7807 58.6142 57.0038C58.391 57.227 58.2656 57.5297 58.2656 57.8453V59.4829C58.2656 59.7985 58.391 60.1012 58.6142 60.3244C58.8374 60.5475 59.1401 60.6729 59.4557 60.6729Z" fill="#F7C68B"/>
<path d="M87.6131 60.6729H86.8672V56.6553H87.6131C87.9287 56.6553 88.2314 56.7807 88.4546 57.0038C88.6778 57.227 88.8031 57.5297 88.8031 57.8453V59.4829C88.8031 59.7985 88.6778 60.1012 88.4546 60.3244C88.2314 60.5475 87.9287 60.6729 87.6131 60.6729Z" fill="#F2AD5A"/>
<path d="M73.499 71.1751C75.6347 71.1751 77.4299 69.96 77.9411 68.3144C78.0892 67.8377 77.7267 67.3545 77.2276 67.3545H69.7705C69.2713 67.3545 68.9087 67.8377 69.057 68.3144C69.5682 69.9599 71.3632 71.1751 73.499 71.1751Z" fill="#FFF4E9"/>
<path d="M45.8291 88.7829L43.1054 85.2998C40.1059 87.113 38.119 90.3868 37.9135 94.1269L37.1781 108.266C37.1273 109.244 37.9065 110.065 38.8857 110.065H48.9402L49.4148 100.048C49.6073 95.9849 48.3349 91.9874 45.8291 88.7829ZM101.17 88.7829L103.894 85.2998C106.893 87.113 108.88 90.3868 109.085 94.1269L109.821 108.266C109.872 109.244 109.092 110.065 108.113 110.065H98.0587L97.5841 100.048C97.3916 95.9849 98.664 91.9874 101.17 88.7829Z" fill="#3F4651"/>
<path d="M71.8711 89.2598L71.6953 90.7863H75.3237L75.1343 89.2598H73.5227H71.8711Z" fill="#EA2F41"/>
<path d="M105.94 86.9162C105.959 86.9348 105.976 86.9542 105.995 86.9731C105.977 86.9543 105.959 86.935 105.94 86.9162ZM105.678 86.6596C105.712 86.692 105.745 86.7249 105.779 86.7576C105.745 86.7249 105.712 86.692 105.678 86.6596ZM105.409 86.4145C105.444 86.4451 105.478 86.4759 105.513 86.5069C105.478 86.4757 105.444 86.4451 105.409 86.4145ZM106.777 87.8729C106.814 87.9207 106.85 87.9692 106.886 88.0176C106.85 87.969 106.814 87.9205 106.777 87.8729ZM106.306 87.3079C106.341 87.3472 106.376 87.3861 106.411 87.4261C106.376 87.3861 106.341 87.3472 106.306 87.3079ZM107.293 88.5985C107.329 88.654 107.365 88.7095 107.4 88.7657C107.365 88.7097 107.329 88.6539 107.293 88.5985ZM104.102 85.4297C104.137 85.452 104.172 85.4741 104.207 85.4968C104.172 85.4742 104.137 85.4521 104.102 85.4297ZM104.701 85.8407C104.726 85.859 104.75 85.8782 104.775 85.8968C104.75 85.8782 104.726 85.8592 104.701 85.8407ZM104.402 85.6282C104.438 85.6525 104.473 85.6771 104.508 85.7017C104.472 85.6771 104.438 85.6525 104.402 85.6282ZM105.154 86.1961C105.181 86.2185 105.208 86.2405 105.235 86.2632C105.208 86.2405 105.181 86.2185 105.154 86.1961Z" fill="#3F4651"/>
<path d="M108.113 110.065C109.093 110.065 109.872 109.244 109.821 108.266C109.872 109.244 109.093 110.065 108.113 110.065ZM105.778 86.7572C105.832 86.8098 105.887 86.8623 105.939 86.9159C105.887 86.862 105.832 86.8095 105.778 86.7572ZM105.234 86.2627C105.293 86.3122 105.351 86.363 105.408 86.4139C105.351 86.3628 105.293 86.3125 105.234 86.2627ZM108.932 92.7822C108.938 92.8184 108.944 92.8551 108.95 92.8916C108.944 92.8551 108.939 92.8185 108.932 92.7822ZM108.736 91.877C108.747 91.9217 108.759 91.9667 108.77 92.0115C108.759 91.9664 108.747 91.9217 108.736 91.877Z" fill="#C9E7F8"/>
<path d="M104.1 85.4293C103.214 84.8637 102.247 84.4364 101.232 84.1622L93.9961 82.5342L94.2185 83.5142L97.0913 84.1624C99.138 84.7146 100.908 85.8623 102.249 87.4032L103.893 85.2998C103.963 85.3419 104.032 85.3857 104.1 85.4293Z" fill="#3F4651"/>
<path d="M108.509 91.1162C108.52 91.1483 108.53 91.1807 108.54 91.2129C108.53 91.1807 108.52 91.1482 108.509 91.1162ZM108.992 93.1815C108.999 93.2262 109.004 93.2712 109.01 93.316C109.004 93.2712 108.998 93.2263 108.992 93.1815Z" fill="#C9E7F8"/>
<path d="M85.7636 80.6768L85.625 81.5753L94.2202 83.5145L93.9979 82.5345L85.7636 80.6768Z" fill="#373E49"/>
<path d="M109.521 102.533L109.084 94.1265C109.076 93.9915 109.066 93.8566 109.054 93.722C109.05 93.6809 109.046 93.6401 109.041 93.5991C109.032 93.5044 109.021 93.4099 109.009 93.3155C109.004 93.2707 108.998 93.2257 108.992 93.1811C108.978 93.0843 108.964 92.9878 108.948 92.8915C108.942 92.8551 108.937 92.8185 108.93 92.782C108.908 92.6528 108.883 92.524 108.856 92.3956C108.85 92.3682 108.844 92.3408 108.838 92.3136C108.806 92.1672 108.772 92.0217 108.734 91.8769C108.712 91.7927 108.689 91.7088 108.665 91.6252C108.652 91.5797 108.639 91.5341 108.626 91.4889C108.598 91.3963 108.569 91.3041 108.539 91.2123C108.529 91.1801 108.519 91.1477 108.508 91.1156C108.468 90.9969 108.426 90.879 108.383 90.7617C108.367 90.7197 108.35 90.6782 108.334 90.6365C108.257 90.4367 108.174 90.2393 108.085 90.0445C108.063 89.9972 108.042 89.9494 108.019 89.9024C107.953 89.7623 107.883 89.6235 107.811 89.4863C107.769 89.4057 107.726 89.3257 107.682 89.2463C107.654 89.1962 107.625 89.1467 107.596 89.097C107.498 88.9277 107.396 88.7612 107.289 88.5975C107.256 88.547 107.224 88.4963 107.19 88.4465C107.091 88.3007 106.989 88.1573 106.883 88.0164C106.846 87.9681 106.81 87.9196 106.773 87.8717C106.697 87.7744 106.62 87.6784 106.541 87.5837C106.497 87.5304 106.452 87.4775 106.407 87.4251C106.368 87.3801 106.328 87.336 106.289 87.2913C106.187 87.1768 106.081 87.0663 105.975 86.9553C105.962 86.942 105.95 86.9283 105.937 86.9151C105.884 86.8615 105.83 86.8091 105.776 86.7565C105.742 86.7237 105.708 86.6907 105.674 86.6585C105.619 86.607 105.564 86.5561 105.509 86.5057C105.475 86.4747 105.44 86.444 105.405 86.4133C105.348 86.3625 105.29 86.3116 105.232 86.2621C105.205 86.2394 105.177 86.2174 105.15 86.195C105.026 86.0922 104.9 85.9923 104.771 85.8955C104.747 85.877 104.722 85.8578 104.698 85.8395C104.634 85.7925 104.569 85.7461 104.504 85.7005C104.469 85.6759 104.434 85.6513 104.399 85.627C104.334 85.5824 104.269 85.5386 104.203 85.4956C104.168 85.4729 104.133 85.4507 104.098 85.4285C104.029 85.3844 103.96 85.3412 103.891 85.2988L102.246 87.4022C103.818 89.2091 104.801 91.5573 104.942 94.126L105.771 110.064H108.111C109.09 110.064 109.869 109.243 109.818 108.265L109.521 102.533Z" fill="#333A44"/>
<path d="M67.7267 58.8311V57.8419C67.7267 57.5145 67.5966 57.2005 67.3651 56.969C67.1336 56.7375 66.8196 56.6074 66.4922 56.6074C66.1649 56.6074 65.8509 56.7375 65.6194 56.969C65.3879 57.2005 65.2578 57.5145 65.2578 57.8419V58.8311C65.2578 59.1585 65.3879 59.4724 65.6194 59.7039C65.8509 59.9354 66.1649 60.0655 66.4922 60.0655C66.8196 60.0655 67.1336 59.9354 67.3651 59.7039C67.5966 59.4724 67.7267 59.1585 67.7267 58.8311ZM80.5101 60.0656C80.8375 60.0656 81.1515 59.9356 81.383 59.7041C81.6145 59.4726 81.7446 59.1586 81.7446 58.8312V57.842C81.7446 57.5146 81.6145 57.2006 81.383 56.9691C81.1515 56.7376 80.8375 56.6076 80.5101 56.6076C80.1828 56.6076 79.8688 56.7376 79.6373 56.9691C79.4058 57.2006 79.2757 57.5146 79.2757 57.842V58.8312C79.2758 59.1586 79.4058 59.4726 79.6373 59.704C79.8688 59.9355 80.1828 60.0656 80.5101 60.0656ZM73.5011 71.598C76.1034 71.598 78.3921 70.0813 79.067 67.9098C79.1552 67.6233 79.1752 67.3202 79.1252 67.0246C79.0753 66.7291 78.9569 66.4493 78.7794 66.2078C78.6002 65.9652 78.3667 65.768 78.0976 65.6319C77.8284 65.4958 77.5312 65.4246 77.2296 65.4239H69.7725C69.1635 65.4239 68.5842 65.7169 68.2228 66.2076C68.0453 66.4492 67.9269 66.729 67.8769 67.0246C67.827 67.3201 67.847 67.6233 67.9353 67.9098C68.6101 70.0814 70.899 71.598 73.5011 71.598ZM76.5507 67.7777C75.9782 68.6538 74.7953 69.2448 73.5011 69.2448C72.2071 69.2448 71.0242 68.6538 70.4516 67.7777H76.5507Z" fill="#232323"/>
<path d="M110.996 107.452L110.261 93.3092L110.26 93.3079C110.252 93.1612 110.241 93.0147 110.228 92.8684C110.225 92.8317 110.221 92.7953 110.217 92.7586C110.205 92.641 110.192 92.5235 110.177 92.4063C110.174 92.3782 110.17 92.3502 110.166 92.3222C109.676 88.6514 107.609 85.4172 104.502 83.5395C104.474 83.522 104.444 83.5064 104.414 83.4916C103.622 83.0182 102.775 82.643 101.892 82.3742C101.594 82.2876 101.275 82.3218 101.002 82.4692C100.73 82.6166 100.527 82.8655 100.437 83.1618C100.347 83.4581 100.377 83.778 100.521 84.0521C100.665 84.3262 100.912 84.5324 101.207 84.626C101.506 84.7175 101.8 84.8244 102.087 84.9465L100.243 87.3048C97.5642 90.7316 96.2037 95.0058 96.4088 99.3506L96.8251 108.135H83.5291L93.7963 93.9034C94.0839 93.5056 94.222 93.0191 94.1862 92.5296C94.1505 92.04 93.9433 91.5787 93.601 91.2269L91.7163 89.2859L95.0628 86.8185C95.3897 86.5775 95.6392 86.2464 95.7808 85.8658C95.9224 85.4852 95.9499 85.0715 95.8599 84.6755L95.5557 83.3347L96.4901 83.5457C96.6409 83.5797 96.7968 83.5837 96.9491 83.5574C97.1014 83.5311 97.247 83.4751 97.3776 83.3925C97.5083 83.31 97.6213 83.2025 97.7104 83.0762C97.7995 82.95 97.8628 82.8074 97.8968 82.6567C97.9309 82.5059 97.9349 82.3499 97.9086 82.1977C97.8824 82.0454 97.8264 81.8997 97.7438 81.7691C97.6612 81.6385 97.5537 81.5254 97.4275 81.4363C97.3012 81.3472 97.1586 81.2839 97.0078 81.25L86.049 78.7776C86.0457 78.7769 86.0427 78.7754 86.0396 78.7747L81.3441 77.6422L81.0562 74.9329C81.4037 74.6813 81.7321 74.4042 82.0386 74.1038L84.8328 71.3654C86.8726 69.3665 88.0426 66.5475 88.0426 63.6317V62.731C89.8245 62.158 91.0971 60.5939 91.0971 58.7884V57.0342C91.0971 56.2567 90.8604 55.5242 90.4497 54.8958V48.5846C90.4497 42.1969 85.2527 37 78.865 37H68.2025C61.8147 37 56.6179 42.197 56.6179 48.5846V54.7944C56.1654 55.4445 55.9033 56.2145 55.9033 57.0338V58.7879C55.9033 60.6161 57.2078 62.1972 59.0248 62.7521V63.6313C59.0248 66.5471 60.1946 69.3661 62.2344 71.365L65.0288 74.1034C65.3169 74.3858 65.6244 74.6477 65.949 74.8872L65.6591 77.6143L60.8301 78.7792C60.761 78.7967 60.6937 78.8204 60.6289 78.8499L52.7259 80.633L45.5092 82.261C45.4932 82.2646 45.4774 82.2685 45.4616 82.2727C44.4244 82.5527 43.4316 82.9765 42.5119 83.5316C42.5074 83.5343 42.5026 83.5364 42.498 83.5391L42.4842 83.5477C42.4362 83.5769 42.3892 83.6072 42.3416 83.6369C42.268 83.6831 42.1946 83.7295 42.1224 83.777C41.9983 83.8591 41.8756 83.9433 41.7545 84.0297C41.717 84.0565 41.6792 84.0831 41.642 84.1105C41.5355 84.1883 41.4303 84.268 41.3266 84.3494L41.3115 84.361C41.0765 84.5465 40.8488 84.741 40.6289 84.944L40.5953 84.9752C40.4889 85.0738 40.3844 85.1744 40.2818 85.277L40.2805 85.2783C39.6273 85.9322 39.0522 86.6597 38.5668 87.4463L38.5606 87.4564C38.4853 87.5787 38.4121 87.7024 38.3412 87.8273L38.3175 87.8689C38.1692 88.1316 38.0308 88.3998 37.9025 88.6728C37.8965 88.6854 37.8911 88.698 37.8852 88.7106C37.8313 88.8267 37.7792 88.9435 37.7287 89.0611C37.7125 89.0991 37.6968 89.1372 37.6807 89.1754C37.6407 89.2718 37.6017 89.3688 37.5641 89.4662C37.548 89.5081 37.5314 89.5498 37.5156 89.5919C37.4726 89.7068 37.4314 89.8224 37.3918 89.9386C37.3829 89.965 37.3735 89.991 37.3647 90.0175C37.323 90.143 37.2833 90.2692 37.2456 90.3959C37.2295 90.4498 37.2146 90.5043 37.1992 90.5585C37.1341 90.7878 37.0757 91.0189 37.0242 91.2515C37.0121 91.306 36.9993 91.3601 36.988 91.4147C36.9599 91.5491 36.9341 91.6838 36.9103 91.819C36.9018 91.8678 36.8947 91.917 36.8866 91.9661C36.8613 92.1193 36.8392 92.2731 36.8202 92.4272C36.8084 92.5228 36.7976 92.6184 36.7877 92.7142C36.7825 92.7659 36.7769 92.8176 36.7722 92.8695C36.7594 93.0093 36.749 93.1494 36.741 93.2896C36.7407 93.2959 36.74 93.302 36.7395 93.3082V93.3095L36.7394 93.3116L36.4978 97.9551C36.4898 98.1095 36.5122 98.2639 36.5639 98.4095C36.6155 98.5551 36.6953 98.6892 36.7988 98.804C36.9022 98.9188 37.0273 99.0121 37.1668 99.0785C37.3063 99.145 37.4575 99.1833 37.6119 99.1913C37.7662 99.1994 37.9206 99.1771 38.0663 99.1254C38.212 99.0738 38.3461 98.994 38.4609 98.8906C38.5757 98.7871 38.669 98.662 38.7354 98.5225C38.8018 98.3829 38.8401 98.2317 38.848 98.0773L39.0894 93.4371C39.0989 93.2737 39.1122 93.1106 39.1293 92.9478C39.134 92.9017 39.1395 92.8557 39.1448 92.8097C39.1595 92.6836 39.1763 92.558 39.1955 92.4329C39.2017 92.3935 39.2069 92.3538 39.2134 92.3144C39.2395 92.1574 39.2687 92.0012 39.3017 91.8466C39.3093 91.8108 39.3181 91.7755 39.3263 91.7399C39.3534 91.6189 39.383 91.4988 39.4144 91.3793C39.4278 91.3284 39.4413 91.2776 39.4557 91.2272C39.4891 91.1078 39.5248 90.9895 39.5625 90.8718C39.5736 90.8373 39.5835 90.8021 39.595 90.7678C39.6903 90.483 39.7984 90.2026 39.919 89.9275C39.947 89.8634 39.9745 89.7991 40.0037 89.7359C40.0936 89.5417 40.1899 89.3506 40.2925 89.1628C40.3245 89.1038 40.3567 89.0449 40.3898 88.9866C40.4335 88.9101 40.4777 88.8344 40.5231 88.7592C40.552 88.7115 40.582 88.6646 40.6116 88.6174C40.705 88.4689 40.8025 88.3229 40.904 88.1796C40.9255 88.1491 40.9464 88.1181 40.9683 88.0879C41.0253 88.0094 41.0837 87.9326 41.1429 87.856C41.1723 87.8178 41.2024 87.78 41.2324 87.7422C41.4243 87.5015 41.6277 87.2702 41.8419 87.049C41.882 87.0076 41.9222 86.9661 41.9632 86.9254C42.0244 86.8644 42.0862 86.8042 42.1489 86.7451C42.2026 86.6945 42.2575 86.6452 42.3126 86.5958C42.3964 86.5203 42.4817 86.4464 42.5683 86.374C42.6414 86.3129 42.7148 86.2524 42.7898 86.1935C42.8127 86.1755 42.8361 86.1582 42.8591 86.1405L44.9024 88.7535C47.2341 91.7363 48.4183 95.4566 48.2398 99.2383L47.8184 108.134H38.8864C38.6872 108.134 38.5584 108.03 38.4997 107.968C38.441 107.906 38.3435 107.772 38.3539 107.573L38.588 103.073C38.5961 102.919 38.5736 102.765 38.522 102.619C38.4704 102.473 38.3905 102.339 38.2871 102.224C38.1836 102.11 38.0586 102.016 37.9191 101.95C37.7796 101.883 37.6283 101.845 37.474 101.837C36.8243 101.804 36.2715 102.302 36.2378 102.951L36.0037 107.451C35.9838 107.842 36.0437 108.233 36.1797 108.601C36.3151 108.968 36.5238 109.304 36.7931 109.589C37.0633 109.872 37.388 110.098 37.7479 110.253C38.1077 110.407 38.4951 110.487 38.8867 110.488H69.3441C69.377 110.491 69.4101 110.493 69.4434 110.493H69.4449L73.6866 110.488H108.113C108.505 110.487 108.892 110.407 109.252 110.253C109.612 110.098 109.937 109.872 110.207 109.589C110.476 109.304 110.685 108.968 110.82 108.601C110.956 108.234 111.016 107.843 110.996 107.452ZM78.6065 108.135L76.3431 88.7188L77.1601 87.0811L77.7232 87.4693C77.9402 87.6191 78.2013 87.6916 78.4645 87.6751C78.7277 87.6586 78.9778 87.5541 79.1744 87.3783L84.0997 82.9811L80.22 108.135H78.6065V108.135ZM66.7611 108.135L66.1734 104.332L62.899 83.1023L67.6941 87.383C67.9096 87.5757 68.1887 87.6821 68.4779 87.6818C68.7163 87.682 68.9491 87.6095 69.1453 87.474L69.8058 87.0188L70.6597 88.7203L68.3965 108.135H66.7611ZM57.747 89.0805C57.7225 88.7835 57.6347 88.4952 57.4895 88.2349C57.3443 87.9747 57.145 87.7486 56.9051 87.5718L53.4539 85.0271L53.9671 82.7655L60.2409 81.3502L63.8418 104.654L55.2227 92.7069L57.1641 90.7073C57.3718 90.4935 57.5312 90.2376 57.6317 89.957C57.7323 89.6764 57.7716 89.3775 57.747 89.0805ZM74.4057 87.3303H72.5955L71.7627 85.6707L73.4386 84.5163L75.2029 85.7321L74.4057 87.3303ZM70.766 108.135L72.9168 89.6837H74.0861L76.2366 108.132L73.6548 108.135H70.766ZM90.0751 87.5718C89.8351 87.7486 89.6358 87.9748 89.4905 88.235C89.3453 88.4953 89.2574 88.7837 89.2329 89.0807C89.2083 89.3778 89.2477 89.6766 89.3483 89.9572C89.4489 90.2378 89.6084 90.4936 89.8161 90.7073L91.7573 92.7069L83.1411 104.651L86.7344 81.349L93.0132 82.7655L93.5263 85.0274L90.0751 87.5718ZM78.2971 85.0066L77.6984 84.5939C77.6197 84.484 77.5226 84.3884 77.4113 84.3115L75.5569 83.0327L80.4972 79.8584L83.305 80.5356L78.2971 85.0066ZM88.7434 58.7881C88.7434 59.3072 88.4727 59.7807 88.0423 60.1154V55.706L88.0605 55.7205C88.11 55.7601 88.1579 55.8015 88.2035 55.8452L88.2226 55.8638C88.2688 55.9093 88.3126 55.9568 88.3536 56.0065C88.5981 56.301 88.7434 56.6551 88.7434 57.0339V58.7881ZM58.9706 48.5846C58.9706 43.4944 63.1119 39.3534 68.2018 39.3534H78.8643C83.9545 39.3534 88.0955 43.4947 88.0955 48.5846V53.1075C87.7616 52.9959 87.4166 52.9211 87.0664 52.8844C87.0428 52.8764 87.0195 52.8674 86.9966 52.8575L86.9892 52.8542C86.9735 52.8472 86.9582 52.8394 86.9434 52.8307L86.9432 52.8211C86.9432 46.0967 83.8066 44.3641 82.8453 43.9932C82.6779 43.9287 82.498 43.9033 82.3193 43.919C82.1406 43.9346 81.9679 43.9909 81.8142 44.0834C81.5743 44.2281 81.3939 44.4537 81.3055 44.7195C80.145 48.2057 77.397 50.0564 73.137 50.2203C72.1254 50.2592 71.1131 50.2747 70.1008 50.2667C68.8282 50.2582 67.6938 50.2187 66.6802 50.1831C65.8803 50.155 65.1755 50.1302 64.5271 50.1243C64.4355 50.1235 64.3439 50.1231 64.2524 50.123C62.4792 50.123 60.486 50.2524 59.275 51.7959C59.1124 52.0031 59.0241 52.2588 59.024 52.5222V53.0681C59.0062 53.0735 58.9883 53.0791 58.9706 53.0848V48.5846ZM58.2562 58.7881V57.0339C58.2562 56.6295 58.4198 56.2521 58.695 55.9467C58.7132 55.9266 58.7328 55.9077 58.752 55.8884C58.7813 55.8584 58.8108 55.8285 58.8423 55.8001C58.8626 55.7818 58.8846 55.7646 58.9058 55.7469C58.9386 55.7198 58.9715 55.6924 59.0062 55.6671C59.012 55.6628 59.0182 55.6588 59.0242 55.6546V60.1687C58.5538 59.8319 58.2562 59.3343 58.2562 58.7881ZM63.8811 69.6842C62.2901 68.125 61.3776 65.9187 61.3776 63.6312V53.0003C61.8708 52.6226 62.715 52.4762 64.2524 52.4762C64.935 52.4762 65.7052 52.5033 66.5973 52.5348C67.7554 52.5755 69.0679 52.6216 70.5785 52.6216H70.5838C71.4892 52.6216 72.3539 52.6054 73.2272 52.5717C78.8696 52.3547 81.616 49.6225 82.9496 46.9049C83.693 47.7264 84.5898 49.4219 84.5898 52.8208C84.5898 52.8856 84.5929 52.9493 84.5974 53.0123C84.5987 53.0302 84.6005 53.0479 84.6021 53.0656C84.6067 53.114 84.6125 53.1616 84.6197 53.2089C84.622 53.2244 84.6241 53.2399 84.6267 53.2555C84.6374 53.317 84.6496 53.3776 84.6648 53.4371C84.6655 53.4399 84.6666 53.4425 84.6672 53.4455C84.6818 53.5021 84.6988 53.5575 84.7175 53.612C84.7221 53.6253 84.7269 53.6385 84.7316 53.6517C84.7492 53.7 84.7682 53.7477 84.7889 53.7945C84.7928 53.8033 84.7962 53.8123 84.8003 53.821C84.8273 53.8802 84.8569 53.938 84.8891 53.9945C84.9233 54.0543 84.9603 54.1125 85 54.1688C85.0323 54.2148 85.066 54.2598 85.1018 54.3036L85.1101 54.3141C85.1504 54.3627 85.1932 54.4099 85.2379 54.4555C85.2417 54.4594 85.2459 54.4631 85.2496 54.467C85.2894 54.507 85.331 54.5457 85.374 54.5834L85.4006 54.6062C85.4485 54.6469 85.4979 54.6858 85.5487 54.7228C85.5723 54.7399 85.5969 54.7562 85.6212 54.7726V61.7784C85.6212 61.9119 85.6451 62.0427 85.6882 62.1663V63.6307C85.6882 65.9182 84.7757 68.1243 83.1846 69.6838L80.3904 72.4222C80.039 72.7672 79.648 73.0695 79.2255 73.3226C79.2203 73.3257 79.2144 73.3278 79.2091 73.331C79.0937 73.3995 78.9761 73.4638 78.8568 73.5243L78.8567 73.5245C78.2683 73.8227 77.6347 74.0214 76.9814 74.1126C76.9663 74.1147 76.951 74.1163 76.936 74.1183C76.8318 74.1318 76.7273 74.1425 76.6226 74.1503C76.5942 74.1525 76.5658 74.1548 76.5374 74.1566C76.417 74.164 76.2964 74.169 76.1756 74.169H70.8892C70.7663 74.169 70.6437 74.164 70.5212 74.1561C70.4932 74.1544 70.4654 74.152 70.4374 74.1498C70.3257 74.1414 70.2143 74.1298 70.1033 74.115L70.0756 74.1114C69.2708 73.9973 68.4977 73.7206 67.8032 73.2982C67.7984 73.2952 67.7929 73.2932 67.7881 73.2903C67.3853 73.0439 67.0118 72.7527 66.6747 72.4222L63.8811 69.6842ZM69.4806 76.4C69.5029 76.4039 69.525 76.4079 69.5472 76.4116C69.6776 76.433 69.8084 76.4512 69.9395 76.4663C70.01 76.4745 70.0805 76.4823 70.1511 76.4886C70.2193 76.4945 70.2875 76.4995 70.3558 76.5037C70.4089 76.5072 70.4618 76.5113 70.5148 76.5138C70.6397 76.5197 70.7647 76.523 70.8899 76.523H76.1766C76.3007 76.523 76.4246 76.5195 76.5484 76.514C76.599 76.5118 76.6494 76.5078 76.7 76.5046C76.7697 76.5002 76.8393 76.4955 76.9089 76.4892C77.1046 76.4712 77.2997 76.4468 77.4938 76.4161C77.5152 76.4126 77.5363 76.4088 77.5576 76.405C77.9836 76.3331 78.4032 76.2277 78.8126 76.0899L79.0171 78.0123L73.4309 81.6018L67.9741 78.0957L68.1898 76.0686C68.6104 76.2138 69.0421 76.3246 69.4806 76.4ZM66.3714 79.8635L71.3758 83.0791L69.5847 84.3134L69.584 84.3138L68.5715 85.0116L63.5636 80.5407L66.3714 79.8635ZM46.7563 87.3046L44.9114 84.9452C45.282 84.789 45.6626 84.6575 46.0506 84.5514L51.4237 83.3393L51.1206 84.6754C51.0307 85.0714 51.0582 85.4851 51.1999 85.8657C51.3415 86.2464 51.591 86.5775 51.9179 86.8185L55.2644 89.2859L53.3795 91.2271C53.0372 91.5789 52.83 92.0401 52.7943 92.5297C52.7586 93.0192 52.8967 93.5056 53.1844 93.9034L63.4513 108.135H50.1743L50.5906 99.3506C50.7956 95.0057 49.4351 90.7315 46.7563 87.3046ZM108.5 107.969C108.45 108.022 108.39 108.064 108.324 108.092C108.257 108.121 108.186 108.135 108.113 108.135H99.1812L98.7598 99.2391C98.5813 95.4574 99.7655 91.7371 102.097 88.7544L104.137 86.1452C105.837 87.4609 107.077 89.3575 107.621 91.5224C107.627 91.5476 107.633 91.5729 107.639 91.5981C107.664 91.7026 107.689 91.8076 107.711 91.9132C107.738 92.0412 107.762 92.1697 107.784 92.2993C107.794 92.3584 107.802 92.418 107.811 92.4773C107.859 92.7949 107.892 93.1145 107.911 93.435L108.646 107.575C108.65 107.647 108.639 107.719 108.614 107.787C108.589 107.855 108.55 107.917 108.5 107.969Z" fill="#232323"/>
<path d="M113.146 41.1556V42.0177L109.715 49.7763L109.286 50.6384H108V48.4832L111.43 40.7246L113.146 41.1556ZM134.586 49.7763V53.6557H133.729L132.871 51.9315L129.44 43.7419L129.012 42.4487L131.494 41.6169L134.586 49.7763Z" fill="#E9EDF5"/>
<path d="M131.495 41.6164L131.156 40.7241L134.587 39V49.7759L131.495 41.6164Z" fill="#4A9BF6"/>
<path d="M111.43 40.2931V40.7241L108 48.4828V39L111.43 40.2931Z" fill="#00C7B1"/>
<path d="M119.568 56.4483C119.683 56.534 119.78 56.6416 119.853 56.7651C119.926 56.8886 119.974 57.0254 119.994 57.1676C120.015 57.3099 120.007 57.4547 119.971 57.5939C119.936 57.7331 119.873 57.8638 119.787 57.9785L119.731 58.0517L120.336 58.5517L119.834 59.3061C119.756 59.4244 119.65 59.5214 119.526 59.5883C119.402 59.6553 119.263 59.6901 119.122 59.6897H118.779C118.463 59.6899 118.154 59.5953 117.891 59.4181L117.72 59.3061C117.5 59.159 117.321 58.9596 117.196 58.7257C117.072 58.4918 117.007 58.2307 117.008 57.9655L117.535 57.3017L118.17 56.5776C118.209 56.5302 118.247 56.4828 118.282 56.4354C118.469 56.2977 118.695 56.2246 118.927 56.2269C119.159 56.2293 119.384 56.3069 119.568 56.4483ZM115.807 57.9914L114.98 57.3449C114.888 57.2744 114.811 57.1855 114.755 57.0838C114.699 56.9821 114.664 56.8698 114.653 56.754C114.642 56.6381 114.655 56.5213 114.692 56.4108C114.728 56.3004 114.787 56.1987 114.864 56.1121L115.863 54.9698L116.026 54.7845C116.268 54.5117 116.604 54.3413 116.966 54.3077C117.328 54.2741 117.69 54.3798 117.977 54.6035C118.25 54.8125 118.434 55.1184 118.49 55.4588C118.547 55.7992 118.472 56.1484 118.282 56.4354C118.199 56.4912 118.125 56.5595 118.063 56.638L117.535 57.3017L117.029 57.8793C116.878 58.0499 116.667 58.1562 116.44 58.177C116.214 58.1978 115.987 58.1315 115.807 57.9914ZM112.098 54.3707C112.089 54.3789 112.081 54.3892 112.077 54.4009C111.908 54.4898 111.717 54.5282 111.527 54.5113C111.337 54.4945 111.156 54.4233 111.005 54.3061L110.087 53.5905C109.985 53.5118 109.9 53.4126 109.837 53.2994C109.774 53.1861 109.736 53.0611 109.723 52.9321C109.711 52.8031 109.725 52.6729 109.764 52.5497C109.804 52.4264 109.869 52.3127 109.954 52.2155L111.095 50.9138L111.249 50.7414C111.519 50.439 111.893 50.2504 112.295 50.2136C112.698 50.1769 113.099 50.2946 113.419 50.5431C113.601 50.6849 113.748 50.8665 113.85 51.0741C113.952 51.2817 114.005 51.5099 114.006 51.7414C114.005 52.0537 113.908 52.3579 113.728 52.6121C113.604 52.6911 113.491 52.7868 113.393 52.8966L112.098 54.3707Z" fill="#FA9D82"/>
<path d="M115.559 52.698C115.239 52.4495 114.838 52.3318 114.435 52.3685C114.033 52.4053 113.659 52.5939 113.389 52.8963L112.094 54.3704C112.085 54.3786 112.077 54.3889 112.073 54.4006C111.993 54.4982 111.933 54.6109 111.898 54.7321C111.862 54.8533 111.851 54.9805 111.866 55.106C111.88 55.2315 111.919 55.3529 111.982 55.4627C112.044 55.5726 112.127 55.6687 112.227 55.7454L113.145 56.4609C113.344 56.6165 113.595 56.6901 113.847 56.6669C114.098 56.6437 114.332 56.5254 114.5 56.336L115.769 54.892C116.012 54.6177 116.146 54.2634 116.146 53.8963C116.145 53.6648 116.092 53.4366 115.99 53.229C115.888 53.0214 115.741 52.8398 115.559 52.698ZM127.304 50.5601C122.591 49.9437 122.579 45.9437 122.579 45.8963H120.863C120.862 46.5819 120.591 47.2391 120.109 47.7239C119.626 48.2087 118.972 48.4815 118.29 48.4825C117.949 48.4825 117.622 48.3463 117.381 48.1038C117.14 47.8612 117.004 47.5323 117.004 47.1894L117.862 43.3101L120.893 42.0902L122.15 41.5859H124.294L129.439 43.7411L132.87 51.9308L130.297 53.6549L127.295 50.6377L127.304 50.5601Z" fill="#FA9D82"/>
<path d="M117.974 54.6038C117.686 54.3801 117.325 54.2745 116.963 54.308C116.601 54.3416 116.265 54.512 116.023 54.7848L115.86 54.9702L115.77 54.8926C116.012 54.6183 116.147 54.264 116.147 53.8969C116.146 53.6654 116.093 53.4372 115.991 53.2296C115.889 53.022 115.742 52.8404 115.56 52.6986C115.299 52.4969 114.984 52.3804 114.655 52.365C114.327 52.3495 114.002 52.4359 113.724 52.6124C113.905 52.3582 114.002 52.054 114.003 51.7417C114.002 51.5103 113.949 51.2821 113.847 51.0744C113.745 50.8668 113.597 50.6852 113.415 50.5434C113.096 50.2949 112.694 50.1772 112.292 50.214C111.889 50.2507 111.516 50.4393 111.246 50.7417L111.091 50.9141L109.715 49.7762L113.145 42.0176H120.864L120.894 42.0909L117.862 43.3107L117.005 47.19C117.005 47.5329 117.14 47.8619 117.381 48.1044C117.623 48.3469 117.95 48.4831 118.291 48.4831C118.973 48.4821 119.627 48.2093 120.109 47.7245C120.591 47.2397 120.863 46.5825 120.864 45.8969H122.579C122.579 45.9443 122.592 49.9443 127.305 50.5607L127.296 50.6383L130.298 53.6555L130.799 54.1598C130.969 54.3304 131.084 54.5477 131.131 54.7842C131.178 55.0207 131.154 55.2658 131.062 55.4886C130.97 55.7114 130.815 55.9018 130.615 56.0358C130.416 56.1699 130.182 56.2415 129.942 56.2417C129.461 56.2423 128.992 56.0965 128.595 55.8236C128.841 56.0736 128.989 56.4041 129.011 56.7547V57.1555C129.011 57.4847 128.881 57.8004 128.649 58.0332C128.418 58.266 128.104 58.3968 127.776 58.3969C127.468 58.3959 127.17 58.2809 126.94 58.0736L126.438 57.6167V58.4486C126.438 58.7778 126.308 59.0935 126.077 59.3263C125.845 59.5591 125.531 59.6899 125.203 59.69C124.895 59.689 124.597 59.574 124.367 59.3667L123.428 58.509C123.408 58.8133 123.279 59.0999 123.064 59.315C122.843 59.5369 122.549 59.6696 122.238 59.6879C121.926 59.7062 121.619 59.6088 121.374 59.4141L120.332 58.5521L119.728 58.0521L119.783 57.9788C119.869 57.8641 119.932 57.7334 119.968 57.5942C120.003 57.4551 120.011 57.3102 119.991 57.1679C119.971 57.0257 119.923 56.8889 119.849 56.7654C119.776 56.642 119.679 56.5343 119.565 56.4486C119.38 56.3073 119.155 56.2296 118.924 56.2273C118.692 56.2249 118.465 56.2981 118.278 56.4357C118.469 56.1488 118.544 55.7995 118.487 55.4591C118.431 55.1187 118.247 54.8128 117.974 54.6038Z" fill="#FFC9BD"/>
<path d="M113.418 50.5433C113.287 50.4433 113.142 50.3648 112.987 50.3105C113.109 50.4144 113.208 50.5427 113.279 50.6872C113.349 50.8317 113.389 50.9893 113.396 51.1501C113.403 51.3108 113.376 51.4713 113.318 51.6212C113.26 51.7712 113.172 51.9074 113.059 52.0213L111.976 53.1097C111.827 53.2598 111.628 53.3493 111.417 53.361C111.206 53.3728 110.998 53.306 110.833 53.1735L109.841 52.3752C109.729 52.5735 109.692 52.8057 109.738 53.0291C109.783 53.2525 109.907 53.452 110.086 53.5907L111.004 54.3062C111.155 54.4235 111.336 54.4947 111.526 54.5115C111.716 54.5283 111.907 54.49 112.076 54.4011C112.081 54.3894 112.088 54.3791 112.098 54.3709L113.393 52.8968C113.491 52.787 113.603 52.6913 113.727 52.6123C113.908 52.3581 114.005 52.0538 114.006 51.7416C114.005 51.5101 113.951 51.2819 113.85 51.0743C113.748 50.8667 113.6 50.6851 113.418 50.5433Z" fill="#EB8669"/>
<path d="M115.561 52.6981C115.433 52.5989 115.292 52.52 115.14 52.4641L115.194 52.505C115.317 52.5976 115.42 52.7143 115.496 52.848C115.573 52.9818 115.621 53.1297 115.639 53.2829C115.657 53.436 115.644 53.5913 115.6 53.7391C115.556 53.887 115.483 54.0243 115.385 54.1429L114.542 55.1598C114.399 55.3331 114.193 55.4429 113.97 55.4655C113.746 55.4882 113.523 55.4219 113.348 55.2809L112.147 54.3136L112.098 54.3692C112.089 54.3774 112.081 54.3878 112.077 54.3994C111.997 54.497 111.937 54.6097 111.902 54.7309C111.866 54.8521 111.855 54.9793 111.869 55.1048C111.884 55.2303 111.923 55.3517 111.985 55.4615C112.048 55.5714 112.131 55.6676 112.231 55.7442L113.146 56.461C113.346 56.6166 113.597 56.6902 113.849 56.667C114.1 56.6438 114.333 56.5255 114.502 56.3361L115.771 54.8921C116.014 54.6178 116.148 54.2635 116.148 53.8964C116.147 53.6649 116.094 53.4367 115.992 53.2291C115.89 53.0215 115.743 52.8399 115.561 52.6981ZM117.975 54.6033C117.933 54.572 117.889 54.5432 117.843 54.5171C117.947 54.6719 117.998 54.8565 117.989 55.0431C117.979 55.2297 117.91 55.4081 117.791 55.5516L116.686 56.8839C116.543 57.0572 116.337 57.167 116.114 57.1897C115.89 57.2123 115.667 57.146 115.492 57.005L114.706 56.3748C114.641 56.5442 114.632 56.7303 114.681 56.9053C114.73 57.0802 114.834 57.2345 114.977 57.3447L115.805 57.9912C115.985 58.1313 116.211 58.1976 116.438 58.1768C116.665 58.1561 116.875 58.0497 117.027 57.8792L117.533 57.3016L118.061 56.6378C118.123 56.5594 118.197 56.491 118.279 56.4352C118.47 56.1483 118.545 55.799 118.488 55.4586C118.432 55.1182 118.248 54.8123 117.975 54.6033ZM119.536 58.3102C119.416 58.4708 119.261 58.6011 119.082 58.6909C118.903 58.7807 118.706 58.8274 118.507 58.8274H118.292C118.014 58.8267 117.744 58.7353 117.522 58.5669C117.3 58.3985 117.139 58.1623 117.062 57.8938L117.006 57.9654C117.005 58.2305 117.07 58.4916 117.194 58.7255C117.318 58.9594 117.498 59.1588 117.718 59.3059L117.889 59.4179C118.152 59.5951 118.461 59.6897 118.777 59.6895H119.12C119.261 59.69 119.4 59.6551 119.524 59.5882C119.648 59.5212 119.754 59.4242 119.832 59.3059L120.333 58.5516L119.729 58.0516L119.536 58.3102ZM129.441 43.7412V48.224C129.441 48.6764 129.3 49.1173 129.037 49.4843C128.773 49.8513 128.402 50.1258 127.975 50.2688L127.166 50.5399C127.213 50.5468 127.258 50.5554 127.306 50.5619L127.297 50.6378L130.299 53.655L132.872 51.9309L129.441 43.7412ZM122.151 45.0343H120.779C120.685 45.0339 120.593 45.065 120.518 45.1227C120.443 45.1805 120.39 45.2616 120.366 45.3533C120.186 46.0447 119.631 47.6205 118.292 47.6205H117.696C117.541 47.6202 117.392 47.5679 117.271 47.472C117.15 47.376 117.064 47.2419 117.028 47.0912L117.006 47.1895C117.006 47.5324 117.141 47.8613 117.383 48.1039C117.624 48.3464 117.951 48.4826 118.292 48.4826C118.974 48.4816 119.628 48.2088 120.11 47.724C120.593 47.2392 120.864 46.582 120.865 45.8964H122.58V45.4654C122.58 45.351 122.535 45.2414 122.455 45.1606C122.374 45.0797 122.265 45.0343 122.151 45.0343Z" fill="#EB8669"/>
<path d="M125.734 59.0363L121.756 55.3444C121.516 55.1222 121.2 55.0018 120.874 55.0084C120.548 55.015 120.237 55.1481 120.007 55.3798L123.151 58.2535L122.993 58.4126C122.764 58.6428 122.457 58.7776 122.133 58.7901C121.809 58.8026 121.493 58.6918 121.247 58.4798L119.996 57.4022C119.981 57.6109 119.906 57.8108 119.782 57.9785L119.726 58.0518L120.331 58.5518L121.373 59.4138C121.617 59.6085 121.925 59.7059 122.236 59.6876C122.548 59.6693 122.842 59.5366 123.062 59.3147C123.277 59.0996 123.407 58.813 123.427 58.5087L124.366 59.3664C124.596 59.5737 124.893 59.6887 125.202 59.6897C125.386 59.6892 125.568 59.6469 125.734 59.5661C125.9 59.4853 126.045 59.368 126.16 59.2229C126.001 59.2104 125.851 59.1447 125.734 59.0363ZM115.719 48.4832C115.719 48.8262 115.854 49.1551 116.096 49.3976C116.337 49.6401 116.664 49.7763 117.005 49.7763C117.5 49.7757 117.985 49.6317 118.4 49.3615C118.816 49.0914 119.145 48.7065 119.349 48.2531C119.017 48.4049 118.656 48.4834 118.292 48.4832C117.95 48.4832 117.623 48.347 117.382 48.1045C117.141 47.862 117.005 47.5331 117.005 47.1901L117.675 44.1621L116.576 44.6039L115.719 48.4832ZM127.978 57.4082L124.252 53.9738C124.033 53.7722 123.745 53.6633 123.449 53.6698C123.152 53.6763 122.869 53.7977 122.659 54.0087L122.58 54.0867L126.439 57.6134V57.6169L126.941 58.0738C127.171 58.281 127.468 58.3961 127.777 58.397C128.037 58.3963 128.291 58.3127 128.501 58.1582C128.711 58.0037 128.867 57.7863 128.946 57.5371C128.791 57.6173 128.615 57.6479 128.442 57.6249C128.269 57.6019 128.107 57.5263 127.978 57.4082ZM129.989 55.5569L125.909 51.7707C125.705 51.5824 125.437 51.4804 125.161 51.4861C124.884 51.4917 124.621 51.6045 124.425 51.8009L124.295 51.9315L128.651 55.8932C128.628 55.866 128.608 55.835 128.583 55.8108C128.607 55.835 128.626 55.866 128.651 55.8932L128.656 55.8975C128.635 55.8738 128.617 55.8453 128.596 55.8238C128.992 56.0966 129.462 56.2424 129.942 56.2419C130.144 56.2426 130.342 56.1924 130.519 56.0958C130.696 55.9992 130.846 55.8594 130.956 55.6893C130.8 55.7692 130.625 55.7994 130.452 55.7757C130.279 55.7521 130.117 55.6757 129.989 55.5569Z" fill="#FFB4A3"/>
<path d="M127.244 50.5521C122.594 49.9081 122.579 45.9439 122.579 45.8969H120.864C120.864 46.3512 120.744 46.7974 120.517 47.19H121.293C121.339 48.1554 121.675 49.0842 122.256 49.8537C122.838 50.6233 123.639 51.1974 124.552 51.5003H125.03C125.138 51.4838 125.248 51.4838 125.356 51.5003H126.01C126.29 51.4998 126.563 51.4068 126.786 51.2355C127.009 51.0642 127.17 50.8241 127.244 50.5521ZM113.145 42.0176L109.715 49.7762L111.071 50.8973L114.685 42.0176H113.145Z" fill="#FFB4A3"/>
</svg>
