<svg width="123" height="122" viewBox="0 0 123 122" fill="none" xmlns="http://www.w3.org/2000/svg">
<g clip-path="url(#clip0_356_3216)">
<path fill-rule="evenodd" clip-rule="evenodd" d="M2.76002 65.72H11.21C10.7059 65.5864 10.2597 65.2909 9.93994 64.8789C9.62016 64.467 9.44451 63.9615 9.44002 63.44V2.35C9.44265 1.72755 9.69108 1.13135 10.1312 0.691207C10.5714 0.251066 11.1676 0.00263195 11.79 0H110.47C111.092 0.00263195 111.689 0.251066 112.129 0.691207C112.569 1.13135 112.817 1.72755 112.82 2.35V63.43C112.819 63.951 112.647 64.4572 112.328 64.8696C112.01 65.2821 111.564 65.5775 111.06 65.71H120.12C120.85 65.71 121.551 65.9994 122.068 66.5148C122.585 67.0303 122.877 67.7297 122.88 68.46C122.877 69.1912 122.586 69.8917 122.069 70.4087C121.552 70.9257 120.851 71.2174 120.12 71.22H96.83C96.7525 68.2023 95.812 65.2699 94.12 62.77H109.12V3.69H13.46V62.77H21.75C21.4062 63.2672 21.0987 63.7885 20.83 64.33C20.4771 65.0531 20.199 65.8104 20 66.59L19.91 66.99C19.7618 67.6478 19.6682 68.3168 19.63 68.99C19.5893 69.7406 19.6127 70.4934 19.7 71.24H2.76002C2.39626 71.2387 2.03631 71.1657 1.70074 71.0253C1.36517 70.8849 1.06055 70.6798 0.804256 70.4216C0.547966 70.1635 0.345032 69.8574 0.20704 69.5208C0.0690487 69.1842 -0.00129747 68.8238 1.81172e-05 68.46C0.00132895 68.0989 0.0737585 67.7415 0.213171 67.4084C0.352584 67.0752 0.55625 66.7728 0.81254 66.5184C1.06883 66.2639 1.37273 66.0625 1.70687 65.9255C2.04102 65.7885 2.39888 65.7187 2.76002 65.72ZM59.53 62.77H62.53C61.6564 64.0365 60.982 65.4293 60.53 66.9L60.41 65.9C60.299 65.1155 60.1183 64.3424 59.87 63.59C59.77 63.29 59.66 63 59.54 62.72L59.53 62.77Z" fill="black"/>
<path fill-rule="evenodd" clip-rule="evenodd" d="M50.9398 39.7105C51.0698 38.5905 47.7498 34.3205 47.1498 32.2705C45.8498 30.2105 45.3898 26.9205 46.7998 24.7405C47.3698 23.8805 47.1198 22.3405 47.1198 21.1405C47.1198 9.26047 67.9298 9.26047 67.9298 21.1405C67.9298 22.6405 67.5898 23.7805 68.3998 24.9705C69.7598 26.9705 69.0598 30.4405 67.9098 32.2805C67.1698 34.4305 63.6898 38.4905 63.9098 39.7105C64.1298 45.8105 50.9098 45.6105 50.9098 39.7105H50.9398ZM58.5198 50.2505H59.2498C59.4074 50.2505 59.5635 50.2194 59.7091 50.1591C59.8547 50.0988 59.9869 50.0104 60.0984 49.899C60.2098 49.7876 60.2982 49.6553 60.3585 49.5097C60.4188 49.3641 60.4498 49.2081 60.4498 49.0505V47.1105C60.4498 46.9529 60.4188 46.7968 60.3585 46.6512C60.2982 46.5057 60.2098 46.3734 60.0984 46.2619C59.9869 46.1505 59.8547 46.0621 59.7091 46.0018C59.5635 45.9415 59.4074 45.9105 59.2498 45.9105H54.9198C54.7623 45.9105 54.6062 45.9415 54.4606 46.0018C54.315 46.0621 54.1827 46.1505 54.0713 46.2619C53.9599 46.3734 53.8715 46.5057 53.8112 46.6512C53.7509 46.7968 53.7198 46.9529 53.7198 47.1105V49.0505C53.7198 49.2081 53.7509 49.3641 53.8112 49.5097C53.8715 49.6553 53.9599 49.7876 54.0713 49.899C54.1827 50.0104 54.315 50.0988 54.4606 50.1591C54.6062 50.2194 54.7623 50.2505 54.9198 50.2505H55.6598L54.2398 54.8405H59.8898L58.5198 50.2505ZM32.3398 54.8405C33.1098 44.9405 37.7898 49.8405 47.3398 43.8405L52.5698 54.8405H32.3398ZM82.2298 54.8405C81.4698 44.9405 76.7798 49.8405 67.2298 43.8405L61.9998 54.8405H82.2298Z" fill="#F1C051"/>
<path fill-rule="evenodd" clip-rule="evenodd" d="M50.5 104.26C54.93 95.5001 68.9 102.93 70.05 93.1101C70.2 91.8301 67.2 88.4001 66.51 86.1101C65.04 83.7601 64.51 80.0301 66.12 77.5501C66.76 76.5501 66.49 73.3801 66.49 72.0301C66.49 58.5301 90.15 58.5201 90.15 72.0301C90.15 73.7401 89.76 76.4601 90.68 77.8001C92.24 80.0501 91.44 84.0301 90.13 86.1101C89.29 88.5501 86.13 91.7701 86.37 93.1101C88.37 103.18 101.56 94.4001 104.58 104.26H50.5Z" fill="#807AF9"/>
<path fill-rule="evenodd" clip-rule="evenodd" d="M48.12 108.13H106.32C108.742 108.138 111.062 109.103 112.774 110.816C114.487 112.528 115.452 114.848 115.46 117.27V121.27H39V117.27C39.0105 114.847 39.9783 112.527 41.6922 110.815C43.4062 109.103 45.7274 108.138 48.15 108.13H48.12Z" fill="black"/>
<path fill-rule="evenodd" clip-rule="evenodd" d="M42.1415 61L30.8715 62.46C29.9149 62.5865 28.9916 62.8954 28.1515 63.37C27.3112 63.8565 26.5795 64.5099 26.0015 65.29C25.4097 66.0555 24.9717 66.9282 24.7115 67.86C24.4732 68.7972 24.4155 69.7712 24.5415 70.73L26.8515 83.42C26.9699 84.377 27.2757 85.3013 27.7515 86.14C28.238 86.9803 28.8914 87.712 29.6715 88.29C30.4331 88.8908 31.3091 89.3302 32.2461 89.5812C33.1832 89.8322 34.1615 89.8896 35.1215 89.75L38.7715 89.26C39.5083 89.9833 40.2971 90.6518 41.1315 91.26C42.1082 91.9611 43.1457 92.5736 44.2315 93.09C45.346 93.6231 46.5034 94.0613 47.6915 94.4C48.9296 94.7521 50.1935 95.0062 51.4715 95.16C51.6629 95.1916 51.8593 95.1668 52.0369 95.0886C52.2144 95.0105 52.3654 94.8824 52.4715 94.72C52.5545 94.6086 52.6133 94.481 52.6442 94.3456C52.6752 94.2101 52.6775 94.0697 52.6512 93.9333C52.6249 93.7968 52.5704 93.6674 52.4912 93.5532C52.4121 93.439 52.31 93.3426 52.1915 93.27C51.5738 92.8607 50.9977 92.3918 50.4715 91.87C50.0219 91.4231 49.629 90.9227 49.3015 90.38C48.9548 89.82 48.6215 89.25 48.3015 88.67L48.0015 88L51.4915 87.54C52.4487 87.4165 53.3726 87.1074 54.2115 86.63C55.888 85.6282 57.1158 84.0209 57.6415 82.14C57.8815 81.22 57.0915 78.58 56.9715 77.59L55.5015 66.59C55.3769 65.6344 55.0714 64.7113 54.6015 63.87C53.8726 62.6053 52.7827 61.587 51.4714 60.9457C50.1602 60.3043 48.6873 60.069 47.2415 60.27L42.1415 60.95V61ZM47.8415 69.32C48.0796 69.2697 48.2912 69.1343 48.4366 68.9392C48.5821 68.744 48.6513 68.5026 48.6315 68.26C48.6038 68.0211 48.4836 67.8025 48.2967 67.6511C48.1097 67.4997 47.871 67.4275 47.6315 67.45L32.6315 69.64C32.3952 69.6924 32.186 69.8287 32.0425 70.0236C31.8991 70.2185 31.8312 70.4589 31.8515 70.7C31.8792 70.939 31.9994 71.1575 32.1863 71.309C32.3732 71.4604 32.612 71.5325 32.8515 71.51L47.8515 69.32H47.8415ZM50.3715 81C50.6096 80.9497 50.8212 80.8143 50.9666 80.6192C51.1121 80.424 51.1813 80.1826 51.1615 79.94C51.1338 79.7011 51.0136 79.4825 50.8267 79.3311C50.6398 79.1797 50.401 79.1075 50.1615 79.13L35.1615 81.32C34.9252 81.3724 34.716 81.5087 34.5725 81.7036C34.4291 81.8985 34.3612 82.1389 34.3815 82.38C34.4092 82.619 34.5294 82.8375 34.7163 82.989C34.9032 83.1404 35.142 83.2125 35.3815 83.19L50.3815 81H50.3715ZM44.6415 75.9C44.7623 75.8817 44.8784 75.8397 44.983 75.7765C45.0876 75.7134 45.1788 75.6301 45.2512 75.5317C45.3237 75.4333 45.376 75.3215 45.4052 75.2028C45.4344 75.0841 45.4399 74.9608 45.4215 74.84C45.3938 74.6011 45.2736 74.3825 45.0867 74.2311C44.8997 74.0797 44.661 74.0075 44.4215 74.03L34.0015 75.66C33.8806 75.6783 33.7646 75.7203 33.66 75.7835C33.5553 75.8467 33.4642 75.9299 33.3917 76.0283C33.3193 76.1268 33.267 76.2385 33.2378 76.3572C33.2085 76.4759 33.203 76.5992 33.2215 76.72C33.2467 76.96 33.3662 77.1802 33.5537 77.3321C33.7413 77.484 33.9815 77.5552 34.2215 77.53L44.6615 75.89L44.6415 75.9Z" fill="#1F8E5B"/>
<path fill-rule="evenodd" clip-rule="evenodd" d="M86.0012 8.27017L96.9012 9.71017C97.8296 9.83126 98.7259 10.13 99.5412 10.5902C100.357 11.0616 101.068 11.6945 101.631 12.4502C102.206 13.191 102.63 14.0368 102.881 14.9402C103.111 15.8516 103.165 16.7984 103.041 17.7302L100.811 30.0002C100.689 30.9282 100.39 31.8242 99.9312 32.6402C99.4591 33.4528 98.8262 34.1605 98.0712 34.7202C97.3291 35.3055 96.4799 35.7403 95.5712 36.0002C94.6621 36.2438 93.7132 36.3016 92.7812 36.1702L89.2412 35.7002C88.5414 36.399 87.7929 37.0473 87.0012 37.6402C86.0589 38.323 85.0545 38.9156 84.0012 39.4102C82.9237 39.9329 81.8028 40.3612 80.6512 40.6902C79.4485 41.0298 78.2216 41.2772 76.9812 41.4302C76.7517 41.47 76.5155 41.4284 76.3133 41.3126C76.1112 41.1968 75.9558 41.0141 75.874 40.796C75.7922 40.5779 75.7891 40.338 75.8653 40.1179C75.9415 39.8977 76.0921 39.7111 76.2912 39.5902C76.8877 39.1918 77.4467 38.74 77.9612 38.2402C78.3604 37.7968 78.7092 37.3105 79.0012 36.7902C79.3312 36.2502 79.6512 35.6902 79.9312 35.1302L80.2212 34.5102L76.8512 34.0702C75.9184 33.9487 75.0182 33.6464 74.2012 33.1802C73.3864 32.7111 72.6781 32.0777 72.1212 31.3202C71.5426 30.5782 71.1176 29.7283 70.8712 28.8202C70.6412 27.9302 71.4012 25.3702 71.5212 24.4102L73.0012 13.7302C73.1237 12.799 73.4224 11.8997 73.8812 11.0802C74.3468 10.269 74.9729 9.56123 75.7212 9.00017C76.4595 8.41901 77.3084 7.99428 78.2161 7.75186C79.1239 7.50945 80.0715 7.45444 81.0012 7.59017L86.0012 8.25017V8.27017ZM78.0012 27.6802C77.7721 27.6408 77.5668 27.5153 77.4273 27.3293C77.2879 27.1434 77.2249 26.9111 77.2512 26.6802C77.2636 26.5621 77.2994 26.4476 77.3567 26.3436C77.414 26.2395 77.4915 26.148 77.5847 26.0744C77.6779 26.0007 77.7848 25.9465 77.8993 25.9149C78.0138 25.8833 78.1334 25.8748 78.2512 25.8902L92.7512 28.0002C92.981 28.0395 93.1873 28.1647 93.3284 28.3503C93.4695 28.5359 93.5348 28.7682 93.5112 29.0002C93.4976 29.1178 93.4609 29.2315 93.4032 29.3349C93.3455 29.4383 93.268 29.5293 93.1751 29.6026C93.0822 29.676 92.9758 29.7304 92.8618 29.7625C92.7479 29.7947 92.6288 29.8041 92.5112 29.7902L78.0012 27.6802ZM80.4612 16.3402C80.2314 16.3008 80.0251 16.1757 79.884 15.99C79.7429 15.8044 79.6776 15.5721 79.7012 15.3402C79.7136 15.2221 79.7494 15.1076 79.8067 15.0036C79.864 14.8995 79.9415 14.808 80.0347 14.7344C80.1279 14.6607 80.2349 14.6065 80.3493 14.5749C80.4638 14.5433 80.5834 14.5348 80.7012 14.5502L95.2012 16.6502C95.431 16.6895 95.6373 16.8147 95.7784 17.0003C95.9195 17.1859 95.9848 17.4182 95.9612 17.6502C95.9476 17.7678 95.9109 17.8815 95.8532 17.9849C95.7955 18.0883 95.718 18.1793 95.6251 18.2526C95.5322 18.326 95.4258 18.3804 95.3118 18.4125C95.1979 18.4447 95.0788 18.4541 94.9612 18.4402L80.4412 16.3402H80.4612ZM79.5712 22.1002C79.3312 22.0683 79.1136 21.9425 78.9664 21.7502C78.8192 21.558 78.7544 21.3152 78.7862 21.0752C78.818 20.8351 78.9439 20.6176 79.1361 20.4704C79.3284 20.3232 79.5712 20.2583 79.8112 20.2902L87.1712 21.4002C87.4021 21.4373 87.6099 21.5618 87.7514 21.748C87.8929 21.9342 87.9573 22.1678 87.9312 22.4002C87.9189 22.5183 87.883 22.6327 87.8257 22.7368C87.7684 22.8408 87.6909 22.9324 87.5977 23.006C87.5046 23.0796 87.3976 23.1338 87.2831 23.1655C87.1686 23.1971 87.049 23.2055 86.9312 23.1902L79.5512 22.1002H79.5712Z" fill="#42A5F5"/>
</g>
<defs>
<clipPath id="clip0_356_3216">
<rect width="122.88" height="121.28" fill="white"/>
</clipPath>
</defs>
</svg>
