<svg xmlns="http://www.w3.org/2000/svg" width="33" height="32" viewBox="0 0 33 32" fill="none">
                <rect x="0.727478" width="31.6524" height="31.6529" rx="15.4002" fill="#892CDC" />
                <path
                        d="M14.5125 15.9625C14.5125 14.7609 15.486 13.7865 16.6873 13.7865C17.8885 13.7865 18.8625 14.7609 18.8625 15.9625C18.8625 17.164 17.8885 18.1384 16.6873 18.1384C15.486 18.1384 14.5125 17.164 14.5125 15.9625ZM13.3366 15.9625C13.3366 17.8136 14.8367 19.3141 16.6873 19.3141C18.5378 19.3141 20.0379 17.8136 20.0379 15.9625C20.0379 14.1113 18.5378 12.6108 16.6873 12.6108C14.8367 12.6108 13.3366 14.1113 13.3366 15.9625ZM19.3875 12.4779C19.3875 12.6328 19.4333 12.7843 19.5193 12.9131C19.6053 13.0419 19.7276 13.1424 19.8706 13.2017C20.0137 13.2611 20.1711 13.2766 20.323 13.2465C20.4749 13.2163 20.6145 13.1418 20.724 13.0323C20.8336 12.9228 20.9082 12.7832 20.9385 12.6313C20.9688 12.4794 20.9533 12.3219 20.8941 12.1787C20.8349 12.0356 20.7346 11.9132 20.6059 11.8271C20.4771 11.741 20.3258 11.695 20.1709 11.6949H20.1706C19.963 11.695 19.7639 11.7775 19.6171 11.9243C19.4703 12.0711 19.3877 12.2702 19.3875 12.4779ZM14.0511 21.2755C13.4149 21.2465 13.0691 21.1405 12.8393 21.051C12.5346 20.9323 12.3173 20.791 12.0887 20.5627C11.8602 20.3344 11.7187 20.1172 11.6006 19.8124C11.5111 19.5827 11.4051 19.2367 11.3762 18.6003C11.3445 17.9123 11.3382 17.7056 11.3382 15.9625C11.3382 14.2194 11.345 14.0133 11.3762 13.3247C11.4051 12.6883 11.5119 12.343 11.6006 12.1126C11.7192 11.8078 11.8605 11.5904 12.0887 11.3618C12.3169 11.1332 12.5341 10.9917 12.8393 10.8735C13.069 10.7839 13.4149 10.6779 14.0511 10.649C14.7389 10.6174 14.9455 10.611 16.6873 10.611C18.4291 10.611 18.6359 10.6179 19.3243 10.649C19.9605 10.678 20.3057 10.7848 20.536 10.8735C20.8407 10.9917 21.0581 11.1335 21.2866 11.3618C21.5151 11.5901 21.6561 11.8078 21.7747 12.1126C21.8643 12.3423 21.9702 12.6883 21.9992 13.3247C22.0308 14.0133 22.0371 14.2194 22.0371 15.9625C22.0371 17.7056 22.0308 17.9117 21.9992 18.6003C21.9702 19.2367 21.8637 19.5826 21.7747 19.8124C21.6561 20.1172 21.5148 20.3346 21.2866 20.5627C21.0584 20.7908 20.8407 20.9323 20.536 21.051C20.3064 21.1406 19.9605 21.2466 19.3243 21.2755C18.6365 21.3071 18.4298 21.3135 16.6873 21.3135C14.9447 21.3135 14.7387 21.3071 14.0511 21.2755ZM13.997 9.47472C13.3024 9.50636 12.8277 9.61654 12.4132 9.7779C11.9838 9.94452 11.6204 10.1681 11.2572 10.5308C10.8941 10.8935 10.6712 11.2576 10.5046 11.687C10.3433 12.102 10.2331 12.5765 10.2015 13.2714C10.1693 13.9674 10.162 14.1899 10.162 15.9625C10.162 17.7351 10.1693 17.9576 10.2015 18.6535C10.2331 19.3484 10.3433 19.8229 10.5046 20.2379C10.6712 20.6671 10.8941 21.0316 11.2572 21.3941C11.6204 21.7567 11.9838 21.9799 12.4132 22.147C12.8285 22.3084 13.3024 22.4186 13.997 22.4502C14.6931 22.4818 14.9152 22.4897 16.6873 22.4897C18.4593 22.4897 18.6818 22.4824 19.3775 22.4502C20.0722 22.4186 20.5466 22.3084 20.9614 22.147C21.3904 21.9799 21.7541 21.7568 22.1173 21.3941C22.4805 21.0314 22.7029 20.6671 22.87 20.2379C23.0313 19.8229 23.1419 19.3484 23.173 18.6535C23.2047 17.957 23.212 17.7351 23.212 15.9625C23.212 14.1899 23.2047 13.9674 23.173 13.2714C23.1414 12.5765 23.0313 12.1017 22.87 11.687C22.7029 11.2579 22.4799 10.8941 22.1173 10.5308C21.7547 10.1675 21.3904 9.94452 20.9619 9.7779C20.5466 9.61654 20.0722 9.50584 19.378 9.47472C18.6823 9.44307 18.4599 9.43519 16.6878 9.43519C14.9157 9.43519 14.6931 9.44255 13.997 9.47472Z"
                        fill="white"
                />
            </svg>